SplineFontDB: 3.2
FontName: TengwarComixanesse
FullName: Tengwar Comixanesse
FamilyName: Tengwar Comixanesse
Weight: Regular
Copyright: Shankar Sivarajan\n
Version: 
ItalicAngle: 0
UnderlinePosition: -48
UnderlineWidth: 24
Ascent: 800
Descent: 200
InvalidEm: 0
LayerCount: 2
Layer: 0 1 "Back" 1
Layer: 1 1 "Fore" 0
XUID: [1021 146 -1796264217 19784]
StyleMap: 0x0040
FSType: 0
OS2Version: 3
OS2_WeightWidthSlopeOnly: 0
OS2_UseTypoMetrics: 0
CreationTime: 1115869583
ModificationTime: 1763853611
PfmFamily: 17
TTFWeight: 400
TTFWidth: 5
LineGap: 13
VLineGap: 0
Panose: 2 11 5 0 0 0 0 0 0 0
OS2TypoAscent: 833
OS2TypoAOffset: 0
OS2TypoDescent: -330
OS2TypoDOffset: 0
OS2TypoLinegap: 0
OS2WinAscent: 981
OS2WinAOffset: 0
OS2WinDescent: 634
OS2WinDOffset: 0
HheadAscent: 981
HheadAOffset: 0
HheadDescent: -634
HheadDOffset: 0
OS2SubXSize: 700
OS2SubYSize: 650
OS2SubXOff: 0
OS2SubYOff: 143
OS2SupXSize: 700
OS2SupYSize: 650
OS2SupXOff: 0
OS2SupYOff: 453
OS2StrikeYSize: 50
OS2StrikeYPos: 250
OS2CapHeight: 831
OS2XHeight: 444
OS2Vendor: '    '
OS2CodePages: 00000003.00000000
OS2UnicodeRanges: 800000af.4000284a.00000000.00000000
Lookup: 4 0 1 "Ligatures" { "Ligatures subtable"  } ['liga' ('DFLT' <'dflt' > ) ]
Lookup: 6 0 0 "LambeBar" { "LambeBar contextual 0"  "LambeBar contextual 1"  "LambeBar contextual 2"  "LambeBar contextual 3"  } ['liga' ('DFLT' <'dflt' > ) ]
Lookup: 1 0 0 "Single Substitution lookup 2" { "Single Substitution lookup 2 subtable"  } []
Lookup: 1 0 0 "Single Substitution lookup 3" { "Single Substitution lookup 3 subtable"  } []
Lookup: 1 0 0 "Single Substitution lookup 4" { "Single Substitution lookup 4 subtable"  } []
Lookup: 1 0 0 "Single Substitution lookup 5" { "Single Substitution lookup 5 subtable"  } []
Lookup: 260 0 0 "'mark' Mark Positioning Lookup 0" { "'mark' Mark Positioning lookup 0-1"  } ['mark' ('DFLT' <'dflt' > ) ]
Lookup: 262 0 0 "'mkmk' Mark to Mark lookup 1" { "'mkmk' Mark to Mark lookup 1-1"  } ['mkmk' ('DFLT' <'dflt' > ) ]

StartChar: tinco
Encoding: 13 57344 1
Width: 509
GlyphClass: 2
Flags: W
AnchorPoint: "inside" 238 271 basechar 0
AnchorPoint: "shook" 317 49 basechar 0
AnchorPoint: "TehtaBelow" 344 -86 basechar 0
AnchorPoint: "TehtaAbove" 257 663 basechar 0
LayerCount: 2
Fore
SplineSet
42 538 m 0,0,1
 52 553 52 553 60 558 c 128,-1,2
 68 563 68 563 84 563 c 0,3,4
 106 563 106 563 120.5 547.5 c 128,-1,5
 135 532 135 532 135 509 c 0,6,7
 135 495 135 495 144 495 c 128,-1,8
 153 495 153 495 186 510 c 0,9,10
 220 527 220 527 277 527 c 0,11,12
 326 527 326 527 353 514 c 0,13,14
 404 490 404 490 432 425.5 c 128,-1,15
 460 361 460 361 460 269 c 0,16,17
 460 182 460 182 434 126 c 128,-1,18
 408 70 408 70 351 36 c 0,19,20
 318 16 318 16 302 16 c 0,21,22
 290 16 290 16 276 26 c 0,23,24
 258 38 258 38 258 63 c 128,-1,25
 258 88 258 88 278 110 c 0,26,27
 296 130 296 130 305 130 c 0,28,29
 313 130 313 130 334 163 c 0,30,31
 348 186 348 186 351.5 203 c 128,-1,32
 355 220 355 220 355 274 c 0,33,34
 355 353 355 353 342 380 c 0,35,36
 321 425 321 425 270 425 c 0,37,38
 226 425 226 425 175 389 c 2,39,-1
 140 366 l 1,40,-1
 140 71 l 2,41,42
 139 -224 139 -224 128 -236 c 0,43,44
 117 -249 117 -249 85 -249 c 0,45,46
 59 -249 59 -249 52 -239 c 0,47,48
 45 -232 45 -232 40 60 c 0,49,50
 37 295 37 295 31 431 c 0,51,52
 29 477 29 477 29 484 c 0,53,54
 29 517 29 517 42 538 c 0,0,1
EndSplineSet
EndChar

StartChar: parma
Encoding: 14 57345 2
Width: 529
GlyphClass: 2
Flags: W
AnchorPoint: "inside" 244 220 basechar 0
AnchorPoint: "shook" 419 99 basechar 0
AnchorPoint: "TehtaAbove" 281 586 basechar 0
AnchorPoint: "TehtaBelow" 366 -73 basechar 0
LayerCount: 2
Fore
SplineSet
298 420 m 0,0,1
 282 431 282 431 245 431 c 0,2,3
 211 431 211 431 166 421 c 2,4,-1
 128 411 l 1,5,-1
 128 141 l 1,6,-1
 170 143 l 2,7,8
 227 145 227 145 271 151 c 2,9,-1
 329 157 l 1,10,-1
 331 238 l 1,11,-1
 331 265 l 2,12,13
 331 398 331 398 298 420 c 0,0,1
46 545 m 2,14,15
 64 553 64 553 69 553 c 0,16,17
 79 553 79 553 104 531 c 0,18,19
 125 513 125 513 136 513 c 0,20,21
 139 513 139 513 145 515 c 0,22,23
 159 522 159 522 207 531 c 0,24,25
 237 536 237 536 259 536 c 0,26,27
 327 536 327 536 373 494 c 0,28,29
 408 463 408 463 417.5 422.5 c 128,-1,30
 427 382 427 382 438 215 c 0,31,32
 443 143 443 143 458 127 c 0,33,34
 471 113 471 113 471 86 c 0,35,36
 471 61 471 61 460 53 c 0,37,38
 448 44 448 44 355 44 c 2,39,-1
 338 44 l 2,40,41
 272 44 272 44 214.5 34.5 c 128,-1,42
 157 25 157 25 141 12 c 0,43,44
 131 6 131 6 131 -115 c 0,45,46
 131 -237 131 -237 120 -261 c 0,47,48
 114 -277 114 -277 109 -282 c 128,-1,49
 104 -287 104 -287 93 -287 c 0,50,51
 91 -287 91 -287 87 -286.5 c 128,-1,52
 83 -286 83 -286 80 -286 c 0,53,54
 54 -284 54 -284 46 -273 c 0,55,56
 31 -251 31 -251 29 -100 c 0,57,58
 28 -45 28 -45 28 148 c 2,59,-1
 27 535 l 1,60,-1
 46 545 l 2,14,15
EndSplineSet
EndChar

StartChar: calma
Encoding: 15 57346 3
Width: 540
GlyphClass: 2
Flags: W
AnchorPoint: "inside" 269 319 basechar 0
AnchorPoint: "shook" 410 517 basechar 0
AnchorPoint: "TehtaAbove" 269 722 basechar 0
AnchorPoint: "TehtaBelow" 150 -82 basechar 0
LayerCount: 2
Fore
SplineSet
377 554 m 0,0,1
 392 570 392 570 407 570 c 0,2,3
 421 570 421 570 440 556 c 0,4,5
 450 548 450 548 453 536.5 c 128,-1,6
 456 525 456 525 456 485 c 0,7,8
 456 441 456 441 455 407 c 0,9,10
 453 267 453 267 451 261 c 0,11,12
 447 245 447 245 424 26 c 0,13,14
 416 -41 416 -41 411 -116 c 0,15,16
 407 -170 407 -170 403.5 -185 c 128,-1,17
 400 -200 400 -200 388 -207 c 0,18,19
 376 -217 376 -217 356 -217 c 0,20,21
 355 -217 355 -217 352.5 -216.5 c 128,-1,22
 350 -216 350 -216 349 -216 c 0,23,24
 327 -214 327 -214 319 -197.5 c 128,-1,25
 311 -181 311 -181 311 -132 c 0,26,27
 311 -119 311 -119 313 -69 c 2,28,-1
 318 37 l 1,29,-1
 256 37 l 2,30,31
 205 37 205 37 176 46 c 128,-1,32
 147 55 147 55 110 82 c 0,33,34
 27 143 27 143 27 258 c 0,35,36
 27 285 27 285 31 308 c 0,37,38
 42 384 42 384 77.5 441.5 c 128,-1,39
 113 499 113 499 163 523 c 0,40,41
 195 539 195 539 218 539 c 0,42,43
 254 539 254 539 254 499 c 0,44,45
 254 478 254 478 209 433 c 0,46,47
 182 406 182 406 170 387.5 c 128,-1,48
 158 369 158 369 147 336 c 0,49,50
 130 285 130 285 130 257 c 0,51,52
 130 231 130 231 146 196 c 0,53,54
 163 159 163 159 186 144.5 c 128,-1,55
 209 130 209 130 251 130 c 0,56,57
 287 130 287 130 305.5 141 c 128,-1,58
 324 152 324 152 335 180 c 0,59,60
 342 199 342 199 351.5 303.5 c 128,-1,61
 361 408 361 408 362 467 c 0,62,63
 362 512 362 512 364.5 527.5 c 128,-1,64
 367 543 367 543 377 554 c 0,0,1
EndSplineSet
EndChar

StartChar: quesse
Encoding: 16 57347 4
Width: 639
GlyphClass: 2
Flags: W
AnchorPoint: "inside" 329 312 basechar 0
AnchorPoint: "shook" 483 518 basechar 0
AnchorPoint: "TehtaBelow" 159 -112 basechar 0
AnchorPoint: "TehtaAbove" 307 698 basechar 0
LayerCount: 2
Fore
SplineSet
413 458 m 2,0,1
 378 472 378 472 275 472 c 0,2,3
 241 472 241 472 236 468 c 0,4,5
 229 464 229 464 229 442 c 0,6,7
 229 436 229 436 231 404 c 0,8,9
 231 396 231 396 234 329 c 128,-1,10
 237 262 237 262 240.5 212 c 128,-1,11
 244 162 244 162 248 142 c 0,12,13
 254 116 254 116 283 116 c 0,14,15
 315 116 315 116 355.5 144 c 128,-1,16
 396 172 396 172 413 211 c 0,17,18
 425 240 425 240 428 344 c 2,19,-1
 432 452 l 1,20,-1
 413 458 l 2,0,1
197 576 m 0,21,22
 243 580 243 580 260 580 c 0,23,24
 271 580 271 580 274 579 c 0,25,26
 286 577 286 577 401 571 c 0,27,28
 476 567 476 567 494 564 c 128,-1,29
 512 561 512 561 519 549 c 0,30,31
 530 533 530 533 535 164 c 2,32,-1
 540 -205 l 1,33,-1
 524 -222 l 2,34,35
 507 -239 507 -239 488 -239 c 0,36,37
 471 -239 471 -239 452 -225 c 0,38,39
 439 -214 439 -214 436 -194.5 c 128,-1,40
 433 -175 433 -175 430 -76 c 0,41,42
 427 57 427 57 418 61 c 0,43,44
 411 64 411 64 395 50 c 0,45,46
 372 29 372 29 346 21 c 128,-1,47
 320 13 320 13 274 13 c 0,48,49
 233 13 233 13 219.5 16.5 c 128,-1,50
 206 20 206 20 192 33 c 0,51,52
 174 50 174 50 162 75 c 0,53,54
 151 99 151 99 143 162.5 c 128,-1,55
 135 226 135 226 134 287 c 0,56,57
 134 344 134 344 123 401 c 0,58,59
 116 436 116 436 111 442.5 c 128,-1,60
 106 449 106 449 84 452 c 0,61,62
 54 456 54 456 40 480 c 0,63,64
 30 498 30 498 30 503 c 0,65,66
 30 509 30 509 38 520 c 0,67,68
 66 562 66 562 197 576 c 0,21,22
EndSplineSet
EndChar

StartChar: ando
Encoding: 17 57348 5
Width: 918
GlyphClass: 2
Flags: W
AnchorPoint: "inside" 244 254 basechar 0
AnchorPoint: "shook" 646 70 basechar 0
AnchorPoint: "TehtaBelow" 382 -126 basechar 0
AnchorPoint: "TehtaAbove" 417 705 basechar 0
LayerCount: 2
Fore
SplineSet
61 557 m 0,0,1
 71 564 71 564 82 564 c 0,2,3
 99 564 99 564 113.5 550.5 c 128,-1,4
 128 537 128 537 132 516 c 128,-1,5
 136 495 136 495 147 495 c 128,-1,6
 158 495 158 495 188 510 c 0,7,8
 226 528 226 528 274 528 c 0,9,10
 329 528 329 528 365 506 c 2,11,-1
 398 485 l 1,12,-1
 457 506 l 2,13,14
 505 522 505 522 522 522 c 0,15,16
 532 522 532 522 554 517 c 0,17,18
 588 509 588 509 607 509 c 0,19,20
 624 509 624 509 673 483.5 c 128,-1,21
 722 458 722 458 751 434 c 0,22,23
 814 382 814 382 838 339.5 c 128,-1,24
 862 297 862 297 863 234 c 2,25,-1
 863 217 l 2,26,27
 863 176 863 176 842 145 c 0,28,29
 801 86 801 86 698 36 c 0,30,31
 657 17 657 17 647 17 c 0,32,33
 639 17 639 17 623 25 c 0,34,35
 598 37 598 37 589 56 c 0,36,37
 585 64 585 64 585 71 c 0,38,39
 585 81 585 81 601 103 c 0,40,41
 622 130 622 130 643 135 c 0,42,43
 688 145 688 145 724 175.5 c 128,-1,44
 760 206 760 206 760 234 c 0,45,46
 760 287 760 287 701.5 338.5 c 128,-1,47
 643 390 643 390 561 409 c 0,48,49
 536 415 536 415 525 415 c 0,50,51
 512 415 512 415 487 401 c 2,52,-1
 453 383 l 1,53,-1
 457 299 l 2,54,55
 458 283 458 283 458 255 c 0,56,57
 458 205 458 205 448.5 172 c 128,-1,58
 439 139 439 139 415 102 c 0,59,60
 389 61 389 61 347 37 c 0,61,62
 308 16 308 16 301 16 c 0,63,64
 295 16 295 16 282 24 c 0,65,66
 262 36 262 36 259 63 c 2,67,-1
 259 72 l 2,68,69
 259 84 259 84 265 92.5 c 128,-1,70
 271 101 271 101 293 119 c 0,71,72
 332 151 332 151 343 176 c 128,-1,73
 354 201 354 201 354 262 c 2,74,-1
 354 277 l 2,75,76
 354 346 354 346 343.5 375.5 c 128,-1,77
 333 405 333 405 303 421 c 0,78,79
 286 430 286 430 275 430 c 0,80,81
 269 430 269 430 243 423 c 0,82,83
 215 416 215 416 183.5 398 c 128,-1,84
 152 380 152 380 144 368 c 0,85,86
 138 358 138 358 138 67 c 128,-1,87
 138 -224 138 -224 127 -236 c 0,88,89
 116 -249 116 -249 84 -249 c 0,90,91
 58 -249 58 -249 51 -239 c 0,92,93
 43 -231 43 -231 38 68 c 0,94,95
 32 369 32 369 29 437 c 0,96,97
 27 473 27 473 27 480 c 0,98,99
 27 511 27 511 39 530 c 0,100,101
 51 551 51 551 61 557 c 0,0,1
EndSplineSet
EndChar

StartChar: umbar
Encoding: 18 57349 6
Width: 918
GlyphClass: 2
Flags: W
AnchorPoint: "inside" 252 309 basechar 0
AnchorPoint: "shook" 765 35 basechar 0
AnchorPoint: "TehtaBelow" 426 -125 basechar 0
AnchorPoint: "TehtaAbove" 432 774 basechar 0
LayerCount: 2
Fore
SplineSet
623 508 m 0,0,1
 609 515 609 515 573 515 c 0,2,3
 526 515 526 515 490 505 c 2,4,-1
 455 496 l 1,5,-1
 449 322 l 2,6,7
 446 231 446 231 446 171 c 0,8,9
 446 142 446 142 447 140 c 0,10,11
 450 130 450 130 528 130 c 0,12,13
 608 130 608 130 621 122 c 0,14,15
 628 118 628 118 634 118 c 0,16,17
 647 118 647 118 652 149.5 c 128,-1,18
 657 181 657 181 659 274 c 0,19,20
 659 283 659 283 659.5 299.5 c 128,-1,21
 660 316 660 316 660 324 c 0,22,23
 660 491 660 491 623 508 c 0,0,1
345 387 m 0,24,25
 340 481 340 481 337 501 c 128,-1,26
 334 521 334 521 323 522 c 2,27,-1
 318 522 l 2,28,29
 291 522 291 522 255.5 504 c 128,-1,30
 220 486 220 486 197 459 c 0,31,32
 167 424 167 424 159 399.5 c 128,-1,33
 151 375 151 375 151 307 c 2,34,-1
 151 252 l 1,35,-1
 153 118 l 1,36,-1
 188 119 l 2,37,38
 205 120 205 120 281 127 c 2,39,-1
 339 134 l 1,40,-1
 345 194 l 2,41,42
 348 218 348 218 348 276 c 0,43,44
 348 333 348 333 345 387 c 0,24,25
281 615 m 0,45,46
 302 624 302 624 336 624 c 0,47,48
 384 624 384 624 405 609 c 2,49,-1
 427 593 l 1,50,-1
 505 609 l 2,51,52
 554 619 554 619 590 619 c 0,53,54
 648 619 648 619 696 583 c 0,55,56
 716 568 716 568 725 555.5 c 128,-1,57
 734 543 734 543 741 519 c 0,58,59
 753 475 753 475 753 451 c 0,60,61
 753 414 753 414 761 348 c 0,62,63
 766 301 766 301 766 276 c 0,64,65
 766 244 766 244 760 197 c 2,66,-1
 749 120 l 1,67,-1
 769 106 l 2,68,69
 808 77 808 77 818.5 64.5 c 128,-1,70
 829 52 829 52 833 32 c 0,71,72
 835 20 835 20 835 15 c 0,73,74
 835 -22 835 -22 795 -22 c 0,75,76
 772 -22 772 -22 736 -7 c 0,77,78
 707 5 707 5 618 13 c 128,-1,79
 529 21 529 21 427 21 c 0,80,81
 318 21 318 21 242 12 c 2,82,-1
 169 2 l 1,83,-1
 164 -87 l 2,84,85
 160 -169 160 -169 150.5 -197.5 c 128,-1,86
 141 -226 141 -226 118 -226 c 2,87,-1
 114 -226 l 2,88,89
 95 -226 95 -226 89 -212 c 0,90,91
 76 -183 76 -183 66 42 c 0,92,93
 64 81 64 81 57 242 c 0,94,95
 52 387 52 387 42 424 c 0,96,97
 28 476 28 476 28 498 c 0,98,99
 28 517 28 517 41 530 c 0,100,101
 56 546 56 546 77 546 c 0,102,103
 99 546 99 546 116 530 c 2,104,-1
 134 514 l 1,105,-1
 171 549 l 2,106,107
 208 584 208 584 235 595 c 0,108,109
 243 599 243 599 260 606 c 128,-1,110
 277 613 277 613 281 615 c 0,45,46
EndSplineSet
EndChar

StartChar: anga
Encoding: 19 57350 7
Width: 815
GlyphClass: 2
Flags: W
AnchorPoint: "inside" 547 291 basechar 0
AnchorPoint: "shook" 702 498 basechar 0
AnchorPoint: "TehtaBelow" 315 -90 basechar 0
AnchorPoint: "TehtaAbove" 393 710 basechar 0
LayerCount: 2
Fore
SplineSet
661 541 m 0,0,1
 673 554 673 554 697 554 c 0,2,3
 720 554 720 554 731 543 c 0,4,5
 743 531 743 531 743 466 c 0,6,7
 743 460 743 460 742.5 441 c 128,-1,8
 742 422 742 422 742 409 c 0,9,10
 740 284 740 284 717 95 c 0,11,12
 694 -106 694 -106 694 -155 c 0,13,14
 694 -186 694 -186 691 -196 c 128,-1,15
 688 -206 688 -206 676 -214 c 0,16,17
 661 -224 661 -224 641 -224 c 2,18,-1
 635 -224 l 2,19,20
 613 -222 613 -222 605 -205.5 c 128,-1,21
 597 -189 597 -189 597 -145 c 0,22,23
 597 -116 597 -116 598 -98 c 0,24,25
 602 -12 602 -12 605 3 c 0,26,27
 605 4 605 4 605.5 6 c 128,-1,28
 606 8 606 8 606 9 c 0,29,30
 606 16 606 16 595 18.5 c 128,-1,31
 584 21 584 21 545 24 c 0,32,33
 492 28 492 28 461.5 38 c 128,-1,34
 431 48 431 48 395 75 c 0,35,36
 360 99 360 99 356 99 c 0,37,38
 350 99 350 99 327 76 c 0,39,40
 283 29 283 29 219 29 c 0,41,42
 149 29 149 29 90 81 c 0,43,44
 50 117 50 117 38 150 c 128,-1,45
 26 183 26 183 26 254 c 2,46,-1
 26 279 l 2,47,48
 26 318 26 318 30 336 c 128,-1,49
 34 354 34 354 49 385 c 0,50,51
 91 474 91 474 172 513 c 0,52,53
 219 536 219 536 239 536 c 0,54,55
 253 536 253 536 272 522 c 0,56,57
 290 507 290 507 290 494 c 0,58,59
 290 472 290 472 243 451 c 0,60,61
 201 432 201 432 178 407 c 0,62,63
 122 348 122 348 122 252 c 0,64,65
 122 172 122 172 165 138 c 0,66,67
 185 122 185 122 220 122 c 128,-1,68
 255 122 255 122 281 139 c 0,69,70
 302 154 302 154 310.5 165 c 128,-1,71
 319 176 319 176 319 191 c 0,72,73
 319 200 319 200 316 214 c 0,74,75
 313 226 313 226 313 244 c 0,76,77
 313 281 313 281 322 327.5 c 128,-1,78
 331 374 331 374 344 401 c 0,79,80
 371 457 371 457 418.5 494.5 c 128,-1,81
 466 532 466 532 502 532 c 0,82,83
 540 532 540 532 540 489 c 0,84,85
 540 476 540 476 532 465 c 128,-1,86
 524 454 524 454 502 435 c 0,87,88
 464 402 464 402 440 349.5 c 128,-1,89
 416 297 416 297 416 247 c 0,90,91
 416 221 416 221 433.5 186.5 c 128,-1,92
 451 152 451 152 471 138 c 0,93,94
 495 120 495 120 539 120 c 0,95,96
 578 120 578 120 594 135 c 0,97,98
 610 149 610 149 619 169 c 0,99,100
 627 190 627 190 637 286.5 c 128,-1,101
 647 383 647 383 647 450 c 0,102,103
 648 526 648 526 661 541 c 0,0,1
EndSplineSet
EndChar

StartChar: ungwe
Encoding: 20 57351 8
Width: 957
GlyphClass: 2
Flags: W
AnchorPoint: "inside" 604 338 basechar 0
AnchorPoint: "shook" 768 530 basechar 0
AnchorPoint: "TehtaBelow" 406 -137 basechar 0
AnchorPoint: "TehtaAbove" 446 758 basechar 0
LayerCount: 2
Fore
SplineSet
687 478 m 2,0,1
 655 483 655 483 590 483 c 0,2,3
 561 483 561 483 549.5 482.5 c 128,-1,4
 538 482 538 482 526.5 479 c 128,-1,5
 515 476 515 476 512.5 469.5 c 128,-1,6
 510 463 510 463 510 450 c 0,7,8
 510 436 510 436 513 410 c 0,9,10
 517 379 517 379 525 257 c 0,11,12
 532 164 532 164 537.5 137 c 128,-1,13
 543 110 543 110 555 110 c 0,14,15
 568 110 568 110 627 171.5 c 128,-1,16
 686 233 686 233 698 259 c 0,17,18
 712 290 712 290 712 380 c 2,19,-1
 712 473 l 1,20,-1
 687 478 l 2,0,1
405 473 m 0,21,22
 398 483 398 483 314 483 c 2,23,-1
 277 483 l 2,24,25
 248 483 248 483 238.5 477.5 c 128,-1,26
 229 472 229 472 229 453 c 0,27,28
 229 450 229 450 237 378 c 0,29,30
 253 242 253 242 263 190 c 128,-1,31
 273 138 273 138 286 120 c 0,32,33
 292 111 292 111 307 111 c 0,34,35
 334 111 334 111 381 140 c 2,36,-1
 428 169 l 1,37,-1
 427 239 l 2,38,39
 426 303 426 303 419 383.5 c 128,-1,40
 412 464 412 464 405 473 c 0,21,22
735 588 m 0,41,42
 753 594 753 594 767 594 c 0,43,44
 788 594 788 594 805 579 c 0,45,46
 817 567 817 567 817 441 c 0,47,48
 817 269 817 269 809 -17 c 128,-1,49
 801 -303 801 -303 796 -316 c 0,50,51
 784 -348 784 -348 749 -348 c 128,-1,52
 714 -348 714 -348 705 -316 c 0,53,54
 699 -299 699 -299 699 -188 c 0,55,56
 699 -138 699 -138 700 -110 c 128,-1,57
 701 -82 701 -82 701 -31 c 0,58,59
 701 73 701 73 697 91 c 2,60,-1
 691 111 l 1,61,-1
 662 75 l 2,62,63
 603 1 603 1 540 1 c 0,64,65
 512 1 512 1 484 15.5 c 128,-1,66
 456 30 456 30 451 47 c 0,67,68
 446 62 446 62 436 62 c 128,-1,69
 426 62 426 62 408 44 c 0,70,71
 392 24 392 24 356 13 c 0,72,73
 326 2 326 2 295 2 c 0,74,75
 243 2 243 2 210 39.5 c 128,-1,76
 177 77 177 77 167 147 c 0,77,78
 142 331 142 331 137 391 c 0,79,80
 129 461 129 461 126 466 c 0,81,82
 123 472 123 472 86 476 c 0,83,84
 51 480 51 480 39 490 c 0,85,86
 28 499 28 499 28 528 c 0,87,88
 28 554 28 554 38 563 c 0,89,90
 61 586 61 586 349 586 c 0,91,92
 439 586 439 586 544 583 c 0,93,94
 626 581 626 581 645 581 c 0,95,96
 718 581 718 581 735 588 c 0,41,42
EndSplineSet
EndChar

StartChar: thuule
Encoding: 21 57352 9
Width: 585
GlyphClass: 2
Flags: W
AnchorPoint: "inside" 249 253 basechar 0
AnchorPoint: "shook" 317 49 basechar 0
AnchorPoint: "TehtaAbove" 335 706 basechar 0
AnchorPoint: "TehtaBelow" 202 -109 basechar 0
LayerCount: 2
Fore
SplineSet
74 788 m 0,0,1
 79 789 79 789 87.5 790.5 c 128,-1,2
 96 792 96 792 98 793 c 0,3,4
 104 793 104 793 117 780 c 0,5,6
 129 768 129 768 129 716 c 0,7,8
 129 673 129 673 128 640 c 0,9,10
 127 614 127 614 127 567 c 0,11,12
 127 512 127 512 129 504 c 0,13,14
 130 498 130 498 137 498 c 0,15,16
 143 498 143 498 174 512 c 0,17,18
 225 537 225 537 276 537 c 0,19,20
 371 537 371 537 438.5 460.5 c 128,-1,21
 506 384 506 384 506 275 c 0,22,23
 506 226 506 226 490 177 c 0,24,25
 470 111 470 111 415 60.5 c 128,-1,26
 360 10 360 10 316 10 c 0,27,28
 288 10 288 10 275 33 c 0,29,30
 267 46 267 46 267 61 c 0,31,32
 267 91 267 91 308 109 c 0,33,34
 377 141 377 141 402 219 c 0,35,36
 412 248 412 248 412 265 c 0,37,38
 412 276 412 276 407 299 c 0,39,40
 388 376 388 376 352 408 c 0,41,42
 319 435 319 435 274 435 c 0,43,44
 228 435 228 435 181 407 c 0,45,46
 141 384 141 384 133 373 c 0,47,48
 120 354 120 354 119 276 c 2,49,-1
 119 247 l 1,50,-1
 119 193 l 2,51,52
 119 61 119 61 113.5 35 c 128,-1,53
 108 9 108 9 80 9 c 2,54,-1
 77 9 l 2,55,56
 48 9 48 9 42.5 34.5 c 128,-1,57
 37 60 37 60 32 208 c 0,58,59
 31 228 31 228 31 239 c 0,60,61
 26 419 26 419 26 511 c 0,62,63
 26 720 26 720 44 756 c 0,64,65
 57 784 57 784 74 788 c 0,0,1
EndSplineSet
EndChar

StartChar: formen
Encoding: 22 57353 10
Width: 591
GlyphClass: 2
Flags: W
AnchorPoint: "inside" 258 259 basechar 0
AnchorPoint: "shook" 489 59 basechar 0
AnchorPoint: "TehtaAbove" 329 708 basechar 0
AnchorPoint: "TehtaBelow" 256 -113 basechar 0
LayerCount: 2
Fore
SplineSet
342 431 m 0,0,1
 333 448 333 448 312 448 c 0,2,3
 296 448 296 448 276 441 c 0,4,5
 220 422 220 422 168 339 c 0,6,7
 148 306 148 306 144 288 c 128,-1,8
 140 270 140 270 139 206 c 2,9,-1
 137 118 l 1,10,-1
 160 121 l 2,11,12
 169 122 169 122 272 128 c 2,13,-1
 361 134 l 1,14,-1
 360 172 l 2,15,16
 350 416 350 416 342 431 c 0,0,1
48 814 m 0,17,18
 58 826 58 826 86 826 c 0,19,20
 122 826 122 826 129.5 797.5 c 128,-1,21
 137 769 137 769 138 632 c 0,22,23
 138 471 138 471 139 466 c 0,24,25
 142 460 142 460 163 482 c 0,26,27
 186 507 186 507 221 528 c 0,28,29
 245 542 245 542 262 546 c 128,-1,30
 279 550 279 550 316 551 c 0,31,32
 373 551 373 551 394 535 c 0,33,34
 428 510 428 510 439 467 c 128,-1,35
 450 424 450 424 458 288 c 0,36,37
 464 187 464 187 473 156 c 128,-1,38
 482 125 482 125 508 111 c 0,39,40
 539 95 539 95 539 69 c 0,41,42
 539 58 539 58 535 49 c 0,43,44
 522 18 522 18 486 18 c 0,45,46
 468 18 468 18 447 22 c 0,47,48
 420 28 420 28 378 28 c 0,49,50
 346 28 346 28 249 23 c 0,51,52
 154 18 154 18 122 18 c 0,53,54
 78 18 78 18 62 23.5 c 128,-1,55
 46 29 46 29 36 43 c 0,56,57
 27 58 27 58 27 76 c 0,58,59
 27 92 27 92 33 134 c 0,60,61
 40 204 40 204 40 433 c 2,62,-1
 40 504 l 1,63,-1
 40 624 l 2,64,65
 40 805 40 805 48 814 c 0,17,18
EndSplineSet
EndChar

StartChar: harma
Encoding: 23 57354 11
Width: 591
GlyphClass: 2
Flags: W
AnchorPoint: "inside" 261 320 basechar 0
AnchorPoint: "shook" 458 103 basechar 0
AnchorPoint: "TehtaAbove" 173 703 basechar 0
AnchorPoint: "TehtaBelow" 244 -73 basechar 0
LayerCount: 2
Fore
SplineSet
430 816 m 0,0,1
 441 833 441 833 466 833 c 0,2,3
 487 833 487 833 499 821 c 0,4,5
 508 813 508 813 508 776 c 0,6,7
 508 748 508 748 505 684 c 0,8,9
 500 600 500 600 498 314 c 0,10,11
 497 69 497 69 486 57 c 0,12,13
 477 45 477 45 458 45 c 0,14,15
 438 45 438 45 420 61 c 0,16,17
 408 73 408 73 401 73 c 0,18,19
 397 73 397 73 377 63 c 0,20,21
 347 48 347 48 307 40 c 0,22,23
 282 34 282 34 257 34 c 0,24,25
 191 34 191 34 134.5 69.5 c 128,-1,26
 78 105 78 105 50 165 c 0,27,28
 26 218 26 218 26 285 c 0,29,30
 26 348 26 348 46.5 406.5 c 128,-1,31
 67 465 67 465 102 499 c 0,32,33
 121 518 121 518 150 530.5 c 128,-1,34
 179 543 179 543 202 543 c 0,35,36
 212 543 212 543 219 540 c 0,37,38
 245 530 245 530 245 503 c 0,39,40
 245 488 245 488 235 478 c 0,41,42
 221 462 221 462 213 462 c 0,43,44
 200 462 200 462 174.5 438 c 128,-1,45
 149 414 149 414 138 391 c 0,46,47
 123 361 123 361 123 298 c 0,48,49
 123 248 123 248 131.5 224 c 128,-1,50
 140 200 140 200 167 176 c 0,51,52
 191 153 191 153 209.5 145.5 c 128,-1,53
 228 138 228 138 263 138 c 0,54,55
 307 138 307 138 341 160 c 0,56,57
 392 194 392 194 392 224 c 0,58,59
 392 229 392 229 391 232 c 0,60,61
 389 240 389 240 389 269 c 0,62,63
 389 342 389 342 396 486.5 c 128,-1,64
 403 631 403 631 410 702 c 0,65,66
 419 798 419 798 430 816 c 0,0,1
EndSplineSet
EndChar

StartChar: hwesta
Encoding: 24 57355 12
Width: 645
GlyphClass: 2
Flags: W
AnchorPoint: "inside" 300 306 basechar 0
AnchorPoint: "shook" 472 58 basechar 0
AnchorPoint: "TehtaAbove" 208 702 basechar 0
AnchorPoint: "TehtaBelow" 244 -73 basechar 0
LayerCount: 2
Fore
SplineSet
412 384 m 2,0,-1
 412 448 l 1,1,-1
 311 446 l 2,2,3
 210 444 210 444 210 440 c 0,4,5
 209 435 209 435 209 398 c 0,6,7
 209 332 209 332 212.5 233 c 128,-1,8
 216 134 216 134 219 128 c 0,9,10
 229 109 229 109 250 109 c 0,11,12
 275 109 275 109 306 134.5 c 128,-1,13
 337 160 337 160 361 203 c 0,14,15
 412 291 412 291 412 384 c 2,0,-1
420 798 m 0,16,17
 436 818 436 818 460 818 c 2,18,-1
 466 818 l 2,19,20
 493 818 493 818 499.5 803 c 128,-1,21
 506 788 506 788 506 714 c 2,22,-1
 506 660 l 1,23,-1
 506 622 l 2,24,25
 506 568 506 568 508 536 c 0,26,27
 512 489 512 489 516 269 c 0,28,29
 518 151 518 151 518 130 c 0,30,31
 518 71 518 71 513.5 46.5 c 128,-1,32
 509 22 509 22 501 17 c 128,-1,33
 493 12 493 12 470 12 c 0,34,35
 444 12 444 12 436 18.5 c 128,-1,36
 428 25 428 25 419 53 c 0,37,38
 410 84 410 84 402 88 c 1,39,-1
 401 88 l 2,40,41
 391 88 391 88 354 54 c 0,42,43
 328 31 328 31 312.5 22.5 c 128,-1,44
 297 14 297 14 272 10 c 0,45,46
 250 7 250 7 232 7 c 0,47,48
 178 7 178 7 155 39 c 0,49,50
 126 79 126 79 117.5 120.5 c 128,-1,51
 109 162 109 162 105 285 c 0,52,53
 100 466 100 466 67 478 c 0,54,55
 49 486 49 486 38 502 c 0,56,57
 30 513 30 513 30 520 c 128,-1,58
 30 527 30 527 37 541 c 0,59,60
 48 564 48 564 61 568 c 1,61,-1
 64 568 l 2,62,63
 68 569 68 569 70 569 c 0,64,65
 106 569 106 569 167 560 c 0,66,67
 234 550 234 550 271 550 c 0,68,69
 285 550 285 550 327 554 c 0,70,71
 392 563 392 563 397 563 c 0,72,73
 400 563 400 563 400 600 c 0,74,75
 400 627 400 627 399 643 c 0,76,77
 397 689 397 689 397 702 c 0,78,79
 397 770 397 770 420 798 c 0,16,17
EndSplineSet
EndChar

StartChar: anto
Encoding: 25 57356 13
Width: 904
GlyphClass: 2
Flags: W
AnchorPoint: "inside" 244 220 basechar 0
AnchorPoint: "shook" 645 80 basechar 0
AnchorPoint: "TehtaAbove" 463 717 basechar 0
AnchorPoint: "TehtaBelow" 359 -127 basechar 0
LayerCount: 2
Fore
SplineSet
69 796 m 0,0,1
 74 797 74 797 84 797 c 0,2,3
 110 797 110 797 118 784 c 0,4,5
 122 777 122 777 122 707 c 0,6,7
 122 681 122 681 121 627 c 128,-1,8
 120 573 120 573 120 552 c 0,9,10
 120 501 120 501 123 501 c 0,11,12
 124 501 124 501 152 514 c 0,13,14
 217 548 217 548 267 548 c 0,15,16
 312 548 312 548 365 523 c 0,17,18
 375 518 375 518 395 518 c 0,19,20
 403 518 403 518 419 520 c 0,21,22
 487 529 487 529 564 529 c 0,23,24
 626 529 626 529 642 523 c 0,25,26
 666 513 666 513 701 489.5 c 128,-1,27
 736 466 736 466 752 448 c 0,28,29
 819 374 819 374 819 284 c 0,30,31
 819 220 819 220 787 155 c 0,32,33
 764 109 764 109 719.5 74.5 c 128,-1,34
 675 40 675 40 640 40 c 0,35,36
 629 40 629 40 619 45 c 0,37,38
 594 58 594 58 594 82 c 0,39,40
 594 114 594 114 633 132 c 0,41,42
 660 146 660 146 683 170 c 0,43,44
 700 187 700 187 705 201.5 c 128,-1,45
 710 216 710 216 713 254 c 0,46,47
 715 288 715 288 715 292 c 0,48,49
 715 316 715 316 694 347 c 0,50,51
 671 382 671 382 626 404 c 0,52,53
 586 424 586 424 554 424 c 0,54,55
 530 424 530 424 510 414 c 0,56,57
 501 410 501 410 498 407.5 c 128,-1,58
 495 405 495 405 492.5 399 c 128,-1,59
 490 393 490 393 490 382 c 0,60,61
 490 364 490 364 496 301 c 0,62,63
 497 293 497 293 497 277 c 0,64,65
 497 203 497 203 457.5 136.5 c 128,-1,66
 418 70 418 70 355 38 c 0,67,68
 321 22 321 22 307 22 c 0,69,70
 290 22 290 22 275 39 c 0,71,72
 260 57 260 57 260 75 c 0,73,74
 260 103 260 103 299 120 c 0,75,76
 329 131 329 131 358.5 165 c 128,-1,77
 388 199 388 199 398 234 c 0,78,79
 405 256 405 256 405 274 c 0,80,81
 405 288 405 288 399 314 c 0,82,83
 391 352 391 352 380 377 c 0,84,85
 369 399 369 399 345 419.5 c 128,-1,86
 321 440 321 440 299 445 c 0,87,88
 287 448 287 448 274 448 c 0,89,90
 240 448 240 448 201 432 c 128,-1,91
 162 416 162 416 135 390 c 2,92,-1
 113 370 l 1,93,-1
 113 37 l 1,94,-1
 94 26 l 2,95,96
 83 18 83 18 72 18 c 0,97,98
 50 18 50 18 36 45 c 0,99,100
 29 59 29 59 26 398 c 0,101,102
 26 440 26 440 25.5 500.5 c 128,-1,103
 25 561 25 561 25 581 c 0,104,105
 25 685 25 685 27.5 717 c 128,-1,106
 30 749 30 749 38 765 c 0,107,108
 53 793 53 793 69 796 c 0,0,1
EndSplineSet
EndChar

StartChar: ampa
Encoding: 26 57357 14
Width: 914
GlyphClass: 2
Flags: W
AnchorPoint: "inside" 234 248 basechar 0
AnchorPoint: "shook" 802 10 basechar 0
AnchorPoint: "TehtaAbove" 392 720 basechar 0
AnchorPoint: "TehtaBelow" 387 -146 basechar 0
LayerCount: 2
Fore
SplineSet
544 466 m 0,0,1
 538 475 538 475 523 475 c 0,2,3
 497 475 497 475 457 449 c 0,4,5
 418 425 418 425 408.5 414 c 128,-1,6
 399 403 399 403 399 377 c 0,7,8
 399 371 399 371 401 333 c 0,9,10
 404 293 404 293 412 210 c 128,-1,11
 420 127 420 127 422 120 c 0,12,13
 424 117 424 117 491 117 c 0,14,15
 560 117 560 117 567 110 c 0,16,17
 570 107 570 107 574 107 c 0,18,19
 582 107 582 107 588.5 117.5 c 128,-1,20
 595 128 595 128 595 142 c 2,21,-1
 595 151 l 2,22,23
 595 225 595 225 577 335 c 128,-1,24
 559 445 559 445 544 466 c 0,0,1
294 447 m 0,25,26
 288 475 288 475 275 475 c 0,27,28
 263 475 263 475 203 413 c 0,29,30
 152 360 152 360 144 335.5 c 128,-1,31
 136 311 136 311 132 205 c 0,32,33
 131 184 131 184 131 154 c 0,34,35
 131 109 131 109 140 106 c 0,36,37
 148 102 148 102 219 102 c 0,38,39
 281 102 281 102 299 111.5 c 128,-1,40
 317 121 317 121 317 157 c 0,41,42
 317 195 317 195 308 305 c 128,-1,43
 299 415 299 415 294 447 c 0,25,26
66 786 m 0,44,45
 82 801 82 801 95 801 c 0,46,47
 107 801 107 801 126 785 c 0,48,49
 136 777 136 777 139 767.5 c 128,-1,50
 142 758 142 758 142 729 c 128,-1,51
 142 700 142 700 139 626 c 0,52,53
 137 587 137 587 137 525 c 0,54,55
 137 483 137 483 139 483 c 0,56,57
 144 483 144 483 178 522 c 0,58,59
 210 558 210 558 237 572 c 0,60,61
 261 584 261 584 289 584 c 0,62,63
 350 584 350 584 379 541 c 0,64,65
 388 527 388 527 398 527 c 0,66,67
 410 527 410 527 434 550 c 0,68,69
 448 563 448 563 480 573.5 c 128,-1,70
 512 584 512 584 537 584 c 0,71,72
 597 584 597 584 633 529 c 0,73,74
 650 503 650 503 655.5 483.5 c 128,-1,75
 661 464 661 464 671 382 c 0,76,77
 674 360 674 360 680.5 319.5 c 128,-1,78
 687 279 687 279 690.5 250 c 128,-1,79
 694 221 694 221 695 190 c 0,80,81
 697 104 697 104 734 94 c 0,82,83
 761 87 761 87 799 64.5 c 128,-1,84
 837 42 837 42 849 27 c 0,85,86
 865 6 865 6 865 -18 c 0,87,88
 865 -35 865 -35 856 -44 c 128,-1,89
 847 -53 847 -53 828 -53 c 0,90,91
 813 -53 813 -53 807 -47 c 0,92,93
 798 -40 798 -40 757 -25.5 c 128,-1,94
 716 -11 716 -11 683 -5 c 0,95,96
 643 3 643 3 430 3 c 0,97,98
 268 3 268 3 158 -3 c 2,99,-1
 45 -9 l 1,100,-1
 34 11 l 2,101,102
 27 24 27 24 27 59 c 0,103,104
 27 85 27 85 30 142 c 0,105,106
 35 293 35 293 38 494 c 0,107,108
 42 737 42 737 45 752 c 0,109,110
 49 769 49 769 66 786 c 0,44,45
EndSplineSet
EndChar

StartChar: anca
Encoding: 27 57358 15
Width: 962
GlyphClass: 2
Flags: W
AnchorPoint: "inside" 645 309 basechar 0
AnchorPoint: "shook" 840 108 basechar 0
AnchorPoint: "TehtaAbove" 410 709 basechar 0
AnchorPoint: "TehtaBelow" 435 -86 basechar 0
LayerCount: 2
Fore
SplineSet
814 837 m 0,0,1
 822 848 822 848 847 848 c 0,2,3
 871 848 871 848 882 837 c 0,4,5
 890 827 890 827 890 773 c 0,6,7
 890 702 890 702 877 462 c 0,8,9
 873 399 873 399 873 320 c 0,10,11
 873 256 873 256 876 207 c 0,12,13
 880 152 880 152 880 120 c 0,14,15
 880 89 880 89 872 78 c 0,16,17
 860 60 860 60 836 60 c 0,18,19
 814 60 814 60 805 76 c 0,20,21
 796 90 796 90 786 90 c 0,22,23
 773 90 773 90 747 74 c 0,24,25
 728 63 728 63 709 60 c 128,-1,26
 690 57 690 57 645 57 c 2,27,-1
 623 57 l 2,28,29
 588 57 588 57 571.5 61 c 128,-1,30
 555 65 555 65 530 80 c 0,31,32
 490 101 490 101 471 124 c 2,33,-1
 452 145 l 1,34,-1
 432 119 l 2,35,36
 414 96 414 96 373 74.5 c 128,-1,37
 332 53 332 53 290 46 c 0,38,39
 272 43 272 43 255 43 c 0,40,41
 198 43 198 43 147.5 71.5 c 128,-1,42
 97 100 97 100 69 149 c 0,43,44
 27 221 27 221 27 291 c 0,45,46
 27 365 27 365 72.5 427 c 128,-1,47
 118 489 118 489 202 528 c 0,48,49
 243 547 243 547 271 547 c 0,50,51
 292 547 292 547 320 534 c 0,52,53
 335 527 335 527 341 519 c 128,-1,54
 347 511 347 511 349 496 c 2,55,-1
 349 488 l 2,56,57
 349 470 349 470 329 455 c 0,58,59
 306 439 306 439 286 439 c 0,60,61
 269 439 269 439 231 420 c 128,-1,62
 193 401 193 401 174 383 c 0,63,64
 134 346 134 346 134 277 c 0,65,66
 134 234 134 234 148 210.5 c 128,-1,67
 162 187 162 187 201 165 c 0,68,69
 238 145 238 145 264 145 c 0,70,71
 294 145 294 145 328 170 c 0,72,73
 368 200 368 200 387 237 c 128,-1,74
 406 274 406 274 412 332 c 0,75,76
 427 481 427 481 521 539 c 0,77,78
 547 555 547 555 580 555 c 0,79,80
 608 555 608 555 618 542 c 0,81,82
 628 527 628 527 628 519 c 0,83,84
 628 500 628 500 583 472 c 0,85,86
 537 443 537 443 519.5 408 c 128,-1,87
 502 373 502 373 502 309 c 0,88,89
 502 271 502 271 505.5 255.5 c 128,-1,90
 509 240 509 240 522 220 c 0,91,92
 567 153 567 153 645 153 c 0,93,94
 675 153 675 153 690.5 157.5 c 128,-1,95
 706 162 706 162 730 179 c 0,96,97
 768 203 768 203 772 219 c 0,98,99
 774 230 774 230 780 439 c 0,100,101
 788 806 788 806 814 837 c 0,0,1
EndSplineSet
EndChar

StartChar: unque
Encoding: 28 57359 16
Width: 906
GlyphClass: 2
Flags: W
AnchorPoint: "inside" 580 303 basechar 0
AnchorPoint: "shook" 746 41 basechar 0
AnchorPoint: "TehtaAbove" 357 752 basechar 0
AnchorPoint: "TehtaBelow" 412 -136 basechar 0
LayerCount: 2
Fore
SplineSet
601 435 m 0,0,1
 529 447 529 447 505 447 c 0,2,3
 487 447 487 447 484 441 c 0,4,5
 483 440 483 440 483 435 c 0,6,7
 483 429 483 429 487 401 c 0,8,9
 493 372 493 372 495 249 c 0,10,11
 495 172 495 172 497.5 150 c 128,-1,12
 500 128 500 128 509 120 c 0,13,14
 524 107 524 107 533 107 c 0,15,16
 546 107 546 107 576 125 c 0,17,18
 619 151 619 151 656 221 c 128,-1,19
 693 291 693 291 700 360 c 0,20,21
 702 382 702 382 702 387 c 0,22,23
 702 410 702 410 685 417.5 c 128,-1,24
 668 425 668 425 601 435 c 0,0,1
309 464 m 2,25,26
 294 465 294 465 204 473 c 0,27,28
 182 475 182 475 179 475 c 0,29,30
 164 475 164 475 160 460 c 0,31,32
 159 456 159 456 159 443 c 0,33,34
 159 424 159 424 162 408 c 0,35,36
 168 379 168 379 170 257 c 0,37,38
 170 172 170 172 177 139.5 c 128,-1,39
 184 107 184 107 204 107 c 0,40,41
 221 107 221 107 251 125 c 0,42,43
 285 147 285 147 310 186 c 0,44,45
 348 245 348 245 360 283.5 c 128,-1,46
 372 322 372 322 374 387 c 2,47,-1
 375 459 l 1,48,-1
 309 464 l 2,25,26
705 897 m 0,49,50
 711 898 711 898 722 898 c 0,51,52
 756 898 756 898 774 861 c 128,-1,53
 792 824 792 824 812 713 c 0,54,55
 818 678 818 678 818 613 c 0,56,57
 818 514 818 514 804 343 c 0,58,59
 796 262 796 262 792 135 c 0,60,61
 788 18 788 18 779 9 c 0,62,63
 771 -2 771 -2 752 -2 c 0,64,65
 732 -2 732 -2 714 10.5 c 128,-1,66
 696 23 696 23 696 40 c 0,67,68
 696 56 696 56 691 73.5 c 128,-1,69
 686 91 686 91 681 91 c 0,70,71
 677 91 677 91 646 62 c 0,72,73
 613 31 613 31 599 23 c 0,74,75
 571 9 571 9 515 9 c 0,76,77
 496 9 496 9 484 12 c 0,78,79
 464 18 464 18 440.5 45.5 c 128,-1,80
 417 73 417 73 407 103 c 2,81,-1
 397 132 l 1,82,-1
 346 86 l 2,83,84
 296 40 296 40 278 27 c 0,85,86
 249 8 249 8 201 8 c 0,87,88
 146 8 146 8 123 32 c 0,89,90
 94 64 94 64 84.5 101.5 c 128,-1,91
 75 139 75 139 69 252 c 0,92,93
 62 399 62 399 53 425 c 0,94,95
 48 442 48 442 48 459 c 0,96,97
 48 468 48 468 49 471 c 0,98,99
 53 489 53 489 41 498 c 0,100,101
 28 507 28 507 28 533 c 0,102,103
 28 562 28 562 43 574 c 0,104,105
 55 583 55 583 84 583 c 0,106,107
 104 583 104 583 116 582 c 0,108,109
 413 564 413 564 449 556 c 0,110,111
 497 546 497 546 679 527 c 2,112,-1
 711 523 l 1,113,-1
 711 602 l 2,114,115
 711 683 711 683 704 709 c 0,116,117
 676 819 676 819 676 854 c 0,118,119
 676 892 676 892 705 897 c 0,49,50
EndSplineSet
EndChar

StartChar: nuumen
Encoding: 29 57360 17
Width: 923
GlyphClass: 2
Flags: W
AnchorPoint: "inside" 242 277 basechar 0
AnchorPoint: "shook" 580 58 basechar 0
AnchorPoint: "TehtaAbove" 408 686 basechar 0
AnchorPoint: "TehtaBelow" 369 -119 basechar 0
LayerCount: 2
Fore
SplineSet
38 547 m 0,0,1
 52 562 52 562 66 562 c 128,-1,2
 80 562 80 562 105 544 c 0,3,4
 125 529 125 529 136 529 c 0,5,6
 138 529 138 529 139 530 c 0,7,8
 152 540 152 540 189 549 c 128,-1,9
 226 558 226 558 256 558 c 2,10,-1
 260 558 l 2,11,12
 321 558 321 558 369 513 c 0,13,14
 388 494 388 494 398 494 c 0,15,16
 407 494 407 494 435 508 c 0,17,18
 473 527 473 527 523.5 541 c 128,-1,19
 574 555 574 555 604 555 c 0,20,21
 638 555 638 555 680.5 540.5 c 128,-1,22
 723 526 723 526 750 506 c 0,23,24
 788 476 788 476 809 422.5 c 128,-1,25
 830 369 830 369 830 306 c 0,26,27
 830 254 830 254 815 206 c 0,28,29
 800 160 800 160 784 133.5 c 128,-1,30
 768 107 768 107 739 80 c 0,31,32
 691 36 691 36 618 26 c 0,33,34
 596 24 596 24 588 24 c 0,35,36
 538 24 538 24 538 63 c 0,37,38
 538 80 538 80 544 87.5 c 128,-1,39
 550 95 550 95 573 106 c 0,40,41
 607 122 607 122 621 122 c 0,42,43
 638 122 638 122 666 148.5 c 128,-1,44
 694 175 694 175 707 203 c 0,45,46
 724 239 724 239 724 309 c 0,47,48
 724 354 724 354 715 372 c 0,49,50
 704 393 704 393 684 412 c 128,-1,51
 664 431 664 431 653 431 c 0,52,53
 639 431 639 431 635 439 c 0,54,55
 632 447 632 447 584 447 c 0,56,57
 537 447 537 447 534 439 c 0,58,59
 530 431 530 431 515 431 c 0,60,61
 501 431 501 431 480 408 c 0,62,63
 462 390 462 390 462 381 c 0,64,65
 462 378 462 378 466 368 c 0,66,67
 492 313 492 313 492 244 c 0,68,69
 492 185 492 185 473 143 c 0,70,71
 450 90 450 90 394 52 c 128,-1,72
 338 14 338 14 284 14 c 0,73,74
 252 14 252 14 240.5 22 c 128,-1,75
 229 30 229 30 229 53 c 0,76,77
 229 90 229 90 317 122 c 0,78,79
 360 138 360 138 379.5 165.5 c 128,-1,80
 399 193 399 193 399 238 c 0,81,82
 399 287 399 287 376 340.5 c 128,-1,83
 353 394 353 394 315 434 c 0,84,85
 297 453 297 453 286 457.5 c 128,-1,86
 275 462 275 462 250 462 c 0,87,88
 224 462 224 462 201.5 453 c 128,-1,89
 179 444 179 444 139 419 c 0,90,91
 127 411 127 411 124 402 c 128,-1,92
 121 393 121 393 121 366 c 2,93,-1
 121 347 l 2,94,95
 121 298 121 298 127 206 c 0,96,97
 130 170 130 170 130 140 c 0,98,99
 130 65 130 65 111 31 c 0,100,101
 102 14 102 14 76 14 c 2,102,-1
 73 14 l 2,103,104
 39 14 39 14 33 46.5 c 128,-1,105
 27 79 27 79 26 266 c 2,106,-1
 26 283 l 2,107,108
 25 347 25 347 25 431 c 0,109,110
 25 499 25 499 27.5 518.5 c 128,-1,111
 30 538 30 538 38 547 c 0,0,1
EndSplineSet
EndChar

StartChar: malta
Encoding: 30 57361 18
Width: 899
GlyphClass: 2
Flags: W
AnchorPoint: "inside" 244 220 basechar 0
AnchorPoint: "shook" 768 44 basechar 0
AnchorPoint: "TehtaAbove" 370 688 basechar 0
AnchorPoint: "TehtaBelow" 416 -143 basechar 0
LayerCount: 2
Fore
SplineSet
566 453 m 0,0,1
 560 462 560 462 546 462 c 0,2,3
 518 462 518 462 471 432 c 2,4,-1
 425 403 l 1,5,-1
 426 334 l 2,6,7
 426 276 426 276 433.5 192.5 c 128,-1,8
 441 109 441 109 448 100 c 0,9,10
 453 91 453 91 538 91 c 0,11,12
 599 91 599 91 610.5 93.5 c 128,-1,13
 622 96 622 96 622 109 c 0,14,15
 622 127 622 127 598 324 c 0,16,17
 586 422 586 422 566 453 c 0,0,1
316 441 m 0,18,19
 311 462 311 462 298 462 c 0,20,21
 282 462 282 462 224 398.5 c 128,-1,22
 166 335 166 335 162 313 c 0,23,24
 159 283 159 283 159 238 c 0,25,26
 159 208 159 208 160 192 c 2,27,-1
 162 95 l 1,28,-1
 340 95 l 1,29,-1
 339 138 l 2,30,31
 338 184 338 184 329 302.5 c 128,-1,32
 320 421 320 421 316 441 c 0,18,19
237 540 m 0,33,34
 261 559 261 559 274.5 565 c 128,-1,35
 288 571 288 571 311 571 c 0,36,37
 342 571 342 571 369 557.5 c 128,-1,38
 396 544 396 544 402 525 c 0,39,40
 406 510 406 510 414 510 c 128,-1,41
 422 510 422 510 456 535 c 0,42,43
 502 570 502 570 556 570 c 0,44,45
 605 570 605 570 634 541 c 0,46,47
 657 518 657 518 668.5 491.5 c 128,-1,48
 680 465 680 465 686 420 c 0,49,50
 687 409 687 409 692 367.5 c 128,-1,51
 697 326 697 326 700 308 c 0,52,53
 711 222 711 222 714 182 c 0,54,55
 722 114 722 114 726 108 c 0,56,57
 730 101 730 101 765 97 c 0,58,59
 799 93 799 93 811 82.5 c 128,-1,60
 823 72 823 72 823 45 c 0,61,62
 823 17 823 17 806 8 c 0,63,64
 764 -12 764 -12 490 -12 c 0,65,66
 410 -12 410 -12 324 -9 c 0,67,68
 305 -8 305 -8 265 -8 c 0,69,70
 189 -8 189 -8 143 -12 c 0,71,72
 115 -15 115 -15 101 -15 c 0,73,74
 81 -15 81 -15 58 0 c 0,75,76
 28 20 28 20 28 44 c 0,77,78
 28 56 28 56 37 70 c 0,79,80
 46 85 46 85 53.5 174.5 c 128,-1,81
 61 264 61 264 61 370 c 0,82,83
 62 445 62 445 68 466.5 c 128,-1,84
 74 488 74 488 98 502 c 0,85,86
 106 506 106 506 115 506 c 0,87,88
 139 506 139 506 153 480 c 2,89,-1
 164 461 l 1,90,-1
 181 485 l 2,91,92
 194 505 194 505 237 540 c 0,33,34
EndSplineSet
EndChar

StartChar: noldo
Encoding: 31 57362 19
Width: 905
GlyphClass: 2
Flags: W
AnchorPoint: "inside" 604 288 basechar 0
AnchorPoint: "shook" 777 485 basechar 0
AnchorPoint: "TehtaAbove" 466 698 basechar 0
AnchorPoint: "TehtaBelow" 449 -107 basechar 0
LayerCount: 2
Fore
SplineSet
188 539 m 0,0,1
 211 544 211 544 224 544 c 0,2,3
 269 544 269 544 269 504 c 0,4,5
 269 479 269 479 261 469.5 c 128,-1,6
 253 460 253 460 225 452 c 0,7,8
 200 445 200 445 181.5 424.5 c 128,-1,9
 163 404 163 404 140 359 c 0,10,11
 122 324 122 324 122 263 c 0,12,13
 122 206 122 206 133.5 181.5 c 128,-1,14
 145 157 145 157 182 135 c 0,15,16
 206 121 206 121 223.5 117 c 128,-1,17
 241 113 241 113 281 113 c 0,18,19
 340 113 340 113 366 124 c 2,20,-1
 390 133 l 1,21,-1
 390 248 l 2,22,23
 390 332 390 332 393 353 c 128,-1,24
 396 374 396 374 412 404 c 0,25,26
 434 445 434 445 471 481.5 c 128,-1,27
 508 518 508 518 539 528 c 0,28,29
 559 535 559 535 568 535 c 0,30,31
 578 535 578 535 588 525 c 0,32,33
 603 512 603 512 603 495 c 0,34,35
 603 472 603 472 569 439 c 0,36,37
 532 402 532 402 520 384 c 0,38,39
 487 334 487 334 487 271 c 0,40,41
 487 212 487 212 516 159 c 0,42,43
 538 118 538 118 601 118 c 0,44,45
 637 118 637 118 669 134 c 0,46,47
 697 147 697 147 707 159.5 c 128,-1,48
 717 172 717 172 717 195 c 0,49,50
 717 210 717 210 712 243 c 0,51,52
 706 277 706 277 706 324 c 0,53,54
 706 399 706 399 719 459 c 0,55,56
 726 489 726 489 741 507.5 c 128,-1,57
 756 526 756 526 775 526 c 0,58,59
 782 526 782 526 785 525 c 0,60,61
 800 521 800 521 811.5 506.5 c 128,-1,62
 823 492 823 492 823 477 c 0,63,64
 823 470 823 470 820 464 c 0,65,66
 812 451 812 451 810 320 c 2,67,-1
 810 278 l 2,68,69
 810 219 810 219 813 195.5 c 128,-1,70
 816 172 816 172 828 141 c 0,71,72
 846 90 846 90 853 83 c 0,73,74
 859 75 859 75 859 66 c 0,75,76
 859 48 859 48 840 33 c 0,77,78
 817 16 817 16 813 16 c 0,79,80
 807 16 807 16 775 44 c 0,81,82
 745 71 745 71 730 71 c 0,83,84
 722 71 722 71 716 65 c 0,85,86
 703 53 703 53 659 38.5 c 128,-1,87
 615 24 615 24 593 24 c 0,88,89
 541 24 541 24 485 53 c 0,90,91
 473 59 473 59 463 59 c 0,92,93
 443 59 443 59 379 29 c 0,94,95
 361 20 361 20 274 20 c 0,96,97
 219 20 219 20 197 23.5 c 128,-1,98
 175 27 175 27 150 39 c 0,99,100
 115 56 115 56 85.5 85.5 c 128,-1,101
 56 115 56 115 43 147 c 0,102,103
 28 180 28 180 28 264 c 0,104,105
 28 329 28 329 38 358 c 0,106,107
 60 423 60 423 104 475.5 c 128,-1,108
 148 528 148 528 188 539 c 0,0,1
EndSplineSet
EndChar

StartChar: nwalme
Encoding: 32 57363 20
Width: 971
GlyphClass: 2
Flags: W
AnchorPoint: "inside" 620 302 basechar 0
AnchorPoint: "shook" 774 541 basechar 0
AnchorPoint: "TehtaAbove" 439 750 basechar 0
AnchorPoint: "TehtaBelow" 468 -169 basechar 0
LayerCount: 2
Fore
SplineSet
721 352 m 2,0,-1
 719 487 l 1,1,-1
 653 487 l 1,2,-1
 619 487 l 2,3,4
 549 487 549 487 537 472 c 0,5,6
 523 453 523 453 523 305 c 0,7,8
 523 250 523 250 526 195 c 2,9,-1
 532 82 l 1,10,-1
 561 84 l 2,11,12
 590 85 590 85 621 102 c 128,-1,13
 652 119 652 119 675 145 c 0,14,15
 706 180 706 180 714 203 c 128,-1,16
 722 226 722 226 722 292 c 0,17,18
 722 300 722 300 721.5 320 c 128,-1,19
 721 340 721 340 721 352 c 2,0,-1
368 478 m 0,20,21
 351 479 351 479 316 482.5 c 128,-1,22
 281 486 281 486 274 487 c 0,23,24
 266 488 266 488 254 488 c 0,25,26
 226 488 226 488 219.5 460.5 c 128,-1,27
 213 433 213 433 211 323 c 0,28,29
 210 303 210 303 210 267 c 0,30,31
 210 121 210 121 244 97 c 0,32,33
 258 87 258 87 299 87 c 128,-1,34
 340 87 340 87 377 97 c 2,35,-1
 416 107 l 1,36,-1
 421 281 l 2,37,38
 425 419 425 419 425 443 c 0,39,40
 425 463 425 463 424 464 c 0,41,42
 421 473 421 473 368 478 c 0,20,21
43 618 m 0,43,44
 55 630 55 630 71 630 c 128,-1,45
 87 630 87 630 126 615 c 0,46,47
 167 599 167 599 190 599 c 0,48,49
 215 599 215 599 223 591 c 0,50,51
 228 586 228 586 343 586 c 0,52,53
 534 586 534 586 733 596 c 0,54,55
 783 598 783 598 790 598 c 0,56,57
 826 598 826 598 836 586 c 0,58,59
 847 570 847 570 847 551 c 0,60,61
 847 524 847 524 832 514 c 0,62,63
 821 506 821 506 818.5 470 c 128,-1,64
 816 434 816 434 816 261 c 128,-1,65
 816 88 816 88 813.5 51 c 128,-1,66
 811 14 811 14 800 2 c 0,67,68
 783 -15 783 -15 771 -15 c 0,69,70
 754 -15 754 -15 738.5 -1 c 128,-1,71
 723 13 723 13 723 29 c 0,72,73
 723 48 723 48 706 48 c 0,74,75
 694 48 694 48 683 35 c 128,-1,76
 672 22 672 22 588 -14 c 0,77,78
 566 -23 566 -23 532 -23 c 0,79,80
 485 -23 485 -23 464 -7 c 0,81,82
 450 5 450 5 438 5 c 0,83,84
 432 5 432 5 365 -8 c 0,85,86
 307 -20 307 -20 286 -20 c 0,87,88
 268 -20 268 -20 246 -14 c 0,89,90
 146 9 146 9 126 93 c 0,91,92
 104 188 104 188 104 341 c 0,93,94
 104 380 104 380 107 400 c 0,95,96
 116 445 116 445 116 464 c 0,97,98
 116 481 116 481 109.5 489.5 c 128,-1,99
 103 498 103 498 86 509 c 0,100,101
 29 545 29 545 29 586 c 0,102,103
 29 604 29 604 43 618 c 0,43,44
EndSplineSet
EndChar

StartChar: oore
Encoding: 33 57364 21
Width: 557
GlyphClass: 2
Flags: W
AnchorPoint: "inside" 246 282 basechar 0
AnchorPoint: "shook" 306 44 basechar 0
AnchorPoint: "TehtaAbove" 265 708 basechar 0
AnchorPoint: "TehtaBelow" 202 -105 basechar 0
LayerCount: 2
Fore
SplineSet
49 542 m 0,0,1
 60 555 60 555 73 555 c 128,-1,2
 86 555 86 555 108 538 c 0,3,4
 124 526 124 526 133 526 c 128,-1,5
 142 526 142 526 172 536 c 0,6,7
 215 551 215 551 267 551 c 0,8,9
 301 551 301 551 315.5 546.5 c 128,-1,10
 330 542 330 542 356 523 c 0,11,12
 384 503 384 503 425.5 448.5 c 128,-1,13
 467 394 467 394 468 377 c 0,14,15
 468 364 468 364 473 359 c 0,16,17
 484 348 484 348 491.5 312.5 c 128,-1,18
 499 277 499 277 499 237 c 0,19,20
 499 167 499 167 474.5 121.5 c 128,-1,21
 450 76 450 76 391 36 c 0,22,23
 358 12 358 12 308 8 c 0,24,25
 299 7 299 7 285 7 c 0,26,27
 257 7 257 7 246.5 15.5 c 128,-1,28
 236 24 236 24 236 45 c 0,29,30
 236 84 236 84 312 111 c 0,31,32
 361 127 361 127 383.5 156.5 c 128,-1,33
 406 186 406 186 406 233 c 0,34,35
 406 282 406 282 375.5 345 c 128,-1,36
 345 408 345 408 308 438 c 0,37,38
 289 454 289 454 257 454 c 0,39,40
 201 454 201 454 144 409 c 2,41,-1
 124 394 l 1,42,-1
 133 251 l 2,43,44
 137 191 137 191 137 136 c 0,45,46
 137 38 137 38 118 16 c 0,47,48
 108 6 108 6 81 6 c 0,49,50
 52 6 52 6 45 16 c 0,51,52
 41 21 41 21 33.5 170.5 c 128,-1,53
 26 320 26 320 26 395 c 2,54,-1
 26 412 l 2,55,56
 27 454 27 454 34 493.5 c 128,-1,57
 41 533 41 533 49 542 c 0,0,1
EndSplineSet
EndChar

StartChar: vala
Encoding: 34 57365 22
Width: 596
GlyphClass: 2
Flags: W
AnchorPoint: "inside" 280 295 basechar 0
AnchorPoint: "shook" 494 54 basechar 0
AnchorPoint: "TehtaAbove" 278 701 basechar 0
AnchorPoint: "TehtaBelow" 249 -76 basechar 0
LayerCount: 2
Fore
SplineSet
345 459 m 0,0,1
 330 474 330 474 319 474 c 0,2,3
 309 474 309 474 294 465 c 0,4,5
 238 432 238 432 200.5 362.5 c 128,-1,6
 163 293 163 293 156 207 c 0,7,8
 154 175 154 175 154 168 c 0,9,10
 154 129 154 129 173 129 c 0,11,12
 178 129 178 129 181 130 c 128,-1,13
 184 131 184 131 283 135 c 2,14,-1
 365 137 l 1,15,-1
 364 159 l 2,16,17
 364 168 364 168 362 312 c 0,18,19
 360 403 360 403 357.5 426 c 128,-1,20
 355 449 355 449 345 459 c 0,0,1
282 570 m 0,21,22
 306 573 306 573 326 573 c 0,23,24
 341 573 341 573 349 572 c 0,25,26
 379 571 379 571 390.5 566 c 128,-1,27
 402 561 402 561 414 547 c 0,28,29
 433 522 433 522 442 502 c 0,30,31
 453 477 453 477 461.5 407 c 128,-1,32
 470 337 470 337 470 262 c 0,33,34
 470 118 470 118 508 99 c 0,35,36
 530 88 530 88 537 75 c 0,37,38
 543 66 543 66 543 59 c 0,39,40
 543 53 543 53 532 33 c 0,41,42
 524 19 524 19 516.5 14 c 128,-1,43
 509 9 509 9 493 9 c 0,44,45
 475 9 475 9 401 20 c 0,46,47
 353 28 353 28 316 28 c 0,48,49
 277 28 277 28 213 20 c 0,50,51
 109 9 109 9 82 9 c 0,52,53
 51 9 51 9 39 21 c 128,-1,54
 27 33 27 33 27 65 c 0,55,56
 27 94 27 94 36 115 c 0,57,58
 46 138 46 138 51 238 c 0,59,60
 63 445 63 445 68 483 c 128,-1,61
 73 521 73 521 90 537 c 0,62,63
 106 552 106 552 126 552 c 0,64,65
 140 552 140 552 149.5 544 c 128,-1,66
 159 536 159 536 159 522 c 0,67,68
 159 509 159 509 166 499 c 0,69,70
 168 495 168 495 172 495 c 0,71,72
 180 495 180 495 216 528 c 0,73,74
 257 566 257 566 282 570 c 0,21,22
EndSplineSet
EndChar

StartChar: anna
Encoding: 35 57366 23
Width: 562
GlyphClass: 2
Flags: W
AnchorPoint: "shook" 452 79 basechar 0
AnchorPoint: "inside" 248 293 basechar 0
AnchorPoint: "TehtaAbove" 274 680 basechar 0
AnchorPoint: "TehtaBelow" 244 -73 basechar 0
LayerCount: 2
Fore
SplineSet
169 542 m 0,0,1
 194 551 194 551 206 551 c 0,2,3
 219 551 219 551 231 539 c 0,4,5
 245 527 245 527 245 512 c 0,6,7
 245 487 245 487 200 441 c 0,8,9
 129 369 129 369 129 286 c 0,10,11
 129 283 129 283 129.5 277 c 128,-1,12
 130 271 130 271 130 267 c 0,13,14
 135 204 135 204 164 169 c 128,-1,15
 193 134 193 134 239 134 c 0,16,17
 267 134 267 134 301 148 c 0,18,19
 335 163 335 163 347 174.5 c 128,-1,20
 359 186 359 186 359 209 c 0,21,22
 359 223 359 223 354 251 c 0,23,24
 348 291 348 291 348 339 c 0,25,26
 348 468 348 468 376 519 c 0,27,28
 389 543 389 543 415 543 c 0,29,30
 435 543 435 543 451 528.5 c 128,-1,31
 467 514 467 514 467 494 c 0,32,33
 467 484 467 484 463 475 c 0,34,35
 455 455 455 455 453 326 c 0,36,37
 453 232 453 232 456 207.5 c 128,-1,38
 459 183 459 183 477 141 c 0,39,40
 500 88 500 88 500 76 c 0,41,42
 500 66 500 66 488 54 c 0,43,44
 476 40 476 40 455 40 c 0,45,46
 435 40 435 40 419 54 c 0,47,48
 387 82 387 82 376 82 c 0,49,50
 366 82 366 82 345 72 c 0,51,52
 296 50 296 50 278 45 c 128,-1,53
 260 40 260 40 234 40 c 0,54,55
 194 40 194 40 149.5 56.5 c 128,-1,56
 105 73 105 73 85 96 c 0,57,58
 26 160 26 160 26 285 c 0,59,60
 26 360 26 360 53 419 c 0,61,62
 69 454 69 454 107.5 494.5 c 128,-1,63
 146 535 146 535 169 542 c 0,0,1
EndSplineSet
EndChar

StartChar: wilya
Encoding: 36 57367 24
Width: 627
GlyphClass: 2
Flags: W
AnchorPoint: "inside" 288 306 basechar 0
AnchorPoint: "shook" 471 541 basechar 0
AnchorPoint: "TehtaAbove" 271 729 basechar 0
AnchorPoint: "TehtaBelow" 247 -107 basechar 0
LayerCount: 2
Fore
SplineSet
390 465 m 0,0,1
 387 471 387 471 284 471 c 0,2,3
 190 471 190 471 185 465 c 0,4,5
 179 461 179 461 179 339 c 0,6,7
 179 243 179 243 187 199 c 128,-1,8
 195 155 195 155 214 141 c 0,9,10
 229 131 229 131 264 131 c 0,11,12
 295 131 295 131 342 141 c 2,13,-1
 384 150 l 1,14,-1
 388 305 l 2,15,16
 388 332 388 332 389.5 381 c 128,-1,17
 391 430 391 430 391 445 c 0,18,19
 391 464 391 464 390 465 c 0,0,1
47 581 m 0,20,21
 57 592 57 592 73 592 c 0,22,23
 84 592 84 592 90 591 c 0,24,25
 223 574 223 574 262 574 c 0,26,27
 299 574 299 574 460 591 c 0,28,29
 468 592 468 592 480 592 c 0,30,31
 500 592 500 592 512 581 c 0,32,33
 527 568 527 568 527 541 c 128,-1,34
 527 514 527 514 510 486 c 0,35,36
 497 466 497 466 494 432 c 128,-1,37
 491 398 491 398 490 244 c 2,38,-1
 487 29 l 1,39,-1
 469 17 l 2,40,41
 458 9 458 9 444 9 c 0,42,43
 424 9 424 9 401 33 c 0,44,45
 389 48 389 48 379 48 c 0,46,47
 373 48 373 48 349 40 c 0,48,49
 298 23 298 23 257 23 c 0,50,51
 190 23 190 23 138 68 c 0,52,53
 106 97 106 97 97 131 c 0,54,55
 75 214 75 214 75 390 c 2,56,-1
 75 483 l 1,57,-1
 50 511 l 2,58,59
 30 534 30 534 30 548 c 0,60,61
 30 561 30 561 47 581 c 0,20,21
EndSplineSet
EndChar

StartChar: tinco_ext
Encoding: 37 57368 25
Width: 585
GlyphClass: 2
Flags: W
AnchorPoint: "inside" 249 253 basechar 0
AnchorPoint: "shook" 317 49 basechar 0
AnchorPoint: "TehtaAbove" 335 706 basechar 0
AnchorPoint: "TehtaBelow" 202 -109 basechar 0
LayerCount: 2
Fore
SplineSet
74 788 m 0,0,1
 79 789 79 789 87.5 790.5 c 128,-1,2
 96 792 96 792 98 793 c 0,3,4
 104 793 104 793 117 780 c 0,5,6
 129 768 129 768 129 716 c 0,7,8
 129 673 129 673 128 640 c 0,9,10
 127 614 127 614 127 567 c 0,11,12
 127 512 127 512 129 504 c 0,13,14
 130 498 130 498 137 498 c 0,15,16
 143 498 143 498 174 512 c 0,17,18
 225 537 225 537 276 537 c 0,19,20
 371 537 371 537 438.5 460.5 c 128,-1,21
 506 384 506 384 506 275 c 0,22,23
 506 230 506 230 490 177 c 0,24,25
 470 111 470 111 415 60.5 c 128,-1,26
 360 10 360 10 316 10 c 0,27,28
 288 10 288 10 275 33 c 0,29,30
 267 46 267 46 267 61 c 0,31,32
 267 91 267 91 308 109 c 0,33,34
 375 140 375 140 402 219 c 0,35,36
 412 248 412 248 412 265 c 0,37,38
 412 276 412 276 407 299 c 0,39,40
 387 379 387 379 352 408 c 0,41,42
 319 435 319 435 274 435 c 0,43,44
 228 435 228 435 181 407 c 0,45,46
 141 384 141 384 133 373 c 0,47,48
 119 351 119 351 119 276 c 2,49,-1
 119 -33 l 1,50,-1
 119 -87 l 2,51,52
 119 -219 119 -219 113.5 -245 c 128,-1,53
 108 -271 108 -271 80 -271 c 2,54,-1
 77 -271 l 2,55,56
 48 -272 48 -272 42 -246 c 0,57,58
 38 -224 38 -224 32 -72 c 0,59,60
 31 -45 31 -45 31 -41 c 0,61,62
 26 394 26 394 26 511 c 0,63,64
 26 717 26 717 44 756 c 0,65,66
 57 784 57 784 74 788 c 0,0,1
EndSplineSet
EndChar

StartChar: parma_ext
Encoding: 38 57369 26
Width: 529
GlyphClass: 2
Flags: W
AnchorPoint: "inside" 244 220 basechar 0
AnchorPoint: "shook" 419 99 basechar 0
AnchorPoint: "TehtaAbove" 281 586 basechar 0
AnchorPoint: "TehtaBelow" 366 -73 basechar 0
LayerCount: 2
Fore
SplineSet
46 789 m 4,0,1
 55 800 55 800 81 800 c 132,-1,2
 107 800 107 800 118 789 c 132,-1,3
 129 778 129 778 129 555 c 4,4,5
 128 358 128 358 121 330 c 4,6,7
 115 307 115 307 95 304 c 4,8,9
 90 303 90 303 80 303 c 6,10,-1
 71 303 l 6,11,12
 39 303 39 303 31.5 328.5 c 132,-1,13
 24 354 24 354 22 458 c 6,14,-1
 22 503 l 6,15,16
 22 602 22 602 29 690 c 132,-1,17
 36 778 36 778 46 789 c 4,0,1
298 420 m 0,18,19
 282 431 282 431 245 431 c 0,20,21
 211 431 211 431 166 421 c 2,22,-1
 128 411 l 1,23,-1
 128 141 l 1,24,-1
 170 143 l 2,25,26
 227 145 227 145 271 151 c 2,27,-1
 329 157 l 1,28,-1
 331 238 l 1,29,-1
 331 265 l 2,30,31
 331 398 331 398 298 420 c 0,18,19
46 545 m 2,32,33
 64 553 64 553 69 553 c 0,34,35
 79 553 79 553 104 531 c 0,36,37
 125 513 125 513 136 513 c 0,38,39
 139 513 139 513 145 515 c 0,40,41
 159 522 159 522 207 531 c 0,42,43
 237 536 237 536 259 536 c 0,44,45
 327 536 327 536 373 494 c 0,46,47
 408 463 408 463 417.5 422.5 c 128,-1,48
 427 382 427 382 438 215 c 0,49,50
 443 143 443 143 458 127 c 0,51,52
 471 113 471 113 471 86 c 0,53,54
 471 61 471 61 460 53 c 0,55,56
 448 44 448 44 355 44 c 2,57,-1
 338 44 l 2,58,59
 272 44 272 44 214.5 34.5 c 128,-1,60
 157 25 157 25 141 12 c 0,61,62
 131 6 131 6 131 -115 c 0,63,64
 131 -237 131 -237 120 -261 c 0,65,66
 114 -277 114 -277 109 -282 c 128,-1,67
 104 -287 104 -287 93 -287 c 0,68,69
 91 -287 91 -287 87 -286.5 c 128,-1,70
 83 -286 83 -286 80 -286 c 0,71,72
 54 -284 54 -284 46 -273 c 0,73,74
 31 -251 31 -251 29 -100 c 0,75,76
 28 -45 28 -45 28 148 c 2,77,-1
 27 535 l 1,78,-1
 46 545 l 2,32,33
EndSplineSet
EndChar

StartChar: calma_ext
Encoding: 39 57370 27
Width: 540
GlyphClass: 2
Flags: W
AnchorPoint: "inside" 269 319 basechar 0
AnchorPoint: "shook" 410 509 basechar 0
AnchorPoint: "TehtaAbove" 269 722 basechar 0
AnchorPoint: "TehtaBelow" 150 -82 basechar 0
LayerCount: 2
Fore
SplineSet
377 784 m 0,0,1
 392 800 392 800 407 800 c 0,2,3
 421 800 421 800 440 786 c 0,4,5
 450 778 450 778 453 766.5 c 128,-1,6
 456 755 456 755 456 715 c 0,7,8
 456 649 456 649 455 637 c 0,9,10
 436 400 436 400 436 264 c 0,11,12
 436 124 436 124 424 26 c 0,13,14
 416 -41 416 -41 411 -116 c 0,15,16
 408 -170 408 -170 404 -185 c 0,17,18
 402 -196 402 -196 388 -207 c 0,19,20
 376 -217 376 -217 356 -217 c 0,21,22
 355 -217 355 -217 352.5 -216.5 c 128,-1,23
 350 -216 350 -216 349 -216 c 0,24,25
 327 -214 327 -214 319 -197.5 c 128,-1,26
 311 -181 311 -181 311 -132 c 0,27,28
 311 -111 311 -111 313 -69 c 2,29,-1
 318 37 l 1,30,-1
 256 37 l 2,31,32
 205 37 205 37 176 46 c 128,-1,33
 147 55 147 55 110 82 c 0,34,35
 27 143 27 143 27 258 c 0,36,37
 27 285 27 285 31 308 c 0,38,39
 42 384 42 384 77.5 441.5 c 128,-1,40
 113 499 113 499 163 523 c 0,41,42
 195 539 195 539 218 539 c 0,43,44
 254 539 254 539 254 499 c 0,45,46
 254 478 254 478 209 433 c 0,47,48
 182 406 182 406 170 387.5 c 128,-1,49
 158 369 158 369 147 336 c 0,50,51
 130 285 130 285 130 257 c 0,52,53
 130 231 130 231 146 196 c 0,54,55
 163 159 163 159 186 144.5 c 128,-1,56
 209 130 209 130 251 130 c 0,57,58
 288 130 288 130 306 141 c 0,59,60
 336 158 336 158 335 180 c 0,61,62
 336 316 336 316 352 534 c 0,63,64
 362 674 362 674 362 697 c 0,65,66
 362 742 362 742 364 758 c 0,67,68
 366 772 366 772 377 784 c 0,0,1
EndSplineSet
EndChar

StartChar: quesse_ext
Encoding: 40 57371 28
Width: 639
GlyphClass: 2
Flags: W
AnchorPoint: "inside" 329 312 basechar 0
AnchorPoint: "shook" 483 518 basechar 0
AnchorPoint: "TehtaBelow" 159 -112 basechar 0
AnchorPoint: "TehtaAbove" 307 698 basechar 0
LayerCount: 2
Fore
SplineSet
446 789 m 4,0,1
 455 800 455 800 481 800 c 132,-1,2
 507 800 507 800 518 789 c 132,-1,3
 529 778 529 778 529 555 c 4,4,5
 528 358 528 358 521 330 c 4,6,7
 515 307 515 307 495 304 c 4,8,9
 490 303 490 303 480 303 c 6,10,-1
 471 303 l 6,11,12
 439 303 439 303 431.5 328.5 c 132,-1,13
 424 354 424 354 422 458 c 6,14,-1
 422 503 l 6,15,16
 422 602 422 602 429 690 c 132,-1,17
 436 778 436 778 446 789 c 4,0,1
413 458 m 2,18,19
 378 472 378 472 275 472 c 0,20,21
 241 472 241 472 236 468 c 0,22,23
 229 464 229 464 229 442 c 0,24,25
 229 436 229 436 231 404 c 0,26,27
 231 396 231 396 234 329 c 128,-1,28
 237 262 237 262 240.5 212 c 128,-1,29
 244 162 244 162 248 142 c 0,30,31
 254 116 254 116 283 116 c 0,32,33
 315 116 315 116 355.5 144 c 128,-1,34
 396 172 396 172 413 211 c 0,35,36
 425 240 425 240 428 344 c 2,37,-1
 432 452 l 1,38,-1
 413 458 l 2,18,19
197 576 m 0,39,40
 243 580 243 580 260 580 c 0,41,42
 271 580 271 580 274 579 c 0,43,44
 286 577 286 577 401 571 c 0,45,46
 476 567 476 567 494 564 c 128,-1,47
 512 561 512 561 519 549 c 0,48,49
 530 533 530 533 535 164 c 2,50,-1
 540 -205 l 1,51,-1
 524 -222 l 2,52,53
 507 -239 507 -239 488 -239 c 0,54,55
 471 -239 471 -239 452 -225 c 0,56,57
 439 -214 439 -214 436 -194.5 c 128,-1,58
 433 -175 433 -175 430 -76 c 0,59,60
 427 57 427 57 418 61 c 0,61,62
 411 64 411 64 395 50 c 0,63,64
 372 29 372 29 346 21 c 128,-1,65
 320 13 320 13 274 13 c 0,66,67
 233 13 233 13 219.5 16.5 c 128,-1,68
 206 20 206 20 192 33 c 0,69,70
 174 50 174 50 162 75 c 0,71,72
 151 99 151 99 143 162.5 c 128,-1,73
 135 226 135 226 134 287 c 0,74,75
 134 344 134 344 123 401 c 0,76,77
 116 436 116 436 111 442.5 c 128,-1,78
 106 449 106 449 84 452 c 0,79,80
 54 456 54 456 40 480 c 0,81,82
 30 498 30 498 30 503 c 0,83,84
 30 509 30 509 38 520 c 0,85,86
 66 562 66 562 197 576 c 0,39,40
EndSplineSet
EndChar

StartChar: ando_ext
Encoding: 41 57372 29
Width: 926
GlyphClass: 2
Flags: W
AnchorPoint: "inside" 316 273 basechar 0
AnchorPoint: "shook" 693 88 basechar 0
AnchorPoint: "TehtaBelow" 464 -104 basechar 0
AnchorPoint: "TehtaAbove" 504 696 basechar 0
LayerCount: 2
Fore
SplineSet
94 774 m 0,0,1
 103 793 103 793 110 798 c 128,-1,2
 117 803 117 803 133 803 c 0,3,4
 160 803 160 803 168.5 788.5 c 128,-1,5
 177 774 177 774 177 722 c 0,6,7
 177 708 177 708 175 644 c 0,8,9
 174 610 174 610 174 555 c 0,10,11
 174 516 174 516 175 514 c 0,12,13
 176 513 176 513 177 513 c 0,14,15
 188 513 188 513 231 532 c 0,16,17
 279 554 279 554 318 554 c 0,18,19
 350 554 350 554 394 539 c 0,20,21
 429 526 429 526 452 526 c 0,22,23
 459 526 459 526 471 528 c 0,24,25
 503 533 503 533 585 537 c 0,26,27
 623 539 623 539 632 539 c 0,28,29
 669 539 669 539 704 523 c 0,30,31
 737 508 737 508 776.5 474 c 128,-1,32
 816 440 816 440 833 411 c 0,33,34
 865 359 865 359 865 291 c 0,35,36
 865 270 865 270 862 251 c 0,37,38
 850 179 850 179 813 128 c 128,-1,39
 776 77 776 77 721 56 c 2,40,-1
 684 43 l 1,41,-1
 665 61 l 2,42,43
 646 79 646 79 646 97 c 0,44,45
 646 122 646 122 684 142 c 0,46,47
 724 161 724 161 739.5 187 c 128,-1,48
 755 213 755 213 759 263 c 0,49,50
 761 295 761 295 761 300 c 0,51,52
 761 324 761 324 741 355 c 0,53,54
 717 391 717 391 673 412 c 128,-1,55
 629 433 629 433 600 433 c 0,56,57
 578 433 578 433 558 423 c 0,58,59
 545 417 545 417 541 412 c 128,-1,60
 537 407 537 407 537 397 c 128,-1,61
 537 387 537 387 538 381 c 0,62,63
 541 330 541 330 541 273 c 2,64,-1
 541 253 l 2,65,66
 541 196 541 196 524 163 c 0,67,68
 499 114 499 114 447 71.5 c 128,-1,69
 395 29 395 29 360 29 c 0,70,71
 346 29 346 29 330.5 45.5 c 128,-1,72
 315 62 315 62 314 77 c 0,73,74
 314 111 314 111 354 128 c 0,75,76
 384 139 384 139 413 173 c 128,-1,77
 442 207 442 207 452 242 c 0,78,79
 459 264 459 264 459 282 c 0,80,81
 459 296 459 296 453 322 c 0,82,83
 444 363 444 363 433.5 384 c 128,-1,84
 423 405 423 405 401 425 c 0,85,86
 367 457 367 457 326 457 c 0,87,88
 287 457 287 457 227 428 c 0,89,90
 198 414 198 414 190.5 380.5 c 128,-1,91
 183 347 183 347 183 230 c 0,92,93
 182 89 182 89 171.5 -44.5 c 128,-1,94
 161 -178 161 -178 149 -203 c 0,95,96
 130 -239 130 -239 102.5 -263.5 c 128,-1,97
 75 -288 75 -288 54 -288 c 0,98,99
 37 -288 37 -288 32.5 -284 c 128,-1,100
 28 -280 28 -280 28 -264 c 0,101,102
 28 -239 28 -239 47 -198 c 2,103,-1
 67 -155 l 1,104,-1
 73 295 l 2,105,106
 77 592 77 592 81 673 c 128,-1,107
 85 754 85 754 94 774 c 0,0,1
EndSplineSet
EndChar

StartChar: umbar_ext
Encoding: 42 57373 30
Width: 914
GlyphClass: 2
Flags: W
AnchorPoint: "inside" 234 248 basechar 0
AnchorPoint: "shook" 802 10 basechar 0
AnchorPoint: "TehtaAbove" 392 720 basechar 0
AnchorPoint: "TehtaBelow" 387 -146 basechar 0
LayerCount: 2
Fore
SplineSet
52 231 m 4,0,1
 61 242 61 242 87 242 c 132,-1,2
 113 242 113 242 124 231 c 132,-1,3
 135 220 135 220 135 -3 c 4,4,5
 134 -200 134 -200 127 -228 c 4,6,7
 121 -251 121 -251 101 -254 c 4,8,9
 96 -255 96 -255 86 -255 c 6,10,-1
 77 -255 l 6,11,12
 45 -255 45 -255 37.5 -229.5 c 132,-1,13
 30 -204 30 -204 28 -100 c 6,14,-1
 28 -55 l 6,15,16
 28 44 28 44 35 132 c 132,-1,17
 42 220 42 220 52 231 c 4,0,1
544 466 m 0,18,19
 538 475 538 475 523 475 c 0,20,21
 497 475 497 475 457 449 c 0,22,23
 418 425 418 425 408.5 414 c 128,-1,24
 399 403 399 403 399 377 c 0,25,26
 399 371 399 371 401 333 c 0,27,28
 404 293 404 293 412 210 c 128,-1,29
 420 127 420 127 422 120 c 0,30,31
 424 117 424 117 491 117 c 0,32,33
 560 117 560 117 567 110 c 0,34,35
 570 107 570 107 574 107 c 0,36,37
 582 107 582 107 588.5 117.5 c 128,-1,38
 595 128 595 128 595 142 c 2,39,-1
 595 151 l 2,40,41
 595 225 595 225 577 335 c 128,-1,42
 559 445 559 445 544 466 c 0,18,19
294 447 m 0,43,44
 288 475 288 475 275 475 c 0,45,46
 263 475 263 475 203 413 c 0,47,48
 152 360 152 360 144 335.5 c 128,-1,49
 136 311 136 311 132 205 c 0,50,51
 131 184 131 184 131 154 c 0,52,53
 131 109 131 109 140 106 c 0,54,55
 148 102 148 102 219 102 c 0,56,57
 281 102 281 102 299 111.5 c 128,-1,58
 317 121 317 121 317 157 c 0,59,60
 317 195 317 195 308 305 c 128,-1,61
 299 415 299 415 294 447 c 0,43,44
66 786 m 0,62,63
 82 801 82 801 95 801 c 0,64,65
 107 801 107 801 126 785 c 0,66,67
 136 777 136 777 139 767.5 c 128,-1,68
 142 758 142 758 142 729 c 128,-1,69
 142 700 142 700 139 626 c 0,70,71
 137 587 137 587 137 525 c 0,72,73
 137 483 137 483 139 483 c 0,74,75
 144 483 144 483 178 522 c 0,76,77
 210 558 210 558 237 572 c 0,78,79
 261 584 261 584 289 584 c 0,80,81
 350 584 350 584 379 541 c 0,82,83
 388 527 388 527 398 527 c 0,84,85
 410 527 410 527 434 550 c 0,86,87
 448 563 448 563 480 573.5 c 128,-1,88
 512 584 512 584 537 584 c 0,89,90
 597 584 597 584 633 529 c 0,91,92
 650 503 650 503 655.5 483.5 c 128,-1,93
 661 464 661 464 671 382 c 0,94,95
 674 360 674 360 680.5 319.5 c 128,-1,96
 687 279 687 279 690.5 250 c 128,-1,97
 694 221 694 221 695 190 c 0,98,99
 697 104 697 104 734 94 c 0,100,101
 761 87 761 87 799 64.5 c 128,-1,102
 837 42 837 42 849 27 c 0,103,104
 865 6 865 6 865 -18 c 0,105,106
 865 -35 865 -35 856 -44 c 128,-1,107
 847 -53 847 -53 828 -53 c 0,108,109
 813 -53 813 -53 807 -47 c 0,110,111
 798 -40 798 -40 757 -25.5 c 128,-1,112
 716 -11 716 -11 683 -5 c 0,113,114
 643 3 643 3 430 3 c 0,115,116
 268 3 268 3 158 -3 c 2,117,-1
 45 -9 l 1,118,-1
 34 11 l 2,119,120
 27 24 27 24 27 59 c 0,121,122
 27 85 27 85 30 142 c 0,123,124
 35 293 35 293 38 494 c 0,125,126
 42 737 42 737 45 752 c 0,127,128
 49 769 49 769 66 786 c 0,62,63
EndSplineSet
EndChar

StartChar: anga_ext
Encoding: 43 57374 31
Width: 815
GlyphClass: 2
Flags: W
AnchorPoint: "inside" 547 291 basechar 0
AnchorPoint: "shook" 692 500 basechar 0
AnchorPoint: "TehtaBelow" 315 -90 basechar 0
AnchorPoint: "TehtaAbove" 393 710 basechar 0
LayerCount: 2
Fore
SplineSet
661 791 m 0,0,1
 673 804 673 804 697 804 c 0,2,3
 720 804 720 804 731 793 c 0,4,5
 743 781 743 781 743 716 c 0,6,7
 743 710 743 710 742.5 691 c 128,-1,8
 742 672 742 672 742 659 c 0,9,10
 740 426 740 426 717 160 c 128,-1,11
 694 -106 694 -106 694 -155 c 0,12,13
 694 -186 694 -186 691 -196 c 128,-1,14
 688 -206 688 -206 676 -214 c 0,15,16
 661 -224 661 -224 641 -224 c 2,17,-1
 635 -224 l 2,18,19
 614 -224 614 -224 605 -206 c 0,20,21
 597 -190 597 -190 597 -145 c 0,22,23
 597 -116 597 -116 598 -98 c 0,24,25
 605 -12 605 -12 605 3 c 0,26,27
 605 4 605 4 605.5 6 c 128,-1,28
 606 8 606 8 606 9 c 0,29,30
 606 16 606 16 595 18.5 c 128,-1,31
 584 21 584 21 545 24 c 0,32,33
 492 28 492 28 462 38 c 0,34,35
 438 46 438 46 395 75 c 0,36,37
 360 99 360 99 356 99 c 0,38,39
 350 99 350 99 327 76 c 0,40,41
 283 29 283 29 219 29 c 0,42,43
 149 29 149 29 90 81 c 0,44,45
 50 117 50 117 38 150 c 128,-1,46
 26 183 26 183 26 254 c 2,47,-1
 26 279 l 2,48,49
 26 318 26 318 30 336 c 128,-1,50
 34 354 34 354 49 385 c 0,51,52
 91 474 91 474 172 513 c 0,53,54
 219 536 219 536 239 536 c 0,55,56
 255 536 255 536 272 522 c 0,57,58
 290 507 290 507 290 494 c 0,59,60
 290 472 290 472 243 451 c 0,61,62
 201 432 201 432 178 407 c 0,63,64
 122 348 122 348 122 252 c 0,65,66
 122 172 122 172 165 138 c 0,67,68
 185 122 185 122 220 122 c 0,69,70
 257 122 257 122 281 139 c 0,71,72
 302 154 302 154 310.5 165 c 128,-1,73
 319 176 319 176 319 191 c 0,74,75
 319 200 319 200 316 214 c 0,76,77
 313 226 313 226 313 244 c 0,78,79
 313 281 313 281 322 327.5 c 128,-1,80
 331 374 331 374 344 401 c 0,81,82
 371 457 371 457 418.5 494.5 c 128,-1,83
 466 532 466 532 502 532 c 0,84,85
 540 532 540 532 540 489 c 0,86,87
 540 476 540 476 532 465 c 128,-1,88
 524 454 524 454 502 435 c 0,89,90
 464 402 464 402 440 349.5 c 128,-1,91
 416 297 416 297 416 247 c 0,92,93
 416 221 416 221 433.5 186.5 c 128,-1,94
 451 152 451 152 471 138 c 0,95,96
 495 120 495 120 539 120 c 0,97,98
 582 120 582 120 594 135 c 0,99,100
 619 167 619 167 619 169 c 0,101,102
 637 534 637 534 637 536 c 0,103,104
 647 692 647 692 647 700 c 0,105,106
 650 778 650 778 661 791 c 0,0,1
EndSplineSet
EndChar

StartChar: ungwe_ext
Encoding: 44 57375 32
Width: 957
GlyphClass: 2
Flags: W
AnchorPoint: "inside" 604 338 basechar 0
AnchorPoint: "shook" 768 530 basechar 0
AnchorPoint: "TehtaBelow" 406 -137 basechar 0
AnchorPoint: "TehtaAbove" 446 758 basechar 0
LayerCount: 2
Fore
SplineSet
736 789 m 4,0,1
 745 800 745 800 771 800 c 132,-1,2
 797 800 797 800 808 789 c 132,-1,3
 819 778 819 778 819 555 c 4,4,5
 818 358 818 358 811 330 c 4,6,7
 805 307 805 307 785 304 c 4,8,9
 780 303 780 303 770 303 c 6,10,-1
 761 303 l 6,11,12
 729 303 729 303 721.5 328.5 c 132,-1,13
 714 354 714 354 712 458 c 6,14,-1
 712 503 l 6,15,16
 712 602 712 602 719 690 c 132,-1,17
 726 778 726 778 736 789 c 4,0,1
687 478 m 2,18,19
 655 483 655 483 590 483 c 0,20,21
 561 483 561 483 549.5 482.5 c 128,-1,22
 538 482 538 482 526.5 479 c 128,-1,23
 515 476 515 476 512.5 469.5 c 128,-1,24
 510 463 510 463 510 450 c 0,25,26
 510 436 510 436 513 410 c 0,27,28
 517 379 517 379 525 257 c 0,29,30
 532 164 532 164 537.5 137 c 128,-1,31
 543 110 543 110 555 110 c 0,32,33
 568 110 568 110 627 171.5 c 128,-1,34
 686 233 686 233 698 259 c 0,35,36
 712 290 712 290 712 380 c 2,37,-1
 712 473 l 1,38,-1
 687 478 l 2,18,19
405 473 m 0,39,40
 398 483 398 483 314 483 c 2,41,-1
 277 483 l 2,42,43
 248 483 248 483 238.5 477.5 c 128,-1,44
 229 472 229 472 229 453 c 0,45,46
 229 450 229 450 237 378 c 0,47,48
 253 242 253 242 263 190 c 128,-1,49
 273 138 273 138 286 120 c 0,50,51
 292 111 292 111 307 111 c 0,52,53
 334 111 334 111 381 140 c 2,54,-1
 428 169 l 1,55,-1
 427 239 l 2,56,57
 426 303 426 303 419 383.5 c 128,-1,58
 412 464 412 464 405 473 c 0,39,40
735 588 m 0,59,60
 753 594 753 594 767 594 c 0,61,62
 788 594 788 594 805 579 c 0,63,64
 817 567 817 567 817 441 c 0,65,66
 817 269 817 269 809 -17 c 128,-1,67
 801 -303 801 -303 796 -316 c 0,68,69
 784 -348 784 -348 749 -348 c 128,-1,70
 714 -348 714 -348 705 -316 c 0,71,72
 699 -299 699 -299 699 -188 c 0,73,74
 699 -138 699 -138 700 -110 c 128,-1,75
 701 -82 701 -82 701 -31 c 0,76,77
 701 73 701 73 697 91 c 2,78,-1
 691 111 l 1,79,-1
 662 75 l 2,80,81
 603 1 603 1 540 1 c 0,82,83
 512 1 512 1 484 15.5 c 128,-1,84
 456 30 456 30 451 47 c 0,85,86
 446 62 446 62 436 62 c 128,-1,87
 426 62 426 62 408 44 c 0,88,89
 392 24 392 24 356 13 c 0,90,91
 326 2 326 2 295 2 c 0,92,93
 243 2 243 2 210 39.5 c 128,-1,94
 177 77 177 77 167 147 c 0,95,96
 142 331 142 331 137 391 c 0,97,98
 129 461 129 461 126 466 c 0,99,100
 123 472 123 472 86 476 c 0,101,102
 51 480 51 480 39 490 c 0,103,104
 28 499 28 499 28 528 c 0,105,106
 28 554 28 554 38 563 c 0,107,108
 61 586 61 586 349 586 c 0,109,110
 439 586 439 586 544 583 c 0,111,112
 626 581 626 581 645 581 c 0,113,114
 718 581 718 581 735 588 c 0,59,60
EndSplineSet
EndChar

StartChar: roomen
Encoding: 45 57376 33
Width: 646
GlyphClass: 2
Flags: W
AnchorPoint: "inside" 301 452 basechar 0
AnchorPoint: "shook" 196 183 basechar 0
AnchorPoint: "TehtaBelow" 413 104 basechar 0
AnchorPoint: "TehtaAbove" 282 694 basechar 0
LayerCount: 2
Fore
SplineSet
425 572 m 0,0,1
 431 574 431 574 438 574 c 0,2,3
 462 574 462 574 480 566 c 0,4,5
 493 559 493 559 537.5 493 c 128,-1,6
 582 427 582 427 587 407 c 0,7,8
 592 385 592 385 592 368 c 0,9,10
 592 317 592 317 562 284 c 0,11,12
 541 262 541 262 499 242.5 c 128,-1,13
 457 223 457 223 431 223 c 0,14,15
 409 223 409 223 357 214.5 c 128,-1,16
 305 206 305 206 289 199 c 0,17,18
 232 177 232 177 208.5 153 c 128,-1,19
 185 129 185 129 185 93 c 0,20,21
 185 -16 185 -16 373 -48 c 0,22,23
 459 -63 459 -63 459 -99 c 0,24,25
 459 -115 459 -115 442 -135 c 0,26,27
 431 -149 431 -149 391 -149 c 0,28,29
 308 -149 308 -149 216 -104 c 0,30,31
 151 -72 151 -72 114 -18 c 128,-1,32
 77 36 77 36 77 96 c 0,33,34
 77 137 77 137 97 179 c 0,35,36
 117 220 117 220 135 239 c 0,37,38
 152 256 152 256 152 268 c 128,-1,39
 152 280 152 280 136 306 c 0,40,41
 28 477 28 477 28 510 c 0,42,43
 28 532 28 532 43 547.5 c 128,-1,44
 58 563 58 563 80 563 c 0,45,46
 99 563 99 563 123.5 532.5 c 128,-1,47
 148 502 148 502 232 371 c 0,48,49
 276 303 276 303 289 303 c 0,50,51
 290 303 290 303 292 304 c 0,52,53
 308 309 308 309 355 312 c 0,54,55
 480 323 480 323 480 376 c 0,56,57
 480 404 480 404 440 449 c 0,58,59
 415 477 415 477 408 490 c 128,-1,60
 401 503 401 503 401 521 c 0,61,62
 401 546 401 546 406 556.5 c 128,-1,63
 411 567 411 567 425 572 c 0,0,1
EndSplineSet
EndChar

StartChar: arda
Encoding: 46 57377 34
Width: 740
GlyphClass: 2
Flags: W
AnchorPoint: "inside" 452 470 basechar 0
AnchorPoint: "shook" 387 240 basechar 0
AnchorPoint: "TehtaBelow" 544 105 basechar 0
AnchorPoint: "TehtaAbove" 335 728 basechar 0
LayerCount: 2
Fore
SplineSet
510 620 m 0,0,1
 516 621 516 621 529 621 c 0,2,3
 581 621 581 621 616 601 c 0,4,5
 657 578 657 578 683 513 c 0,6,7
 693 485 693 485 693 429 c 0,8,9
 693 376 693 376 684 360 c 0,10,11
 673 342 673 342 650 317 c 128,-1,12
 627 292 627 292 621 292 c 0,13,14
 613 292 613 292 591 273 c 0,15,16
 570 256 570 256 508 235 c 0,17,18
 428 210 428 210 384 167.5 c 128,-1,19
 340 125 340 125 340 74 c 0,20,21
 340 59 340 59 345 41 c 0,22,23
 371 -45 371 -45 480 -45 c 0,24,25
 516 -45 516 -45 560 -36 c 0,26,27
 570 -34 570 -34 574 -34 c 0,28,29
 593 -34 593 -34 604.5 -47.5 c 128,-1,30
 616 -61 616 -61 616 -84 c 0,31,32
 616 -106 616 -106 606.5 -113.5 c 128,-1,33
 597 -121 597 -121 561 -131 c 0,34,35
 521 -141 521 -141 485 -141 c 0,36,37
 431 -141 431 -141 380 -124.5 c 128,-1,38
 329 -108 329 -108 299 -80 c 0,39,40
 268 -51 268 -51 256 -18.5 c 128,-1,41
 244 14 244 14 244 70 c 0,42,43
 244 110 244 110 248 129.5 c 128,-1,44
 252 149 252 149 268 181 c 0,45,46
 290 230 290 230 298 230 c 0,47,48
 310 230 310 230 310 257 c 0,49,50
 310 276 310 276 302 289 c 128,-1,51
 294 302 294 302 286 302 c 0,52,53
 272 302 272 302 206 247 c 0,54,55
 165 213 165 213 151.5 198 c 128,-1,56
 138 183 138 183 138 169 c 0,57,58
 138 158 138 158 142 149 c 0,59,60
 150 125 150 125 150 118 c 0,61,62
 150 106 150 106 135 91 c 0,63,64
 116 74 116 74 97 74 c 0,65,66
 63 74 63 74 38 120 c 0,67,68
 28 137 28 137 28 158 c 0,69,70
 28 244 28 244 193 361 c 0,71,72
 229 388 229 388 229 402 c 0,73,74
 229 417 229 417 204 456 c 0,75,76
 180 495 180 495 180 525 c 0,77,78
 180 546 180 546 193 558.5 c 128,-1,79
 206 571 206 571 230 571 c 2,80,-1
 234 571 l 2,81,82
 254 571 254 571 271 548.5 c 128,-1,83
 288 526 288 526 383 380 c 0,84,85
 400 354 400 354 407 344 c 128,-1,86
 414 334 414 334 423.5 327 c 128,-1,87
 433 320 433 320 444 320 c 0,88,89
 461 320 461 320 512 340 c 0,90,91
 556 357 556 357 571.5 376 c 128,-1,92
 587 395 587 395 587 432 c 2,93,-1
 587 441 l 2,94,95
 585 483 585 483 570 503.5 c 128,-1,96
 555 524 555 524 515 535 c 0,97,98
 480 546 480 546 478 563 c 0,99,100
 478 564 478 564 477.5 567 c 128,-1,101
 477 570 477 570 477 571 c 0,102,103
 477 588 477 588 487 602.5 c 128,-1,104
 497 617 497 617 510 620 c 0,0,1
-10 62 m 1025,105,-1
EndSplineSet
EndChar

StartChar: lambe
Encoding: 47 57378 35
Width: 666
GlyphClass: 2
Flags: W
AnchorPoint: "TehtaBelow" 316 115 basechar 0
AnchorPoint: "inside" 360 204 basechar 0
AnchorPoint: "shook" 500 -12 basechar 0
AnchorPoint: "lambe_bar" 408 339 basechar 0
AnchorPoint: "TehtaAbove" 364 684 basechar 0
LayerCount: 2
Fore
SplineSet
500 588 m 0,0,1
 507 592 507 592 529 592 c 0,2,3
 593 592 593 592 620 575 c 0,4,5
 639 562 639 562 639 542 c 0,6,7
 639 528 639 528 628 511 c 0,8,9
 617 495 617 495 577 482.5 c 128,-1,10
 537 470 537 470 499 470 c 0,11,12
 464 470 464 470 406 461.5 c 128,-1,13
 348 453 348 453 332 445 c 0,14,15
 303 432 303 432 257.5 379 c 128,-1,16
 212 326 212 326 180 268 c 0,17,18
 132 180 132 180 132 97 c 0,19,20
 132 43 132 43 154 9 c 0,21,22
 195 -55 195 -55 267 -55 c 0,23,24
 270 -55 270 -55 274 -54.5 c 128,-1,25
 278 -54 278 -54 281 -54 c 0,26,27
 312 -51 312 -51 355.5 -33 c 128,-1,28
 399 -15 399 -15 419 4 c 0,29,30
 434 18 434 18 465 32 c 0,31,32
 486 42 486 42 496 42 c 0,33,34
 504 42 504 42 516 36 c 0,35,36
 538 23 538 23 538 -14 c 0,37,38
 538 -34 538 -34 529 -43 c 0,39,40
 456 -116 456 -116 339 -153 c 0,41,42
 301 -164 301 -164 267 -164 c 0,43,44
 198 -164 198 -164 139.5 -125 c 128,-1,45
 81 -86 81 -86 48 -15 c 0,46,47
 27 29 27 29 27 93 c 0,48,49
 27 198 27 198 76 296 c 0,50,51
 90 325 90 325 125.5 378 c 128,-1,52
 161 431 161 431 172 440 c 128,-1,53
 183 449 183 449 183 456 c 0,54,55
 183 469 183 469 154 477 c 0,56,57
 125 486 125 486 115 486 c 0,58,59
 101 486 101 486 80 503.5 c 128,-1,60
 59 521 59 521 59 532 c 0,61,62
 59 547 59 547 83 564 c 0,63,64
 101 577 101 577 124 577 c 0,65,66
 138 577 138 577 170 574 c 0,67,68
 217 570 217 570 288 570 c 0,69,70
 471 570 471 570 500 588 c 0,0,1
EndSplineSet
EndChar

StartChar: alda
Encoding: 48 57379 36
Width: 698
GlyphClass: 2
Flags: W
AnchorPoint: "TehtaBelow" 333 -267 basechar 0
AnchorPoint: "lambe_bar" 437 390 basechar 0
AnchorPoint: "inside" 303 76 basechar 0
AnchorPoint: "shook" 543 -3 basechar 0
AnchorPoint: "TehtaAbove" 310 699 basechar 0
LayerCount: 2
Fore
SplineSet
69 590 m 0,0,1
 78 593 78 593 94 593 c 0,2,3
 109 593 109 593 121 590 c 0,4,5
 147 584 147 584 327 584 c 2,6,-1
 365 584 l 1,7,-1
 600 584 l 2,8,9
 620 582 620 582 631 564 c 0,10,11
 640 550 640 550 640 542 c 0,12,13
 640 536 640 536 634 525 c 0,14,15
 622 503 622 503 588.5 495.5 c 128,-1,16
 555 488 555 488 449 483 c 0,17,18
 339 479 339 479 296 466 c 128,-1,19
 253 453 253 453 225 417 c 0,20,21
 207 393 207 393 207 371 c 0,22,23
 207 342 207 342 234 323 c 128,-1,24
 261 304 261 304 306 304 c 0,25,26
 342 303 342 303 400.5 291.5 c 128,-1,27
 459 280 459 280 487 267 c 0,28,29
 557 236 557 236 594 159 c 0,30,31
 609 127 609 127 609 84 c 0,32,33
 609 36 609 36 591 -3 c 0,34,35
 558 -70 558 -70 471.5 -116 c 128,-1,36
 385 -162 385 -162 292 -162 c 0,37,38
 197 -162 197 -162 119.5 -125 c 128,-1,39
 42 -88 42 -88 32 -37 c 0,40,41
 28 -18 28 -18 28 -6 c 0,42,43
 28 9 28 9 44 24 c 0,44,45
 62 40 62 40 76 40 c 0,46,47
 102 40 102 40 139 -8 c 0,48,49
 157 -32 157 -32 177.5 -42.5 c 128,-1,50
 198 -53 198 -53 243 -60 c 0,51,52
 261 -63 261 -63 280 -63 c 0,53,54
 329 -63 329 -63 389 -44 c 0,55,56
 443 -27 443 -27 473 7 c 128,-1,57
 503 41 503 41 503 79 c 0,58,59
 503 139 503 139 435 172 c 0,60,61
 409 185 409 185 350 197.5 c 128,-1,62
 291 210 291 210 255 211 c 0,63,64
 230 211 230 211 188 229.5 c 128,-1,65
 146 248 146 248 126 268 c 0,66,67
 93 301 93 301 93 355 c 0,68,69
 93 396 93 396 114 434 c 0,70,71
 125 453 125 453 125 461 c 0,72,73
 125 473 125 473 95 479 c 0,74,75
 65 486 65 486 50 498.5 c 128,-1,76
 35 511 35 511 31 533 c 0,77,78
 29 545 29 545 29 549 c 0,79,80
 29 580 29 580 69 590 c 0,0,1
EndSplineSet
EndChar

StartChar: silme
Encoding: 49 57380 37
Width: 534
GlyphClass: 2
Flags: W
AnchorPoint: "inside" 296 252 basechar 0
AnchorPoint: "shook" 424 151 basechar 0
AnchorPoint: "TehtaAbove" 161 624 basechar 0
AnchorPoint: "TehtaBelow" 197 -98 basechar 0
LayerCount: 2
Fore
SplineSet
394 717 m 0,0,1
 414 732 414 732 424 732 c 0,2,3
 435 732 435 732 450 713 c 0,4,5
 467 692 467 692 467 636 c 0,6,7
 467 557 467 557 424.5 501.5 c 128,-1,8
 382 446 382 446 245 346 c 0,9,10
 189 305 189 305 164.5 272 c 128,-1,11
 140 239 140 239 136 200 c 0,12,13
 135 192 135 192 135 180 c 128,-1,14
 135 168 135 168 139.5 161.5 c 128,-1,15
 144 155 144 155 158 144 c 0,16,17
 198 114 198 114 239 114 c 0,18,19
 290 114 290 114 357 167 c 0,20,21
 405 205 405 205 430 205 c 0,22,23
 440 205 440 205 453 200 c 128,-1,24
 466 195 466 195 470 188 c 128,-1,25
 474 181 474 181 474 164 c 128,-1,26
 474 147 474 147 468 135.5 c 128,-1,27
 462 124 462 124 442 105 c 0,28,29
 394 64 394 64 362 46 c 0,30,31
 330 26 330 26 312.5 21.5 c 128,-1,32
 295 17 295 17 245 15 c 0,33,34
 238 15 238 15 225 14.5 c 128,-1,35
 212 14 212 14 208 14 c 0,36,37
 170 14 170 14 137 29 c 0,38,39
 79 57 79 57 52.5 93.5 c 128,-1,40
 26 130 26 130 26 183 c 0,41,42
 26 186 26 186 26.5 191 c 128,-1,43
 27 196 27 196 27 199 c 0,44,45
 31 272 31 272 70 327 c 128,-1,46
 109 382 109 382 201 444 c 0,47,48
 269 488 269 488 291 509 c 0,49,50
 328 541 328 541 351 588 c 128,-1,51
 374 635 374 635 374 677 c 0,52,53
 374 701 374 701 394 717 c 0,0,1
EndSplineSet
EndChar

StartChar: silme_nuquerna
Encoding: 50 57381 38
Width: 537
GlyphClass: 2
Flags: W
AnchorPoint: "inside" 191 299 basechar 0
AnchorPoint: "shook" 86 424 basechar 0
AnchorPoint: "TehtaBelow" 323 -62 basechar 0
AnchorPoint: "TehtaAbove" 275 706 basechar 0
LayerCount: 2
Fore
SplineSet
197 558 m 0,1,2
 228 569 228 569 261 569 c 0,3,4
 316 569 316 569 368.5 543 c 128,-1,5
 421 517 421 517 451 475 c 0,6,7
 466 452 466 452 470.5 437 c 128,-1,8
 475 422 475 422 475 394 c 0,9,10
 475 359 475 359 462.5 316.5 c 128,-1,11
 450 274 450 274 431 248 c 0,12,13
 408 216 408 216 374.5 189 c 128,-1,14
 341 162 341 162 233 88 c 0,15,16
 181 52 181 52 151 2.5 c 128,-1,17
 121 -47 121 -47 120 -100 c 0,18,19
 120 -124 120 -124 100 -140 c 0,20,21
 79 -156 79 -156 70 -156 c 0,22,23
 58 -156 58 -156 42 -135 c 0,24,25
 28 -117 28 -117 28 -87 c 0,26,27
 28 -64 28 -64 29 -48 c 0,28,29
 31 -1 31 -1 35.5 16 c 128,-1,30
 40 33 40 33 59 61 c 0,31,32
 96 118 96 118 228 207 c 0,33,34
 367 300 367 300 367 384 c 0,35,36
 367 411 367 411 351 428 c 128,-1,37
 335 445 335 445 298 458 c 0,38,39
 275 465 275 465 260 465 c 0,40,41
 216 465 216 465 144 411 c 0,42,43
 89 371 89 371 72 371 c 0,44,45
 62 371 62 371 47 377 c 0,46,47
 35 382 35 382 31 389 c 128,-1,48
 27 396 27 396 27 413 c 128,-1,49
 27 430 27 430 32.5 441 c 128,-1,50
 38 452 38 452 56 468 c 0,51,52
 124 531 124 531 197 558 c 0,1,2
EndSplineSet
EndChar

StartChar: esse
Encoding: 51 57382 39
Width: 524
GlyphClass: 2
Flags: W
AnchorPoint: "inside" 273 390 basechar 0
AnchorPoint: "shook" 421 -59 basechar 0
AnchorPoint: "TehtaAbove" 125 733 basechar 0
AnchorPoint: "TehtaBelow" 191 -257 basechar 0
LayerCount: 2
Fore
SplineSet
267 699 m 0,0,1
 291 722 291 722 313 722 c 0,2,3
 330 722 330 722 345 710 c 0,4,5
 364 695 364 695 364 675 c 0,6,7
 364 635 364 635 278 570 c 0,8,9
 189 501 189 501 156.5 465.5 c 128,-1,10
 124 430 124 430 124 400 c 0,11,12
 124 383 124 383 136 356 c 0,13,14
 177 270 177 270 242 260 c 0,15,16
 258 257 258 257 272 257 c 0,17,18
 309 257 309 257 359 289 c 0,19,20
 398 313 398 313 424 313 c 0,21,22
 462 313 462 313 462 265 c 0,23,24
 462 238 462 238 441.5 218 c 128,-1,25
 421 198 421 198 370 175 c 0,26,27
 326 155 326 155 272 155 c 0,28,29
 215 157 215 157 196 165 c 0,30,31
 183 170 183 170 178 170 c 0,32,33
 171 170 171 170 158 159 c 0,34,35
 142 145 142 145 130 117 c 0,36,37
 123 100 123 100 123 89 c 0,38,39
 123 80 123 80 129 63 c 0,40,41
 146 14 146 14 185.5 -17 c 128,-1,42
 225 -48 225 -48 271 -48 c 0,43,44
 311 -48 311 -48 363 -20 c 0,45,46
 404 2 404 2 428 2 c 0,47,48
 462 2 462 2 462 -46 c 0,49,50
 462 -73 462 -73 441.5 -93 c 128,-1,51
 421 -113 421 -113 370 -136 c 0,52,53
 326 -156 326 -156 271 -156 c 0,54,55
 219 -155 219 -155 180 -137.5 c 128,-1,56
 141 -120 141 -120 99 -77 c 0,57,58
 57 -35 57 -35 42 0 c 128,-1,59
 27 35 27 35 27 89 c 0,60,61
 27 136 27 136 34.5 161.5 c 128,-1,62
 42 187 42 187 63 213 c 0,63,64
 81 236 81 236 81 247 c 0,65,66
 81 256 81 256 70 264 c 0,67,68
 51 280 51 280 38.5 318 c 128,-1,69
 26 356 26 356 26 399 c 2,70,-1
 26 405 l 2,71,72
 26 471 26 471 51.5 510 c 128,-1,73
 77 549 77 549 163 614 c 0,74,75
 215 654 215 654 267 699 c 0,0,1
EndSplineSet
EndChar

StartChar: esse_nuquerna
Encoding: 52 57383 40
Width: 546
GlyphClass: 2
Flags: W
AnchorPoint: "inside" 192 373 basechar 0
AnchorPoint: "shook" 95 176 basechar 0
AnchorPoint: "TehtaBelow" 459 -247 basechar 0
AnchorPoint: "TehtaAbove" 256 728 basechar 0
LayerCount: 2
Fore
SplineSet
163 571 m 0,0,1
 181 575 181 575 216 575 c 0,2,3
 234 575 234 575 242 574 c 0,4,5
 315 570 315 570 366 536 c 128,-1,6
 417 502 417 502 433 445 c 0,7,8
 445 406 445 406 445 387 c 0,9,10
 445 362 445 362 429.5 323 c 128,-1,11
 414 284 414 284 398 268 c 0,12,13
 375 245 375 245 375 243 c 128,-1,14
 375 241 375 241 409 205 c 0,15,16
 446 165 446 165 461 128.5 c 128,-1,17
 476 92 476 92 477 42 c 0,18,19
 477 -26 477 -26 449.5 -67 c 128,-1,20
 422 -108 422 -108 320 -189 c 0,21,22
 244 -250 244 -250 226 -266 c 0,23,24
 201 -287 201 -287 194 -287 c 0,25,26
 189 -287 189 -287 176 -279 c 0,27,28
 141 -259 141 -259 141 -234 c 0,29,30
 141 -197 141 -197 218 -135 c 0,31,32
 315 -58 315 -58 348 -23 c 128,-1,33
 381 12 381 12 381 40 c 0,34,35
 381 53 381 53 375 68 c 0,36,37
 354 127 354 127 299 159 c 0,38,39
 264 179 264 179 234 179 c 0,40,41
 196 179 196 179 141 150 c 0,42,43
 97 127 97 127 77 127 c 0,44,45
 55 127 55 127 43 158 c 0,46,47
 40 167 40 167 40 175 c 0,48,49
 40 210 40 210 88 242 c 128,-1,50
 136 274 136 274 214 290 c 0,51,52
 307 308 307 308 328 334 c 0,53,54
 343 352 343 352 343 389 c 0,55,56
 343 414 343 414 334 428 c 0,57,58
 320 449 320 449 290 461 c 128,-1,59
 260 473 260 473 224 473 c 0,60,61
 180 473 180 473 147 455 c 0,62,63
 84 419 84 419 72 419 c 0,64,65
 68 419 68 419 62 421 c 0,66,67
 28 432 28 432 28 468 c 0,68,69
 28 492 28 492 46 508 c 0,70,71
 62 524 62 524 100 544 c 128,-1,72
 138 564 138 564 163 571 c 0,0,1
EndSplineSet
EndChar

StartChar: hyarmen
Encoding: 53 57384 41
Width: 598
GlyphClass: 2
Flags: W
AnchorPoint: "inside" 293 146 basechar 0
AnchorPoint: "shook" 488 49 basechar 0
AnchorPoint: "TehtaAbove" 470 691 basechar 0
AnchorPoint: "TehtaBelow" 288 -85 basechar 0
LayerCount: 2
Fore
SplineSet
131 748 m 0,0,1
 131 770 131 770 144.5 782.5 c 128,-1,2
 158 795 158 795 181 795 c 0,3,4
 203 795 203 795 215.5 781 c 128,-1,5
 228 767 228 767 242 725 c 0,6,7
 285 598 285 598 345 472 c 0,8,9
 358 446 358 446 391 371 c 0,10,11
 403 346 403 346 435.5 276 c 128,-1,12
 468 206 468 206 490 158 c 0,13,14
 525 84 525 84 525 56 c 0,15,16
 525 40 525 40 514 26 c 0,17,18
 504 11 504 11 481 11 c 0,19,20
 454 11 454 11 438 30 c 0,21,22
 428 43 428 43 384 130.5 c 128,-1,23
 340 218 340 218 340 226 c 128,-1,24
 340 234 340 234 316 282.5 c 128,-1,25
 292 331 292 331 288 331 c 0,26,27
 282 330 282 330 243 253 c 0,28,29
 204 173 204 173 158 97 c 0,30,31
 124 39 124 39 113 28 c 128,-1,32
 102 17 102 17 80 15 c 0,33,34
 78 15 78 15 74 14.5 c 128,-1,35
 70 14 70 14 69 14 c 0,36,37
 50 14 50 14 41 26 c 0,38,39
 31 37 31 37 31 70 c 0,40,41
 31 96 31 96 38 103 c 0,42,43
 41 107 41 107 104 227 c 0,44,45
 164 343 164 343 198 406 c 2,46,-1
 232 469 l 1,47,-1
 201 539 l 2,48,49
 131 701 131 701 131 748 c 0,0,1
EndSplineSet
EndChar

StartChar: hwesta_sindarinwa
Encoding: 54 57385 42
Width: 913
GlyphClass: 2
Flags: W
AnchorPoint: "inside" 262 301 basechar 0
AnchorPoint: "shook" 452 103 basechar 0
AnchorPoint: "TehtaBelow" 244 -73 basechar 0
AnchorPoint: "TehtaAbove" 162 700 basechar 0
LayerCount: 2
Fore
SplineSet
317 462 m 0,0,1
 293 469 293 469 266 469 c 0,2,3
 176 469 176 469 137 393 c 0,4,5
 120 359 120 359 120 303 c 0,6,7
 120 239 120 239 140 204 c 0,8,9
 180 137 180 137 260 137 c 0,10,11
 328 137 328 137 379 188 c 0,12,13
 387 196 387 196 389.5 217 c 128,-1,14
 392 238 392 238 392 300 c 2,15,-1
 392 400 l 1,16,-1
 368 427 l 2,17,18
 346 452 346 452 317 462 c 0,0,1
430 821 m 0,19,20
 439 833 439 833 462 833 c 0,21,22
 482 833 482 833 495 823 c 0,23,24
 503 816 503 816 505.5 798 c 128,-1,25
 508 780 508 780 508 724 c 0,26,27
 508 635 508 635 501 588 c 0,28,29
 490 518 490 518 490 292 c 0,30,31
 490 186 490 186 495 171 c 0,32,33
 501 153 501 153 530 153 c 0,34,35
 562 153 562 153 630.5 167 c 128,-1,36
 699 181 699 181 729 193 c 0,37,38
 763 204 763 204 777 208 c 0,39,40
 795 213 795 213 807 213 c 0,41,42
 837 213 837 213 850.5 186.5 c 128,-1,43
 864 160 864 160 866 100 c 2,44,-1
 866 87 l 2,45,46
 866 50 866 50 849 36 c 0,47,48
 833 22 833 22 822 22 c 0,49,50
 810 22 810 22 790.5 39 c 128,-1,51
 771 56 771 56 770 70 c 0,52,53
 768 91 768 91 744 91 c 0,54,55
 734 91 734 91 722 85 c 0,56,57
 682 66 682 66 620 54.5 c 128,-1,58
 558 43 558 43 503 43 c 0,59,60
 435 43 435 43 413 60 c 2,61,-1
 393 76 l 1,62,-1
 365 60 l 2,63,64
 324 38 324 38 257 38 c 0,65,66
 216 38 216 38 181 49 c 0,67,68
 119 69 119 69 77.5 120.5 c 128,-1,69
 36 172 36 172 28 240 c 0,70,71
 26 264 26 264 26 279 c 0,72,73
 26 367 26 367 51 424 c 0,74,75
 82 490 82 490 144 530 c 128,-1,76
 206 570 206 570 273 570 c 0,77,78
 319 570 319 570 361 549 c 0,79,80
 395 532 395 532 396 532 c 0,81,82
 399 532 399 532 401 577 c 0,83,84
 402 638 402 638 412 725 c 128,-1,85
 422 812 422 812 430 821 c 0,19,20
EndSplineSet
EndChar

StartChar: yanta
Encoding: 55 57386 43
Width: 528
GlyphClass: 2
Flags: W
AnchorPoint: "inside" 261 139 basechar 0
AnchorPoint: "shook" 428 58 basechar 0
AnchorPoint: "TehtaAbove" 235 703 basechar 0
AnchorPoint: "TehtaBelow" 247 -72 basechar 0
LayerCount: 2
Fore
SplineSet
187 546 m 0,0,1
 194 563 194 563 201 567 c 128,-1,2
 208 571 208 571 232 571 c 2,3,-1
 268 571 l 1,4,-1
 302 499 l 2,5,6
 421 245 421 245 474 92 c 0,7,8
 481 72 481 72 481 62 c 128,-1,9
 481 52 481 52 470 38 c 0,10,11
 456 18 456 18 429 15 c 2,12,-1
 423 15 l 2,13,14
 403 15 403 15 391.5 29 c 128,-1,15
 380 43 380 43 366 84 c 0,16,17
 320 216 320 216 269 330 c 0,18,19
 260 352 260 352 257 352 c 0,20,21
 255 352 255 352 248 343 c 0,22,23
 237 328 237 328 237 315 c 0,24,25
 237 304 237 304 231 296 c 0,26,27
 220 278 220 278 214 257 c 0,28,29
 205 227 205 227 198 211 c 0,30,31
 195 202 195 202 167 130 c 0,32,33
 135 46 135 46 124 30 c 128,-1,34
 113 14 113 14 87 14 c 0,35,36
 63 14 63 14 49.5 26.5 c 128,-1,37
 36 39 36 39 36 60 c 0,38,39
 36 78 36 78 44 97 c 0,40,41
 127 306 127 306 159 397 c 0,42,43
 170 428 170 428 184 460 c 0,44,45
 188 472 188 472 188 478 c 0,46,47
 188 483 188 483 184 499 c 0,48,49
 181 511 181 511 181 520 c 0,50,51
 181 531 181 531 187 546 c 0,0,1
EndSplineSet
EndChar

StartChar: uure
Encoding: 56 57387 44
Width: 500
GlyphClass: 2
Flags: W
AnchorPoint: "inside" 262 272 basechar 0
AnchorPoint: "shook" 317 49 basechar 0
AnchorPoint: "TehtaAbove" 245 657 basechar 0
AnchorPoint: "TehtaBelow" 228 -88 basechar 0
LayerCount: 2
Fore
SplineSet
316 414 m 0,0,1
 290 431 290 431 273 431 c 128,-1,2
 256 431 256 431 225 417 c 0,3,4
 184 398 184 398 160.5 351 c 128,-1,5
 137 304 137 304 137 240 c 0,6,7
 137 199 137 199 147.5 174 c 128,-1,8
 158 149 158 149 184 127 c 0,9,10
 209 106 209 106 244 106 c 0,11,12
 276 106 276 106 306 124.5 c 128,-1,13
 336 143 336 143 351 174 c 0,14,15
 365 201 365 201 368 261 c 0,16,17
 368 265 368 265 368.5 271.5 c 128,-1,18
 369 278 369 278 369 281 c 0,19,20
 369 378 369 378 316 414 c 0,0,1
222 527 m 0,21,22
 246 531 246 531 272 531 c 0,23,24
 365 531 365 531 413 465 c 0,25,26
 460 402 460 402 460 292 c 2,27,-1
 460 264 l 2,28,29
 458 209 458 209 454 186 c 128,-1,30
 450 163 450 163 436 131 c 0,31,32
 418 92 418 92 380.5 53 c 128,-1,33
 343 14 343 14 323 14 c 4,34,35
 306 14 306 14 303 6 c 4,36,37
 297 -2 297 -2 261 -2 c 0,38,39
 202 -2 202 -2 167 13 c 0,40,41
 136 26 136 26 104 56.5 c 128,-1,42
 72 87 72 87 61 114 c 0,43,44
 29 189 29 189 29 252 c 0,45,46
 30 280 30 280 40.5 324 c 128,-1,47
 51 368 51 368 64 395 c 0,48,49
 86 442 86 442 132.5 481 c 128,-1,50
 179 520 179 520 222 527 c 0,21,22
EndSplineSet
EndChar

StartChar: aara
Encoding: 57 57388 45
Width: 314
GlyphClass: 2
Flags: W
AnchorPoint: "shook" 177 49 basechar 0
AnchorPoint: "TehtaAbove" 157 694 basechar 0
AnchorPoint: "TehtaBelow" 169 -303 basechar 0
LayerCount: 2
Fore
SplineSet
107 556 m 0,0,1
 121 576 121 576 141 576 c 0,2,3
 178 575 178 575 191.5 543 c 128,-1,4
 205 511 205 511 205 424 c 0,5,6
 205 353 205 353 213 291 c 0,7,8
 219 245 219 245 221 65 c 0,9,10
 221 45 221 45 221.5 16 c 128,-1,11
 222 -13 222 -13 222 -23 c 0,12,13
 222 -78 222 -78 219 -97.5 c 128,-1,14
 216 -117 216 -117 206 -136 c 0,15,16
 191 -166 191 -166 162.5 -191.5 c 128,-1,17
 134 -217 134 -217 115 -217 c 0,18,19
 91 -217 91 -217 91 -191 c 0,20,21
 91 -164 91 -164 121 -63 c 0,22,23
 125 -51 125 -51 125 -30 c 0,24,25
 125 -20 125 -20 124 -16 c 0,26,27
 119 4 119 4 110.5 149.5 c 128,-1,28
 102 295 102 295 98 415 c 0,29,30
 97 447 97 447 97 489 c 0,31,32
 97 542 97 542 107 556 c 0,0,1
EndSplineSet
EndChar

StartChar: halla
Encoding: 58 57389 46
Width: 256
GlyphClass: 2
Flags: W
AnchorPoint: "shook" 81 63 basechar 0
AnchorPoint: "TehtaAbove" 122 903 basechar 0
AnchorPoint: "TehtaBelow" 122 -73 basechar 0
LayerCount: 2
Fore
SplineSet
72 805 m 0,0,1
 85 809 85 809 98 809 c 0,2,3
 120 809 120 809 136 793 c 0,4,5
 142 787 142 787 144.5 782.5 c 128,-1,6
 147 778 147 778 148.5 764 c 128,-1,7
 150 750 150 750 150 722 c 0,8,9
 150 720 150 720 146 544 c 0,10,11
 137 184 137 184 132.5 105 c 128,-1,12
 128 26 128 26 116 17 c 0,13,14
 102 7 102 7 81 7 c 0,15,16
 56 7 56 7 41 22 c 0,17,18
 27 36 27 36 27 65 c 0,19,20
 27 71 27 71 29 113 c 0,21,22
 34 210 34 210 37 478 c 0,23,24
 41 695 41 695 46.5 747.5 c 128,-1,25
 52 800 52 800 72 805 c 0,0,1
EndSplineSet
EndChar

StartChar: telco
Encoding: 59 57390 47
Width: 293
GlyphClass: 2
Flags: W
AnchorPoint: "shook" 146 49 basechar 0
AnchorPoint: "TehtaBelow" 146 -73 basechar 0
AnchorPoint: "TehtaAbove" 142 654 basechar 0
LayerCount: 2
Fore
SplineSet
112 521 m 4,0,1
 121 532 121 532 147 532 c 132,-1,2
 173 532 173 532 184 521 c 132,-1,3
 195 510 195 510 195 287 c 4,4,5
 194 90 194 90 187 62 c 4,6,7
 181 39 181 39 161 36 c 4,8,9
 156 35 156 35 146 35 c 6,10,-1
 137 35 l 6,11,12
 105 35 105 35 97.5 60.5 c 132,-1,13
 90 86 90 86 88 190 c 6,14,-1
 88 235 l 6,15,16
 88 334 88 334 95 422 c 132,-1,17
 102 510 102 510 112 521 c 4,0,1
EndSplineSet
EndChar

StartChar: stemless_tinco
Encoding: 60 57392 48
Width: 513
GlyphClass: 2
Flags: W
AnchorPoint: "TehtaAbove" 228 688 basechar 0
AnchorPoint: "TehtaBelow" 248 -122 basechar 0
AnchorPoint: "shook" 267 47 basechar 0
AnchorPoint: "inside" 210 250 basechar 0
LayerCount: 2
Fore
SplineSet
255 1 m 0,0,1
 243 -2 243 -2 225 -2 c 0,2,3
 153 -2 153 -2 102 22 c 0,4,5
 35 52 35 52 35 88 c 0,6,7
 35 100 35 100 45 118 c 0,8,9
 60 143 60 143 86 143 c 0,10,11
 97 143 97 143 102 135 c 0,12,13
 109 124 109 124 146.5 109.5 c 128,-1,14
 184 95 184 95 206 95 c 0,15,16
 255 95 255 95 298 159 c 0,17,18
 353 241 353 241 353 314 c 0,19,20
 353 396 353 396 286 429 c 0,21,22
 254 445 254 445 222 445 c 0,23,24
 184 445 184 445 130 420 c 0,25,26
 82 398 82 398 72 398 c 0,27,28
 65 398 65 398 53 405 c 0,29,30
 29 418 29 418 29 445 c 0,31,32
 29 466 29 466 47 483 c 0,33,34
 78 511 78 511 128.5 527.5 c 128,-1,35
 179 544 179 544 230 544 c 0,36,37
 273 544 273 544 303 533 c 0,38,39
 338 521 338 521 375 485.5 c 128,-1,40
 412 450 412 450 428 414 c 0,41,42
 447 372 447 372 447 312 c 0,43,44
 447 257 447 257 430 208 c 0,45,46
 404 134 404 134 352.5 73 c 128,-1,47
 301 12 301 12 255 1 c 0,0,1
EndSplineSet
EndChar

StartChar: stemless_parma
Encoding: 61 57393 49
Width: 620
GlyphClass: 2
Flags: W
AnchorPoint: "TehtaAbove" 288 671 basechar 0
AnchorPoint: "TehtaBelow" 296 -65 basechar 0
AnchorPoint: "shook" 551 90 basechar 0
AnchorPoint: "inside" 210 290 basechar 0
LayerCount: 2
Fore
SplineSet
124 162 m 0,0,1
 144 168 144 168 180 168 c 0,2,3
 230 168 230 168 291 157 c 0,4,5
 457 126 457 126 487 126 c 0,6,7
 505 126 505 126 532 135 c 0,8,9
 567 145 567 145 572 145 c 0,10,11
 580 145 580 145 588 136 c 0,12,13
 596 128 596 128 596 110 c 0,14,15
 596 75 596 75 573 54 c 0,16,17
 538 22 538 22 482 22 c 0,18,19
 434 22 434 22 354 41 c 0,20,21
 245 66 245 66 205 66 c 0,22,23
 175 66 175 66 144 53 c 0,24,25
 108 37 108 37 87 37 c 128,-1,26
 66 37 66 37 52.5 51 c 128,-1,27
 39 65 39 65 39 85 c 0,28,29
 39 99 39 99 47 115 c 0,30,31
 64 143 64 143 124 162 c 0,0,1
255 1 m 0,32,33
 243 -2 243 -2 225 -2 c 0,34,35
 153 -2 153 -2 102 22 c 0,36,37
 35 52 35 52 35 88 c 0,38,39
 35 100 35 100 45 118 c 0,40,41
 60 143 60 143 86 143 c 0,42,43
 97 143 97 143 102 135 c 0,44,45
 109 124 109 124 146.5 109.5 c 128,-1,46
 184 95 184 95 206 95 c 0,47,48
 255 95 255 95 298 159 c 0,49,50
 353 241 353 241 353 314 c 0,51,52
 353 396 353 396 286 429 c 0,53,54
 254 445 254 445 222 445 c 0,55,56
 184 445 184 445 130 420 c 0,57,58
 82 398 82 398 72 398 c 0,59,60
 65 398 65 398 53 405 c 0,61,62
 29 418 29 418 29 445 c 0,63,64
 29 466 29 466 47 483 c 0,65,66
 78 511 78 511 128.5 527.5 c 128,-1,67
 179 544 179 544 230 544 c 0,68,69
 273 544 273 544 303 533 c 0,70,71
 338 521 338 521 375 485.5 c 128,-1,72
 412 450 412 450 428 414 c 0,73,74
 447 372 447 372 447 312 c 0,75,76
 447 257 447 257 430 208 c 0,77,78
 404 134 404 134 352.5 73 c 128,-1,79
 301 12 301 12 255 1 c 0,32,33
EndSplineSet
EndChar

StartChar: stemless_calma
Encoding: 62 57394 50
Width: 513
GlyphClass: 2
Flags: W
AnchorPoint: "inside" 266 292 basechar 0
AnchorPoint: "shook" 395 89 basechar 0
AnchorPoint: "TehtaBelow" 248 -122 basechar 0
AnchorPoint: "TehtaAbove" 228 688 basechar 0
LayerCount: 2
Fore
SplineSet
221 541 m 0,0,1
 233 544 233 544 251 544 c 0,2,3
 323 544 323 544 374 520 c 0,4,5
 441 490 441 490 441 454 c 0,6,7
 441 442 441 442 431 424 c 0,8,9
 416 399 416 399 390 399 c 0,10,11
 379 399 379 399 374 407 c 0,12,13
 367 418 367 418 329.5 432.5 c 128,-1,14
 292 447 292 447 270 447 c 0,15,16
 221 447 221 447 178 383 c 0,17,18
 123 301 123 301 123 228 c 0,19,20
 123 146 123 146 190 113 c 0,21,22
 222 97 222 97 254 97 c 0,23,24
 292 97 292 97 346 122 c 0,25,26
 394 144 394 144 404 144 c 0,27,28
 411 144 411 144 423 137 c 0,29,30
 447 124 447 124 447 97 c 0,31,32
 447 76 447 76 429 59 c 0,33,34
 398 31 398 31 347.5 14.5 c 128,-1,35
 297 -2 297 -2 246 -2 c 0,36,37
 203 -2 203 -2 173 9 c 0,38,39
 138 21 138 21 101 56.5 c 128,-1,40
 64 92 64 92 48 128 c 0,41,42
 29 170 29 170 29 230 c 0,43,44
 29 285 29 285 46 334 c 0,45,46
 72 408 72 408 123.5 469 c 128,-1,47
 175 530 175 530 221 541 c 0,0,1
EndSplineSet
EndChar

StartChar: stemless_quesse
Encoding: 63 57395 51
Width: 669
GlyphClass: 2
Flags: W
AnchorPoint: "shook" 553 91 basechar 0
AnchorPoint: "TehtaBelow" 400 -86 basechar 0
AnchorPoint: "TehtaAbove" 331 688 basechar 0
AnchorPoint: "inside" 437 247 basechar 0
LayerCount: 2
Fore
SplineSet
501 380 m 0,0,1
 481 374 481 374 445 374 c 0,2,3
 395 374 395 374 334 385 c 0,4,5
 168 416 168 416 138 416 c 0,6,7
 120 416 120 416 93 407 c 0,8,9
 58 397 58 397 53 397 c 0,10,11
 45 397 45 397 37 406 c 0,12,13
 29 414 29 414 29 432 c 0,14,15
 29 467 29 467 52 488 c 0,16,17
 87 520 87 520 143 520 c 0,18,19
 191 520 191 520 271 501 c 0,20,21
 380 476 380 476 420 476 c 0,22,23
 450 476 450 476 481 489 c 0,24,25
 517 505 517 505 538 505 c 128,-1,26
 559 505 559 505 572.5 491 c 128,-1,27
 586 477 586 477 586 457 c 0,28,29
 586 443 586 443 578 427 c 0,30,31
 561 399 561 399 501 380 c 0,0,1
370 541 m 0,32,33
 382 544 382 544 400 544 c 0,34,35
 472 544 472 544 523 520 c 0,36,37
 590 490 590 490 590 454 c 0,38,39
 590 442 590 442 580 424 c 0,40,41
 565 399 565 399 539 399 c 0,42,43
 528 399 528 399 523 407 c 0,44,45
 516 418 516 418 478.5 432.5 c 128,-1,46
 441 447 441 447 419 447 c 0,47,48
 370 447 370 447 327 383 c 0,49,50
 272 301 272 301 272 228 c 0,51,52
 272 146 272 146 339 113 c 0,53,54
 371 97 371 97 403 97 c 0,55,56
 441 97 441 97 495 122 c 0,57,58
 543 144 543 144 553 144 c 0,59,60
 560 144 560 144 572 137 c 0,61,62
 596 124 596 124 596 97 c 0,63,64
 596 76 596 76 578 59 c 0,65,66
 547 31 547 31 496.5 14.5 c 128,-1,67
 446 -2 446 -2 395 -2 c 0,68,69
 352 -2 352 -2 322 9 c 0,70,71
 287 21 287 21 250 56.5 c 128,-1,72
 213 92 213 92 197 128 c 0,73,74
 178 170 178 170 178 230 c 0,75,76
 178 285 178 285 195 334 c 0,77,78
 221 408 221 408 272.5 469 c 128,-1,79
 324 530 324 530 370 541 c 0,32,33
EndSplineSet
EndChar

StartChar: telco_ligating
Encoding: 64 57396 52
Width: 426
GlyphClass: 2
Flags: W
AnchorPoint: "inside" 310 250 basechar 0
AnchorPoint: "shook" 146 49 basechar 0
AnchorPoint: "TehtaBelow" 222 -67 basechar 0
AnchorPoint: "TehtaAbove" 260 669 basechar 0
LayerCount: 2
Fore
SplineSet
137 540 m 0,0,1
 169 550 169 550 292 550 c 0,2,3
 404 550 404 550 413 541 c 0,4,5
 423 531 423 531 423 506 c 0,6,7
 423 478 423 478 395 470.5 c 128,-1,8
 367 463 367 463 257 459 c 0,9,10
 185 457 185 457 176 457 c 0,11,12
 147 457 147 457 136.5 460 c 128,-1,13
 126 463 126 463 119 471 c 0,14,15
 107 483 107 483 107 503 c 2,16,-1
 107 509 l 2,17,18
 108 522 108 522 114.5 528.5 c 128,-1,19
 121 535 121 535 137 540 c 0,0,1
112 521 m 0,20,21
 121 532 121 532 147 532 c 128,-1,22
 173 532 173 532 184 521 c 128,-1,23
 195 510 195 510 195 287 c 0,24,25
 194 90 194 90 187 62 c 0,26,27
 181 39 181 39 161 36 c 0,28,29
 156 35 156 35 146 35 c 2,30,-1
 137 35 l 2,31,32
 105 35 105 35 97.5 60.5 c 128,-1,33
 90 86 90 86 88 190 c 2,34,-1
 88 235 l 2,35,36
 88 334 88 334 95 422 c 128,-1,37
 102 510 102 510 112 521 c 0,20,21
EndSplineSet
EndChar

StartChar: anna_sindarinwa
Encoding: 65 57397 53
Width: 562
GlyphClass: 2
Flags: W
AnchorPoint: "shook" 452 79 basechar 0
AnchorPoint: "inside" 248 293 basechar 0
AnchorPoint: "TehtaAbove" 274 680 basechar 0
AnchorPoint: "TehtaBelow" 244 -73 basechar 0
LayerCount: 2
Fore
SplineSet
169 542 m 0,0,1
 194 551 194 551 206 551 c 0,2,3
 219 551 219 551 231 539 c 0,4,5
 245 527 245 527 245 512 c 0,6,7
 245 487 245 487 200 441 c 0,8,9
 129 369 129 369 129 286 c 0,10,11
 129 283 129 283 129.5 277 c 128,-1,12
 130 271 130 271 130 267 c 0,13,14
 135 204 135 204 164 169 c 128,-1,15
 193 134 193 134 239 134 c 0,16,17
 267 134 267 134 301 148 c 0,18,19
 335 163 335 163 347 174.5 c 128,-1,20
 359 186 359 186 359 209 c 0,21,22
 359 223 359 223 354 251 c 0,23,24
 348 291 348 291 348 339 c 0,25,26
 348 468 348 468 376 519 c 0,27,28
 389 543 389 543 415 543 c 0,29,30
 435 543 435 543 451 528.5 c 128,-1,31
 467 514 467 514 467 494 c 0,32,33
 467 484 467 484 463 475 c 0,34,35
 455 455 455 455 453 326 c 0,36,37
 453 232 453 232 456 207.5 c 128,-1,38
 459 183 459 183 477 141 c 0,39,40
 500 88 500 88 500 76 c 0,41,42
 500 66 500 66 488 54 c 0,43,44
 476 40 476 40 455 40 c 0,45,46
 435 40 435 40 419 54 c 0,47,48
 387 82 387 82 376 82 c 0,49,50
 366 82 366 82 345 72 c 0,51,52
 296 50 296 50 278 45 c 128,-1,53
 260 40 260 40 234 40 c 0,54,55
 194 40 194 40 149.5 56.5 c 128,-1,56
 105 73 105 73 85 96 c 0,57,58
 26 160 26 160 26 285 c 0,59,60
 26 360 26 360 53 419 c 0,61,62
 69 454 69 454 107.5 494.5 c 128,-1,63
 146 535 146 535 169 542 c 0,0,1
EndSplineSet
EndChar

StartChar: anna_open
Encoding: 66 57398 54
Width: 562
GlyphClass: 2
Flags: W
AnchorPoint: "shook" 452 79 basechar 0
AnchorPoint: "inside" 248 293 basechar 0
AnchorPoint: "TehtaAbove" 274 680 basechar 0
AnchorPoint: "TehtaBelow" 244 -73 basechar 0
LayerCount: 2
Fore
SplineSet
169 542 m 0,0,1
 194 551 194 551 206 551 c 0,2,3
 219 551 219 551 231 539 c 0,4,5
 245 527 245 527 245 512 c 0,6,7
 245 487 245 487 200 441 c 0,8,9
 129 369 129 369 129 286 c 0,10,11
 129 283 129 283 129.5 277 c 128,-1,12
 130 271 130 271 130 267 c 0,13,14
 135 204 135 204 164 169 c 128,-1,15
 193 134 193 134 239 134 c 0,16,17
 267 134 267 134 301 148 c 0,18,19
 335 163 335 163 347 174.5 c 128,-1,20
 359 186 359 186 359 209 c 0,21,22
 359 223 359 223 354 251 c 0,23,24
 348 291 348 291 348 339 c 0,25,26
 348 468 348 468 376 519 c 0,27,28
 389 543 389 543 415 543 c 0,29,30
 435 543 435 543 451 528.5 c 128,-1,31
 467 514 467 514 467 494 c 0,32,33
 467 484 467 484 463 475 c 0,34,35
 455 455 455 455 453 326 c 0,36,37
 453 232 453 232 456 207.5 c 128,-1,38
 459 183 459 183 477 141 c 0,39,40
 500 88 500 88 500 76 c 0,41,42
 500 66 500 66 488 54 c 0,43,44
 476 40 476 40 455 40 c 0,45,46
 435 40 435 40 419 54 c 0,47,48
 387 82 387 82 376 82 c 0,49,50
 366 82 366 82 345 72 c 0,51,52
 296 50 296 50 278 45 c 128,-1,53
 260 40 260 40 234 40 c 0,54,55
 194 40 194 40 149.5 56.5 c 128,-1,56
 105 73 105 73 85 96 c 0,57,58
 26 160 26 160 26 285 c 0,59,60
 26 360 26 360 53 419 c 0,61,62
 69 454 69 454 107.5 494.5 c 128,-1,63
 146 535 146 535 169 542 c 0,0,1
EndSplineSet
EndChar

StartChar: christopher_qu
Encoding: 67 57399 55
Width: 639
GlyphClass: 2
Flags: W
AnchorPoint: "inside" 329 312 basechar 0
AnchorPoint: "shook" 483 518 basechar 0
AnchorPoint: "TehtaBelow" 159 -112 basechar 0
AnchorPoint: "TehtaAbove" 307 698 basechar 0
LayerCount: 2
Fore
SplineSet
413 458 m 2,0,1
 378 472 378 472 275 472 c 0,2,3
 241 472 241 472 236 468 c 0,4,5
 229 464 229 464 229 442 c 0,6,7
 229 436 229 436 231 404 c 0,8,9
 231 396 231 396 234 329 c 128,-1,10
 237 262 237 262 240.5 212 c 128,-1,11
 244 162 244 162 248 142 c 0,12,13
 254 116 254 116 283 116 c 0,14,15
 315 116 315 116 355.5 144 c 128,-1,16
 396 172 396 172 413 211 c 0,17,18
 425 240 425 240 428 344 c 2,19,-1
 432 452 l 1,20,-1
 413 458 l 2,0,1
197 576 m 0,21,22
 243 580 243 580 260 580 c 0,23,24
 271 580 271 580 274 579 c 0,25,26
 286 577 286 577 401 571 c 0,27,28
 476 567 476 567 494 564 c 128,-1,29
 512 561 512 561 519 549 c 0,30,31
 530 533 530 533 535 164 c 2,32,-1
 540 -205 l 1,33,-1
 524 -222 l 2,34,35
 507 -239 507 -239 488 -239 c 0,36,37
 471 -239 471 -239 452 -225 c 0,38,39
 439 -214 439 -214 436 -194.5 c 128,-1,40
 433 -175 433 -175 430 -76 c 0,41,42
 427 57 427 57 418 61 c 0,43,44
 411 64 411 64 395 50 c 0,45,46
 372 29 372 29 346 21 c 128,-1,47
 320 13 320 13 274 13 c 0,48,49
 233 13 233 13 219.5 16.5 c 128,-1,50
 206 20 206 20 192 33 c 0,51,52
 174 50 174 50 162 75 c 0,53,54
 151 99 151 99 143 162.5 c 128,-1,55
 135 226 135 226 134 287 c 0,56,57
 134 344 134 344 123 401 c 0,58,59
 116 436 116 436 111 442.5 c 128,-1,60
 106 449 106 449 84 452 c 0,61,62
 54 456 54 456 40 480 c 0,63,64
 30 498 30 498 30 503 c 0,65,66
 30 509 30 509 38 520 c 0,67,68
 66 562 66 562 197 576 c 0,21,22
EndSplineSet
EndChar

StartChar: formen_reversed
Encoding: 68 57400 56
Width: 645
GlyphClass: 2
Flags: W
AnchorPoint: "inside" 300 306 basechar 0
AnchorPoint: "shook" 472 58 basechar 0
AnchorPoint: "TehtaAbove" 208 702 basechar 0
AnchorPoint: "TehtaBelow" 244 -73 basechar 0
LayerCount: 2
Fore
SplineSet
412 384 m 2,0,-1
 412 448 l 1,1,-1
 311 446 l 2,2,3
 210 444 210 444 210 440 c 0,4,5
 209 435 209 435 209 398 c 0,6,7
 209 332 209 332 212.5 233 c 128,-1,8
 216 134 216 134 219 128 c 0,9,10
 229 109 229 109 250 109 c 0,11,12
 275 109 275 109 306 134.5 c 128,-1,13
 337 160 337 160 361 203 c 0,14,15
 412 291 412 291 412 384 c 2,0,-1
420 798 m 0,16,17
 436 818 436 818 460 818 c 2,18,-1
 466 818 l 2,19,20
 493 818 493 818 499.5 803 c 128,-1,21
 506 788 506 788 506 714 c 2,22,-1
 506 660 l 1,23,-1
 506 622 l 2,24,25
 506 568 506 568 508 536 c 0,26,27
 512 489 512 489 516 269 c 0,28,29
 518 151 518 151 518 130 c 0,30,31
 518 71 518 71 513.5 46.5 c 128,-1,32
 509 22 509 22 501 17 c 128,-1,33
 493 12 493 12 470 12 c 0,34,35
 444 12 444 12 436 18.5 c 128,-1,36
 428 25 428 25 419 53 c 0,37,38
 410 84 410 84 402 88 c 1,39,-1
 401 88 l 2,40,41
 391 88 391 88 354 54 c 0,42,43
 328 31 328 31 312.5 22.5 c 128,-1,44
 297 14 297 14 272 10 c 0,45,46
 250 7 250 7 232 7 c 0,47,48
 178 7 178 7 155 39 c 0,49,50
 126 79 126 79 117.5 120.5 c 128,-1,51
 109 162 109 162 105 285 c 0,52,53
 100 466 100 466 67 478 c 0,54,55
 49 486 49 486 38 502 c 0,56,57
 30 513 30 513 30 520 c 128,-1,58
 30 527 30 527 37 541 c 0,59,60
 48 564 48 564 61 568 c 1,61,-1
 64 568 l 2,62,63
 68 569 68 569 70 569 c 0,64,65
 106 569 106 569 167 560 c 0,66,67
 234 550 234 550 271 550 c 0,68,69
 285 550 285 550 327 554 c 0,70,71
 392 563 392 563 397 563 c 0,72,73
 400 563 400 563 400 600 c 0,74,75
 400 627 400 627 399 643 c 0,76,77
 397 689 397 689 397 702 c 0,78,79
 397 770 397 770 420 798 c 0,16,17
EndSplineSet
EndChar

StartChar: bombadil_hw
Encoding: 69 57401 57
Width: 628
GlyphClass: 2
Flags: W
AnchorPoint: "inside" 284 117 basechar 0
AnchorPoint: "shook" 546 48 basechar 0
AnchorPoint: "TehtaBelow" 347 -83 basechar 0
AnchorPoint: "TehtaAbove" 213 485 basechar 0
LayerCount: 2
Fore
SplineSet
194 -20 m 0,0,1
 188 -22 188 -22 181 -22 c 0,2,3
 157 -22 157 -22 139 -14 c 0,4,5
 126 -7 126 -7 82 59.5 c 128,-1,6
 38 126 38 126 33 146 c 0,7,8
 28 168 28 168 28 185 c 0,9,10
 28 236 28 236 59 269 c 0,11,12
 80 291 80 291 122 310 c 128,-1,13
 164 329 164 329 190 329 c 0,14,15
 212 329 212 329 264 337 c 128,-1,16
 316 345 316 345 332 352 c 0,17,18
 389 374 389 374 413 397.5 c 128,-1,19
 437 421 437 421 437 457 c 0,20,21
 438 566 438 566 250 599 c 0,22,23
 164 615 164 615 165 651 c 0,24,25
 165 667 165 667 182 687 c 0,26,27
 193 701 193 701 233 700 c 0,28,29
 316 699 316 699 408 654 c 0,30,31
 473 622 473 622 509.5 567.5 c 128,-1,32
 546 513 546 513 545 453 c 0,33,34
 545 412 545 412 525 370 c 0,35,36
 505 329 505 329 486 311 c 0,37,38
 469 294 469 294 469 282 c 128,-1,39
 469 270 469 270 485 244 c 0,40,41
 592 72 592 72 591 39 c 0,42,43
 591 17 591 17 576 1.5 c 128,-1,44
 561 -14 561 -14 539 -14 c 0,45,46
 520 -14 520 -14 495.5 17 c 128,-1,47
 471 48 471 48 388 179 c 0,48,49
 344 247 344 247 332 248 c 0,50,51
 331 248 331 248 329 247 c 0,52,53
 313 242 313 242 266 239 c 0,54,55
 141 229 141 229 140 176 c 0,56,57
 140 148 140 148 180 103 c 0,58,59
 205 75 205 75 211.5 61.5 c 128,-1,60
 218 48 218 48 218 30 c 0,61,62
 218 5 218 5 213 -5 c 128,-1,63
 208 -15 208 -15 194 -20 c 0,0,1
EndSplineSet
EndChar

StartChar: tengwa_mh
Encoding: 70 57402 58
Width: 899
GlyphClass: 2
Flags: W
AnchorPoint: "inside" 244 220 basechar 0
AnchorPoint: "TehtaAbove" 370 688 basechar 0
AnchorPoint: "TehtaBelow" 416 -143 basechar 0
LayerCount: 2
Fore
SplineSet
897 78 m 0,0,1
 924 57 924 57 942 27 c 0,2,3
 981 -38 981 -38 963 -84 c 0,4,5
 958 -97 958 -97 931.5 -127.5 c 128,-1,6
 905 -158 905 -158 891 -167 c 0,7,8
 877 -175 877 -175 845.5 -168.5 c 128,-1,9
 814 -162 814 -162 807 -150 c 0,10,11
 798 -135 798 -135 809 -105.5 c 128,-1,12
 820 -76 820 -76 841 -59 c 0,13,14
 855 -47 855 -47 858 -40.5 c 128,-1,15
 861 -34 861 -34 857 -26 c 0,16,17
 852 -17 852 -17 842 -9 c 0,18,19
 830 3 830 3 785 7 c 128,-1,20
 740 11 740 11 708 3 c 0,21,22
 657 -9 657 -9 639.5 -9 c 128,-1,23
 622 -9 622 -9 615 3 c 0,24,25
 601 26 601 26 611 50 c 128,-1,26
 621 74 621 74 650 92 c 0,27,28
 663 100 663 100 684 107 c 0,29,30
 708 113 708 113 765 112.5 c 128,-1,31
 822 112 822 112 849 105 c 0,32,33
 868 99 868 99 897 78 c 0,0,1
566 453 m 0,34,35
 560 462 560 462 546 462 c 0,36,37
 518 462 518 462 471 432 c 2,38,-1
 425 403 l 1,39,-1
 426 334 l 2,40,41
 426 276 426 276 433.5 192.5 c 128,-1,42
 441 109 441 109 448 100 c 0,43,44
 453 91 453 91 538 91 c 0,45,46
 599 91 599 91 610.5 93.5 c 128,-1,47
 622 96 622 96 622 109 c 0,48,49
 622 127 622 127 598 324 c 0,50,51
 586 422 586 422 566 453 c 0,34,35
316 441 m 0,52,53
 311 462 311 462 298 462 c 0,54,55
 282 462 282 462 224 398.5 c 128,-1,56
 166 335 166 335 162 313 c 0,57,58
 159 283 159 283 159 238 c 0,59,60
 159 208 159 208 160 192 c 2,61,-1
 162 95 l 1,62,-1
 340 95 l 1,63,-1
 339 138 l 2,64,65
 338 184 338 184 329 302.5 c 128,-1,66
 320 421 320 421 316 441 c 0,52,53
237 540 m 0,67,68
 261 559 261 559 274.5 565 c 128,-1,69
 288 571 288 571 311 571 c 0,70,71
 342 571 342 571 369 557.5 c 128,-1,72
 396 544 396 544 402 525 c 0,73,74
 406 510 406 510 414 510 c 128,-1,75
 422 510 422 510 456 535 c 0,76,77
 502 570 502 570 556 570 c 0,78,79
 605 570 605 570 634 541 c 0,80,81
 657 518 657 518 668.5 491.5 c 128,-1,82
 680 465 680 465 686 420 c 0,83,84
 687 409 687 409 692 367.5 c 128,-1,85
 697 326 697 326 700 308 c 0,86,87
 711 222 711 222 714 182 c 0,88,89
 722 114 722 114 726 108 c 0,90,91
 730 101 730 101 765 97 c 0,92,93
 799 93 799 93 811 82.5 c 128,-1,94
 823 72 823 72 823 45 c 0,95,96
 823 17 823 17 806 8 c 0,97,98
 764 -12 764 -12 490 -12 c 0,99,100
 410 -12 410 -12 324 -9 c 0,101,102
 305 -8 305 -8 265 -8 c 0,103,104
 189 -8 189 -8 143 -12 c 0,105,106
 115 -15 115 -15 101 -15 c 0,107,108
 81 -15 81 -15 58 0 c 0,109,110
 28 20 28 20 28 44 c 0,111,112
 28 56 28 56 37 70 c 0,113,114
 46 85 46 85 53.5 174.5 c 128,-1,115
 61 264 61 264 61 370 c 0,116,117
 62 445 62 445 68 466.5 c 128,-1,118
 74 488 74 488 98 502 c 0,119,120
 106 506 106 506 115 506 c 0,121,122
 139 506 139 506 153 480 c 2,123,-1
 164 461 l 1,124,-1
 181 485 l 2,125,126
 194 505 194 505 237 540 c 0,67,68
EndSplineSet
EndChar

StartChar: vaiya
Encoding: 73 57405 59
Width: 500
GlyphClass: 2
Flags: W
AnchorPoint: "inside" 262 272 basechar 0
AnchorPoint: "TehtaAbove" 245 657 basechar 0
AnchorPoint: "TehtaBelow" 228 -88 basechar 0
LayerCount: 2
Fore
SplineSet
517 86 m 0,0,1
 544 65 544 65 562 35 c 0,2,3
 601 -30 601 -30 583 -76 c 0,4,5
 578 -89 578 -89 551.5 -119.5 c 128,-1,6
 525 -150 525 -150 511 -159 c 0,7,8
 497 -167 497 -167 465.5 -160.5 c 128,-1,9
 434 -154 434 -154 427 -142 c 0,10,11
 418 -127 418 -127 429 -97.5 c 128,-1,12
 440 -68 440 -68 461 -51 c 0,13,14
 475 -39 475 -39 478 -32.5 c 128,-1,15
 481 -26 481 -26 477 -18 c 0,16,17
 472 -9 472 -9 462 -1 c 0,18,19
 450 11 450 11 405 15 c 128,-1,20
 360 19 360 19 328 11 c 0,21,22
 277 -1 277 -1 259.5 -1 c 128,-1,23
 242 -1 242 -1 235 11 c 0,24,25
 221 34 221 34 231 58 c 128,-1,26
 241 82 241 82 270 100 c 0,27,28
 283 108 283 108 304 115 c 0,29,30
 328 121 328 121 385 120.5 c 128,-1,31
 442 120 442 120 469 113 c 0,32,33
 488 107 488 107 517 86 c 0,0,1
316 414 m 0,34,35
 290 431 290 431 273 431 c 128,-1,36
 256 431 256 431 225 417 c 0,37,38
 184 398 184 398 160.5 351 c 128,-1,39
 137 304 137 304 137 240 c 0,40,41
 137 199 137 199 147.5 174 c 128,-1,42
 158 149 158 149 184 127 c 0,43,44
 209 106 209 106 244 106 c 0,45,46
 276 106 276 106 306 124.5 c 128,-1,47
 336 143 336 143 351 174 c 0,48,49
 365 201 365 201 368 261 c 0,50,51
 368 265 368 265 368.5 271.5 c 128,-1,52
 369 278 369 278 369 281 c 0,53,54
 369 378 369 378 316 414 c 0,34,35
222 527 m 0,55,56
 246 531 246 531 272 531 c 0,57,58
 365 531 365 531 413 465 c 0,59,60
 460 402 460 402 460 292 c 2,61,-1
 460 264 l 2,62,63
 458 209 458 209 454 186 c 128,-1,64
 450 163 450 163 436 131 c 0,65,66
 418 92 418 92 380.5 53 c 128,-1,67
 343 14 343 14 323 14 c 0,68,69
 306 14 306 14 303 6 c 0,70,71
 297 -2 297 -2 261 -2 c 0,72,73
 202 -2 202 -2 167 13 c 0,74,75
 136 26 136 26 104 56.5 c 128,-1,76
 72 87 72 87 61 114 c 0,77,78
 29 189 29 189 29 252 c 0,79,80
 30 280 30 280 40.5 324 c 128,-1,81
 51 368 51 368 64 395 c 0,82,83
 86 442 86 442 132.5 481 c 128,-1,84
 179 520 179 520 222 527 c 0,55,56
EndSplineSet
EndChar

StartChar: tripledot_above
Encoding: 74 57408 60
AltUni2: 00e831.00fe00.0
Width: 0
GlyphClass: 4
Flags: W
AnchorPoint: "mkmk_up" 157 989 basemark 0
AnchorPoint: "mkmk_up" 157 685 mark 0
AnchorPoint: "TehtaAbove" 157 685 mark 0
LayerCount: 2
Fore
SplineSet
107 863 m 4,0,1
 136 888 136 888 137 888 c 4,2,3
 166 888 166 888 258 798.5 c 132,-1,4
 350 709 350 709 350 680 c 4,5,6
 350 662 350 662 336 648.5 c 132,-1,7
 322 635 322 635 304 635 c 4,8,9
 300 635 300 635 292 637 c 4,10,11
 275 640 275 640 237 684 c 4,12,13
 207 721 207 721 175 746 c 6,14,-1
 148 766 l 5,15,-1
 119 732 l 6,16,17
 29 625 29 625 -9 625 c 4,18,19
 -23 625 -23 625 -38 638 c 4,20,21
 -52 650 -52 650 -52 663 c 4,22,23
 -52 687 -52 687 14 762 c 4,24,25
 88 844 88 844 107 863 c 4,0,1
EndSplineSet
EndChar

StartChar: tripledot_below
Encoding: 75 57409 61
Width: 0
GlyphClass: 4
Flags: W
AnchorPoint: "mkmk_down" 170 -479 basemark 0
AnchorPoint: "mkmk_down" 170 -195 mark 0
AnchorPoint: "TehtaBelow" 170 -195 mark 0
LayerCount: 2
Fore
SplineSet
127 -405 m 0,0,1
 156 -430 156 -430 157 -430 c 0,2,3
 186 -430 186 -430 278 -340.5 c 128,-1,4
 370 -251 370 -251 370 -222 c 0,5,6
 370 -204 370 -204 356 -190.5 c 128,-1,7
 342 -177 342 -177 324 -177 c 0,8,9
 320 -177 320 -177 312 -179 c 0,10,11
 295 -182 295 -182 257 -226 c 0,12,13
 227 -263 227 -263 195 -288 c 2,14,-1
 168 -308 l 1,15,-1
 139 -274 l 2,16,17
 49 -167 49 -167 11 -167 c 0,18,19
 -3 -167 -3 -167 -18 -180 c 0,20,21
 -32 -192 -32 -192 -32 -205 c 0,22,23
 -32 -229 -32 -229 34 -304 c 0,24,25
 108 -386 108 -386 127 -405 c 0,0,1
EndSplineSet
EndChar

StartChar: doubledot_above
Encoding: 76 57410 62
Width: 0
GlyphClass: 4
Flags: W
AnchorPoint: "mkmk_up" 227 715 mark 0
AnchorPoint: "mkmk_up" 227 836 basemark 0
AnchorPoint: "TehtaAbove" 227 715 mark 0
LayerCount: 2
Fore
SplineSet
325 765 m 132,-1,1
 341 769 341 769 350 769 c 4,2,3
 377 769 377 769 397 754 c 132,-1,4
 417 739 417 739 417 718 c 4,5,6
 417 700 417 700 392 686 c 132,-1,7
 367 672 367 672 340 672 c 4,8,9
 320 672 320 672 308 681 c 4,10,11
 291 694 291 694 291 717 c 4,12,13
 291 734 291 734 300 747.5 c 132,-1,0
 309 761 309 761 325 765 c 132,-1,1
63 752 m 4,14,15
 78 763 78 763 103 763 c 4,16,17
 129 763 129 763 149.5 750 c 132,-1,18
 170 737 170 737 170 717 c 4,19,20
 170 698 170 698 148 684.5 c 132,-1,21
 126 671 126 671 100 671 c 132,-1,22
 74 671 74 671 60 684 c 4,23,24
 46 698 46 698 46 717 c 4,25,26
 46 740 46 740 63 752 c 4,14,15
EndSplineSet
Ligature2: "Ligatures subtable" amatixe amatixe
LCarets2: 1 0
EndChar

StartChar: doubledot_below
Encoding: 77 57411 63
Width: 0
GlyphClass: 4
Flags: W
AnchorPoint: "mkmk_down" 170 -245 mark 0
AnchorPoint: "mkmk_down" 170 -366 basemark 0
AnchorPoint: "TehtaBelow" 170 -245 mark 0
LayerCount: 2
Fore
SplineSet
275 -205 m 128,-1,1
 291 -201 291 -201 300 -201 c 0,2,3
 327 -201 327 -201 347 -216 c 128,-1,4
 367 -231 367 -231 367 -252 c 0,5,6
 367 -270 367 -270 342 -284 c 128,-1,7
 317 -298 317 -298 290 -298 c 0,8,9
 270 -298 270 -298 258 -289 c 0,10,11
 241 -276 241 -276 241 -253 c 0,12,13
 241 -236 241 -236 250 -222.5 c 128,-1,0
 259 -209 259 -209 275 -205 c 128,-1,1
13 -218 m 0,14,15
 28 -207 28 -207 53 -207 c 0,16,17
 79 -207 79 -207 99.5 -220 c 128,-1,18
 120 -233 120 -233 120 -253 c 0,19,20
 120 -272 120 -272 98 -285.5 c 128,-1,21
 76 -299 76 -299 50 -299 c 128,-1,22
 24 -299 24 -299 10 -286 c 0,23,24
 -4 -272 -4 -272 -4 -253 c 0,25,26
 -4 -230 -4 -230 13 -218 c 0,14,15
EndSplineSet
Ligature2: "Ligatures subtable" unutixe unutixe
LCarets2: 1 0
EndChar

StartChar: amatixe
Encoding: 78 57412 64
Width: 0
GlyphClass: 4
Flags: W
AnchorPoint: "mkmk_up" 71 836 basemark 0
AnchorPoint: "mkmk_up" 71 715 mark 0
AnchorPoint: "TehtaAbove" 71 715 mark 0
LayerCount: 2
Fore
SplineSet
29 754 m 4,0,1
 45 771 45 771 70 771 c 4,2,3
 94 771 94 771 111 755 c 4,4,5
 129 738 129 738 129 714 c 132,-1,6
 129 690 129 690 112 671 c 132,-1,7
 95 652 95 652 71 652 c 4,8,9
 59 652 59 652 50 656 c 4,10,11
 12 671 12 671 12 711 c 4,12,13
 12 736 12 736 29 754 c 4,0,1
EndSplineSet
EndChar

StartChar: unutixe
Encoding: 79 57413 65
Width: 0
GlyphClass: 4
Flags: W
AnchorPoint: "mkmk_down" 82 -366 basemark 0
AnchorPoint: "mkmk_down" 82 -195 mark 0
AnchorPoint: "TehtaBelow" 82 -195 mark 0
LayerCount: 2
Fore
SplineSet
29 -156 m 4,0,1
 45 -139 45 -139 70 -139 c 4,2,3
 94 -139 94 -139 111 -155 c 4,4,5
 129 -172 129 -172 129 -196 c 132,-1,6
 129 -220 129 -220 112 -239 c 132,-1,7
 95 -258 95 -258 71 -258 c 4,8,9
 59 -258 59 -258 50 -254 c 4,10,11
 12 -239 12 -239 12 -199 c 4,12,13
 12 -174 12 -174 29 -156 c 4,0,1
EndSplineSet
EndChar

StartChar: tecco_above
Encoding: 80 57414 66
Width: 0
GlyphClass: 4
Flags: W
AnchorPoint: "mkmk_up" 122 679 mark 0
AnchorPoint: "mkmk_up" 122 920 basemark 0
AnchorPoint: "TehtaAbove" 122 679 mark 0
LayerCount: 2
Fore
SplineSet
126 819 m 0,0,1
 172 865 172 865 201 865 c 0,2,3
 217 865 217 865 227 852 c 0,4,5
 237 841 237 841 237 824 c 0,6,7
 237 793 237 793 197 752 c 0,8,9
 156 709 156 709 134 675 c 0,10,11
 100 626 100 626 71 626 c 0,12,13
 66 626 66 626 52 630 c 0,14,15
 31 638 31 638 31 668 c 0,16,17
 31 681 31 681 32 689 c 0,18,19
 33 706 33 706 60 743 c 128,-1,20
 87 780 87 780 126 819 c 0,0,1
EndSplineSet
EndChar

StartChar: tecco_below
Encoding: 81 57415 67
Width: 0
GlyphClass: 4
Flags: W
AnchorPoint: "mkmk_down" 243 -366 basemark 0
AnchorPoint: "mkmk_down" 243 -244 mark 0
AnchorPoint: "TehtaBelow" 243 -244 mark 0
LayerCount: 2
Fore
SplineSet
235 -328 m 4,0,1
 186 -371 186 -371 158 -370 c 4,2,3
 142 -369 142 -369 133 -355 c 4,4,5
 124 -343 124 -343 124 -327 c 4,6,7
 126 -296 126 -296 168 -257 c 4,8,9
 211 -216 211 -216 235 -184 c 4,10,11
 272 -137 272 -137 301 -138 c 4,12,13
 306 -138 306 -138 320 -144 c 4,14,15
 341 -153 341 -153 339 -183 c 4,16,17
 338 -196 338 -196 336 -204 c 4,18,19
 334 -221 334 -221 305 -256 c 132,-1,20
 276 -291 276 -291 235 -328 c 4,0,1
EndSplineSet
EndChar

StartChar: tecco_above_double
Encoding: 82 57416 68
Width: 0
GlyphClass: 4
Flags: W
AnchorPoint: "mkmk_up" 170 655 mark 0
AnchorPoint: "mkmk_up" 170 986 basemark 0
AnchorPoint: "TehtaAbove" 170 655 mark 0
LayerCount: 2
Fore
SplineSet
130 847 m 4,0,1
 177 894 177 894 197 894 c 4,2,3
 210 894 210 894 222 880 c 4,4,5
 236 866 236 866 236 846 c 4,6,7
 236 815 236 815 197 776 c 4,8,9
 154 731 154 731 134 700 c 4,10,11
 110 664 110 664 90 656 c 4,12,13
 81 653 81 653 72 653 c 4,14,15
 57 653 57 653 44.5 660 c 132,-1,16
 32 667 32 667 31 677 c 6,17,-1
 31 687 l 6,18,19
 31 721 31 721 53 756 c 132,-1,20
 75 791 75 791 130 847 c 4,0,1
300 849 m 4,21,22
 334 880 334 880 362 880 c 4,23,24
 398 880 398 880 398 835 c 4,25,26
 398 819 398 819 390 805.5 c 132,-1,27
 382 792 382 792 359 769 c 4,28,29
 322 730 322 730 297 692 c 4,30,31
 273 656 273 656 253 648 c 4,32,33
 244 644 244 644 233 644 c 4,34,35
 215 644 215 644 203 656 c 132,-1,36
 191 668 191 668 191 687 c 4,37,38
 191 696 191 696 194 705 c 4,39,40
 200 726 200 726 235 774 c 132,-1,41
 270 822 270 822 300 849 c 4,21,22
EndSplineSet
Ligature2: "Ligatures subtable" tecco_above tecco_above
LCarets2: 1 0
EndChar

StartChar: tecco_below_double
Encoding: 83 57417 69
Width: 0
GlyphClass: 4
Flags: W
AnchorPoint: "mkmk_down" 267 -446 basemark 0
AnchorPoint: "mkmk_down" 267 -244 mark 0
AnchorPoint: "TehtaBelow" 267 -244 mark 0
LayerCount: 2
Fore
SplineSet
364 -321 m 0,0,1
 317 -368 317 -368 297 -368 c 0,2,3
 284 -368 284 -368 272 -354 c 0,4,5
 258 -340 258 -340 258 -320 c 0,6,7
 258 -289 258 -289 297 -250 c 0,8,9
 340 -205 340 -205 360 -174 c 0,10,11
 384 -138 384 -138 404 -130 c 0,12,13
 413 -127 413 -127 422 -127 c 0,14,15
 437 -127 437 -127 449.5 -134 c 128,-1,16
 462 -141 462 -141 463 -151 c 2,17,-1
 463 -161 l 2,18,19
 463 -195 463 -195 441 -230 c 128,-1,20
 419 -265 419 -265 364 -321 c 0,0,1
194 -323 m 0,21,22
 160 -354 160 -354 132 -354 c 0,23,24
 96 -354 96 -354 96 -309 c 0,25,26
 96 -293 96 -293 104 -279.5 c 128,-1,27
 112 -266 112 -266 135 -243 c 0,28,29
 172 -204 172 -204 197 -166 c 0,30,31
 221 -130 221 -130 241 -122 c 0,32,33
 250 -118 250 -118 261 -118 c 0,34,35
 279 -118 279 -118 291 -130 c 128,-1,36
 303 -142 303 -142 303 -161 c 0,37,38
 303 -170 303 -170 300 -179 c 0,39,40
 294 -200 294 -200 259 -248 c 128,-1,41
 224 -296 224 -296 194 -323 c 0,21,22
EndSplineSet
Ligature2: "Ligatures subtable" tecco_below tecco_below
LCarets2: 1 0
EndChar

StartChar: rightcurl_above
Encoding: 84 57418 70
Width: 0
GlyphClass: 4
Flags: W
AnchorPoint: "mkmk_up" 147 684 mark 0
AnchorPoint: "mkmk_up" 147 1024 basemark 0
AnchorPoint: "TehtaAbove" 147 684 mark 0
LayerCount: 2
Fore
SplineSet
140 905 m 4,0,1
 172 917 172 917 207 917 c 4,2,3
 283 917 283 917 313 878 c 4,4,5
 322 867 322 867 334 828.5 c 132,-1,6
 346 790 346 790 346 773 c 4,7,8
 346 757 346 757 324 733.5 c 132,-1,9
 302 710 302 710 288 710 c 4,10,11
 271 710 271 710 251.5 734.5 c 132,-1,12
 232 759 232 759 228 786 c 4,13,14
 225 804 225 804 221 810.5 c 132,-1,15
 217 817 217 817 208 817 c 4,16,17
 198 817 198 817 186 813 c 4,18,19
 170 809 170 809 143 772.5 c 132,-1,20
 116 736 116 736 106 705 c 4,21,22
 90 655 90 655 81 640 c 132,-1,23
 72 625 72 625 58 625 c 4,24,25
 31 625 31 625 15.5 646 c 132,-1,26
 0 667 0 667 0 701 c 4,27,28
 0 716 0 716 5 738 c 4,29,30
 12 762 12 762 42 810.5 c 132,-1,31
 72 859 72 859 92 878 c 4,32,33
 107 891 107 891 140 905 c 4,0,1
EndSplineSet
EndChar

StartChar: rightcurl_below
Encoding: 85 57419 71
Width: 0
GlyphClass: 4
Flags: W
AnchorPoint: "mkmk_down" 170 -244 mark 0
AnchorPoint: "mkmk_down" 170 -464 basemark 0
AnchorPoint: "TehtaBelow" 170 -244 mark 0
LayerCount: 2
Fore
SplineSet
209 -412 m 4,0,1
 200 -415 200 -415 185 -415 c 4,2,3
 159 -415 159 -415 126.5 -407.5 c 132,-1,4
 94 -400 94 -400 78 -388 c 4,5,6
 44 -366 44 -366 30.5 -342 c 132,-1,7
 17 -318 17 -318 18 -280 c 4,8,9
 18 -243 18 -243 29.5 -216.5 c 132,-1,10
 41 -190 41 -190 73 -151 c 4,11,12
 104 -114 104 -114 115 -90 c 4,13,14
 135 -43 135 -43 176 -35 c 4,15,16
 186 -33 186 -33 190 -33 c 4,17,18
 216 -33 216 -33 219 -79 c 4,19,20
 220 -84 220 -84 220 -92 c 4,21,22
 219 -136 219 -136 157 -205 c 4,23,24
 120 -245 120 -245 119 -274 c 4,25,26
 119 -315 119 -315 186 -316 c 4,27,28
 210 -316 210 -316 225 -332 c 132,-1,29
 240 -348 240 -348 240 -369 c 4,30,31
 239 -401 239 -401 209 -412 c 4,0,1
EndSplineSet
EndChar

StartChar: leftcurl_above
Encoding: 86 57420 72
Width: 0
GlyphClass: 4
Flags: W
AnchorPoint: "mkmk_up" 147 655 mark 0
AnchorPoint: "mkmk_up" 147 1096 basemark 0
AnchorPoint: "TehtaAbove" 147 655 mark 0
LayerCount: 2
Fore
SplineSet
60 991 m 0,0,1
 69 994 69 994 84 994 c 0,2,3
 110 994 110 994 142.5 987 c 128,-1,4
 175 980 175 980 191 969 c 0,5,6
 225 947 225 947 239 923 c 128,-1,7
 253 899 253 899 253 861 c 0,8,9
 253 824 253 824 242 797.5 c 128,-1,10
 231 771 231 771 199 732 c 0,11,12
 168 695 168 695 158 670 c 0,13,14
 139 623 139 623 98 614 c 0,15,16
 88 612 88 612 84 612 c 0,17,18
 58 612 58 612 54 658 c 0,19,20
 53 663 53 663 53 671 c 0,21,22
 53 715 53 715 115 785 c 0,23,24
 152 825 152 825 152 854 c 0,25,26
 152 895 152 895 84 895 c 0,27,28
 60 895 60 895 45 911 c 128,-1,29
 30 927 30 927 30 948 c 0,30,31
 30 980 30 980 60 991 c 0,0,1
EndSplineSet
EndChar

StartChar: leftcurl_below
Encoding: 87 57421 73
Width: 0
GlyphClass: 4
Flags: W
AnchorPoint: "mkmk_down" 219 -464 basemark 0
AnchorPoint: "mkmk_down" 170 -244 mark 0
AnchorPoint: "TehtaBelow" 170 -244 mark 0
LayerCount: 2
Fore
SplineSet
205 -375 m 4,0,1
 174 -390 174 -390 139 -393 c 4,2,3
 63 -400 63 -400 30 -363 c 4,4,5
 20 -353 20 -353 4.5 -316 c 132,-1,6
 -11 -279 -11 -279 -12 -262 c 4,7,8
 -13 -246 -13 -246 6.5 -220.5 c 132,-1,9
 26 -195 26 -195 40 -194 c 4,10,11
 57 -192 57 -192 78.5 -215 c 132,-1,12
 100 -238 100 -238 106 -264 c 4,13,14
 111 -282 111 -282 115.5 -288 c 132,-1,15
 120 -294 120 -294 129 -293 c 4,16,17
 139 -292 139 -292 151 -287 c 4,18,19
 167 -282 167 -282 190.5 -243 c 132,-1,20
 214 -204 214 -204 221 -173 c 4,21,22
 233 -122 233 -122 240.5 -106 c 132,-1,23
 248 -90 248 -90 262 -89 c 4,24,25
 289 -87 289 -87 306 -106 c 132,-1,26
 323 -125 323 -125 326 -159 c 4,27,28
 327 -174 327 -174 324 -196 c 4,29,30
 319 -221 319 -221 293.5 -272 c 132,-1,31
 268 -323 268 -323 250 -344 c 4,32,33
 237 -358 237 -358 205 -375 c 4,0,1
EndSplineSet
EndChar

StartChar: bar_above
Encoding: 88 57424 74
Width: 0
GlyphClass: 4
Flags: W
AnchorPoint: "mkmk_up" 281 655 mark 0
AnchorPoint: "mkmk_up" 281 826 basemark 0
AnchorPoint: "TehtaAbove" 281 655 mark 0
LayerCount: 2
Fore
SplineSet
94 732 m 4,0,1
 114 738 114 738 150 738 c 4,2,3
 200 738 200 738 261 727 c 4,4,5
 427 696 427 696 457 696 c 4,6,7
 475 696 475 696 502 705 c 4,8,9
 537 715 537 715 542 715 c 4,10,11
 550 715 550 715 558 706 c 4,12,13
 566 698 566 698 566 680 c 4,14,15
 566 645 566 645 543 624 c 4,16,17
 508 592 508 592 452 592 c 4,18,19
 404 592 404 592 324 611 c 4,20,21
 215 636 215 636 175 636 c 4,22,23
 145 636 145 636 114 623 c 4,24,25
 78 607 78 607 57 607 c 132,-1,26
 36 607 36 607 22.5 621 c 132,-1,27
 9 635 9 635 9 655 c 4,28,29
 9 669 9 669 17 685 c 4,30,31
 34 713 34 713 94 732 c 4,0,1
EndSplineSet
EndChar

StartChar: bar_below
Encoding: 89 57425 75
Width: 0
GlyphClass: 4
Flags: W
AnchorPoint: "mkmk_down" 310 -244 mark 0
AnchorPoint: "mkmk_down" 310 -366 basemark 0
AnchorPoint: "TehtaBelow" 310 -244 mark 0
LayerCount: 2
Fore
SplineSet
94 -178 m 0,0,1
 114 -172 114 -172 150 -172 c 0,2,3
 200 -172 200 -172 261 -183 c 0,4,5
 427 -214 427 -214 457 -214 c 0,6,7
 475 -214 475 -214 502 -205 c 0,8,9
 537 -195 537 -195 542 -195 c 0,10,11
 550 -195 550 -195 558 -204 c 0,12,13
 566 -212 566 -212 566 -230 c 0,14,15
 566 -265 566 -265 543 -286 c 0,16,17
 508 -318 508 -318 452 -318 c 0,18,19
 404 -318 404 -318 324 -299 c 0,20,21
 215 -274 215 -274 175 -274 c 0,22,23
 145 -274 145 -274 114 -287 c 0,24,25
 78 -303 78 -303 57 -303 c 128,-1,26
 36 -303 36 -303 22.5 -289 c 128,-1,27
 9 -275 9 -275 9 -255 c 0,28,29
 9 -241 9 -241 17 -225 c 0,30,31
 34 -197 34 -197 94 -178 c 0,0,1
EndSplineSet
Substitution2: "Single Substitution lookup 5 subtable" lambe_bar_below
Substitution2: "Single Substitution lookup 4 subtable" lambe_bar_below
Substitution2: "Single Substitution lookup 3 subtable" lambe_bar_below
Substitution2: "Single Substitution lookup 2 subtable" lambe_bar_below
EndChar

StartChar: tengwa_tilde
Encoding: 90 57426 76
Width: 0
GlyphClass: 4
Flags: W
AnchorPoint: "mkmk_up" 270 727 mark 0
AnchorPoint: "mkmk_up" 270 928 basemark 0
AnchorPoint: "TehtaAbove" 270 727 mark 0
LayerCount: 2
Fore
SplineSet
60 876 m 0,0,1
 75 887 75 887 83 887 c 0,2,3
 84 887 84 887 102 883 c 0,4,5
 131 876 131 876 134 795 c 0,6,7
 136 766 136 766 142 753.5 c 128,-1,8
 148 741 148 741 164 741 c 0,9,10
 185 741 185 741 253 772 c 0,11,12
 313 799 313 799 343 799 c 0,13,14
 371 799 371 799 400 780 c 0,15,16
 435 758 435 758 459 707.5 c 128,-1,17
 483 657 483 657 483 606 c 0,18,19
 483 576 483 576 476.5 566 c 128,-1,20
 470 556 470 556 447 551 c 0,21,22
 443 550 443 550 436 550 c 0,23,24
 396 550 396 550 386 614 c 0,25,26
 375 689 375 689 345 698 c 1,27,-1
 343 698 l 2,28,29
 341 699 341 699 340 699 c 0,30,31
 321 699 321 699 277 677 c 0,32,33
 208 642 208 642 168 642 c 0,34,35
 154 642 154 642 137 645 c 0,36,37
 90 652 90 652 60.5 691 c 128,-1,38
 31 730 31 730 31 785 c 0,39,40
 31 807 31 807 35 826 c 0,41,42
 43 864 43 864 60 876 c 0,0,1
EndSplineSet
EndChar

StartChar: tripledot_above_inverted
Encoding: 94 57430 77
Width: 0
GlyphClass: 4
Flags: W
AnchorPoint: "mkmk_up" 186 806 basemark 0
AnchorPoint: "mkmk_up" 186 635 mark 0
AnchorPoint: "TehtaAbove" 186 635 mark 0
LayerCount: 2
Fore
SplineSet
137 567 m 0,0,1
 166 542 166 542 167 542 c 0,2,3
 196 542 196 542 288 631.5 c 128,-1,4
 380 721 380 721 380 750 c 0,5,6
 380 768 380 768 366 781.5 c 128,-1,7
 352 795 352 795 334 795 c 0,8,9
 330 795 330 795 322 793 c 0,10,11
 305 790 305 790 267 746 c 0,12,13
 237 709 237 709 205 684 c 2,14,-1
 178 664 l 1,15,-1
 149 698 l 2,16,17
 59 805 59 805 21 805 c 0,18,19
 7 805 7 805 -8 792 c 0,20,21
 -22 780 -22 780 -22 767 c 0,22,23
 -22 743 -22 743 44 668 c 0,24,25
 118 586 118 586 137 567 c 0,0,1
EndSplineSet
EndChar

StartChar: thinnas
Encoding: 95 57431 78
Width: 0
GlyphClass: 4
Flags: W
AnchorPoint: "TehtaBelow" 264 14 mark 0
LayerCount: 2
Fore
SplineSet
232 169 m 4,0,1
 241 180 241 180 267 180 c 132,-1,2
 293 180 293 180 304 169 c 4,3,4
 316 157 316 157 315 57 c 4,5,6
 314 -110 314 -110 307 -138 c 4,7,8
 301 -161 301 -161 281 -164 c 4,9,10
 276 -165 276 -165 266 -165 c 6,11,-1
 257 -165 l 6,12,13
 226 -166 226 -166 218 -142 c 4,14,15
 206 -106 206 -106 208 -40 c 6,16,-1
 210 5 l 6,17,18
 213 68 213 68 215 92 c 4,19,20
 221 157 221 157 232 169 c 4,0,1
EndSplineSet
Ligature2: "Ligatures subtable" zwj aara
LCarets2: 1 0
EndChar

StartChar: sarince_end
Encoding: 96 57432 79
Width: 398
GlyphClass: 2
Flags: W
AnchorPoint: "TehtaBelow" 163 -247 basechar 0
AnchorPoint: "TehtaAbove" 155 230 basechar 0
AnchorPoint: "shook" 24 49 mark 0
LayerCount: 2
Fore
SplineSet
287 94 m 4,0,1
 314 73 314 73 332 43 c 4,2,3
 371 -22 371 -22 353 -68 c 4,4,5
 348 -81 348 -81 321.5 -111.5 c 132,-1,6
 295 -142 295 -142 281 -151 c 4,7,8
 267 -159 267 -159 235.5 -152.5 c 132,-1,9
 204 -146 204 -146 197 -134 c 4,10,11
 188 -119 188 -119 199 -89.5 c 132,-1,12
 210 -60 210 -60 231 -43 c 4,13,14
 245 -31 245 -31 248 -24.5 c 132,-1,15
 251 -18 251 -18 247 -10 c 4,16,17
 242 -1 242 -1 232 7 c 4,18,19
 220 19 220 19 175 23 c 132,-1,20
 130 27 130 27 98 19 c 4,21,22
 47 7 47 7 29.5 7 c 132,-1,23
 12 7 12 7 5 19 c 4,24,25
 -9 42 -9 42 1 66 c 132,-1,26
 11 90 11 90 40 108 c 4,27,28
 53 116 53 116 74 123 c 4,29,30
 98 129 98 129 155 128.5 c 132,-1,31
 212 128 212 128 239 121 c 4,32,33
 258 115 258 115 287 94 c 4,0,1
EndSplineSet
EndChar

StartChar: sarince_combine
Encoding: 97 57433 80
Width: 0
GlyphClass: 4
Flags: W
AnchorPoint: "mkmk_down" 185 -487 basemark 0
AnchorPoint: "mkmk_down" 258 -220 mark 0
AnchorPoint: "TehtaBelow" 258 -220 mark 0
LayerCount: 2
Fore
SplineSet
259 -442 m 0,0,1
 250 -445 250 -445 235 -445 c 0,2,3
 209 -445 209 -445 176.5 -437.5 c 128,-1,4
 144 -430 144 -430 128 -418 c 0,5,6
 94 -396 94 -396 80.5 -372 c 128,-1,7
 67 -348 67 -348 68 -310 c 0,8,9
 68 -273 68 -273 79.5 -246.5 c 128,-1,10
 91 -220 91 -220 123 -181 c 0,11,12
 154 -144 154 -144 165 -120 c 0,13,14
 185 -73 185 -73 226 -65 c 0,15,16
 236 -63 236 -63 240 -63 c 0,17,18
 266 -63 266 -63 269 -109 c 0,19,20
 270 -114 270 -114 270 -122 c 0,21,22
 269 -166 269 -166 207 -235 c 0,23,24
 170 -275 170 -275 169 -304 c 0,25,26
 169 -345 169 -345 236 -346 c 0,27,28
 260 -346 260 -346 275 -362 c 128,-1,29
 290 -378 290 -378 290 -399 c 0,30,31
 289 -431 289 -431 259 -442 c 0,0,1
EndSplineSet
EndChar

StartChar: tehta_dotinside
Encoding: 98 57434 81
Width: 190
GlyphClass: 4
Flags: W
AnchorPoint: "inside" 88 277 mark 0
LayerCount: 2
Fore
SplineSet
45 321 m 0,0,1
 62 339 62 339 88 339 c 0,2,3
 113 339 113 339 132 322 c 128,-1,4
 151 305 151 305 151 278 c 128,-1,5
 151 251 151 251 134 233 c 128,-1,6
 117 215 117 215 90 215 c 0,7,8
 62 215 62 215 44.5 233.5 c 128,-1,9
 27 252 27 252 27 277 c 0,10,11
 27 303 27 303 45 321 c 0,0,1
EndSplineSet
EndChar

StartChar: tehta_circumflex
Encoding: 99 57435 82
Width: 0
GlyphClass: 4
Flags: W
AnchorPoint: "mkmk_up" 157 989 basemark 0
AnchorPoint: "mkmk_up" 157 685 mark 0
AnchorPoint: "TehtaAbove" 157 685 mark 0
LayerCount: 2
Fore
SplineSet
107 863 m 4,0,1
 136 888 136 888 137 888 c 4,2,3
 166 888 166 888 258 798.5 c 132,-1,4
 350 709 350 709 350 680 c 4,5,6
 350 662 350 662 336 648.5 c 132,-1,7
 322 635 322 635 304 635 c 4,8,9
 300 635 300 635 292 637 c 4,10,11
 275 640 275 640 237 684 c 4,12,13
 207 721 207 721 175 746 c 6,14,-1
 148 766 l 5,15,-1
 119 732 l 6,16,17
 29 625 29 625 -9 625 c 4,18,19
 -23 625 -23 625 -38 638 c 4,20,21
 -52 650 -52 650 -52 663 c 4,22,23
 -52 687 -52 687 14 762 c 4,24,25
 88 844 88 844 107 863 c 4,0,1
EndSplineSet
EndChar

StartChar: tehta_caron
Encoding: 100 57436 83
Width: 0
GlyphClass: 4
Flags: W
AnchorPoint: "mkmk_up" 186 806 basemark 0
AnchorPoint: "mkmk_up" 186 635 mark 0
AnchorPoint: "TehtaAbove" 186 635 mark 0
LayerCount: 2
Fore
SplineSet
137 567 m 0,0,1
 166 542 166 542 167 542 c 0,2,3
 196 542 196 542 288 631.5 c 128,-1,4
 380 721 380 721 380 750 c 0,5,6
 380 768 380 768 366 781.5 c 128,-1,7
 352 795 352 795 334 795 c 0,8,9
 330 795 330 795 322 793 c 0,10,11
 305 790 305 790 267 746 c 0,12,13
 237 709 237 709 205 684 c 2,14,-1
 178 664 l 1,15,-1
 149 698 l 2,16,17
 59 805 59 805 21 805 c 0,18,19
 7 805 7 805 -8 792 c 0,20,21
 -22 780 -22 780 -22 767 c 0,22,23
 -22 743 -22 743 44 668 c 0,24,25
 118 586 118 586 137 567 c 0,0,1
EndSplineSet
EndChar

StartChar: pusta
Encoding: 101 57440 84
Width: 190
GlyphClass: 2
Flags: W
LayerCount: 2
Fore
SplineSet
45 321 m 4,0,1
 62 339 62 339 88 339 c 4,2,3
 113 339 113 339 132 322 c 132,-1,4
 151 305 151 305 151 278 c 132,-1,5
 151 251 151 251 134 233 c 132,-1,6
 117 215 117 215 90 215 c 4,7,8
 62 215 62 215 44.5 233.5 c 132,-1,9
 27 252 27 252 27 277 c 4,10,11
 27 303 27 303 45 321 c 4,0,1
EndSplineSet
EndChar

StartChar: pusta_double
Encoding: 102 57441 85
Width: 213
GlyphClass: 2
Flags: W
LayerCount: 2
Fore
SplineSet
54 508 m 0,0,1
 70 524 70 524 89 524 c 0,2,3
 111 524 111 524 129 505 c 128,-1,4
 147 486 147 486 152 455 c 0,5,6
 153 451 153 451 153 444 c 0,7,8
 153 420 153 420 137 402.5 c 128,-1,9
 121 385 121 385 98 385 c 0,10,11
 73 385 73 385 60 401 c 128,-1,12
 47 417 47 417 42 452 c 0,13,14
 40 472 40 472 40 475 c 0,15,16
 40 494 40 494 54 508 c 0,0,1
66 175 m 0,17,18
 85 191 85 191 103 191 c 0,19,20
 126 191 126 191 140.5 165.5 c 128,-1,21
 155 140 155 140 155 96 c 0,22,23
 155 70 155 70 151.5 59.5 c 128,-1,24
 148 49 148 49 138 42 c 0,25,26
 122 30 122 30 105 30 c 0,27,28
 87 30 87 30 70 44 c 0,29,30
 59 53 59 53 54.5 65.5 c 128,-1,31
 50 78 50 78 49 108 c 0,32,33
 48 121 48 121 48 139 c 0,34,35
 48 161 48 161 66 175 c 0,17,18
EndSplineSet
EndChar

StartChar: pusta_triple
Encoding: 103 57442 86
Width: 340
GlyphClass: 2
Flags: W
LayerCount: 2
Fore
SplineSet
156 670 m 0,0,1
 168 678 168 678 177 678 c 128,-1,2
 186 678 186 678 205 667 c 0,3,4
 238 650 238 650 238 614 c 0,5,6
 238 590 238 590 222 572.5 c 128,-1,7
 206 555 206 555 179 555 c 0,8,9
 153 555 153 555 137 570.5 c 128,-1,10
 121 586 121 586 121 612 c 0,11,12
 121 652 121 652 156 670 c 0,0,1
141 353 m 0,13,14
 160 369 160 369 181 369 c 0,15,16
 204 369 204 369 221 351 c 0,17,18
 237 335 237 335 237 309 c 0,19,20
 237 278 237 278 212 259 c 0,21,22
 197 248 197 248 180 248 c 0,23,24
 156 248 156 248 138 267.5 c 128,-1,25
 120 287 120 287 120 311 c 0,26,27
 120 336 120 336 141 353 c 0,13,14
136 45 m 0,28,29
 152 61 152 61 175 61 c 0,30,31
 199 61 199 61 218 43.5 c 128,-1,32
 237 26 237 26 237 1 c 128,-1,33
 237 -24 237 -24 219.5 -40 c 128,-1,34
 202 -56 202 -56 179 -56 c 0,35,36
 157 -56 157 -56 139 -41 c 128,-1,37
 121 -26 121 -26 121 4 c 0,38,39
 121 30 121 30 136 45 c 0,28,29
EndSplineSet
EndChar

StartChar: tengwa_exclamation
Encoding: 106 57445 87
Width: 422
GlyphClass: 2
Flags: W
LayerCount: 2
Fore
SplineSet
137 752 m 0,0,1
 163 761 163 761 185 761 c 0,2,3
 237 761 237 761 237 718 c 0,4,5
 237 699 237 699 224 686.5 c 128,-1,6
 211 674 211 674 174 657 c 0,7,8
 150 646 150 646 143.5 639 c 128,-1,9
 137 632 137 632 137 618 c 128,-1,10
 137 604 137 604 147.5 590.5 c 128,-1,11
 158 577 158 577 193 549 c 0,12,13
 248 503 248 503 258.5 488 c 128,-1,14
 269 473 269 473 273 434 c 0,15,16
 274 425 274 425 274 411 c 0,17,18
 274 384 274 384 251 346 c 0,19,20
 229 311 229 311 187.5 278.5 c 128,-1,21
 146 246 146 246 123 246 c 0,22,23
 103 246 103 246 89 259.5 c 128,-1,24
 75 273 75 273 75 293 c 0,25,26
 75 316 75 316 103 336 c 0,27,28
 174 389 174 389 174 417 c 0,29,30
 174 440 174 440 125 474 c 0,31,32
 30 543 30 543 30 623 c 0,33,34
 30 647 30 647 38 664 c 0,35,36
 48 688 48 688 78 715 c 128,-1,37
 108 742 108 742 137 752 c 0,0,1
EndSplineSet
EndChar

StartChar: tengwa_question
Encoding: 107 57446 88
Width: 546
GlyphClass: 2
Flags: W
LayerCount: 2
Fore
SplineSet
278 399 m 4,0,1
 259 408 259 408 221 415 c 132,-1,2
 183 422 183 422 158 422 c 4,3,4
 138 422 138 422 135 417 c 4,5,6
 130 408 130 408 125 313 c 4,7,8
 123 285 123 285 123 246 c 4,9,10
 123 208 123 208 128 199 c 4,11,12
 153 152 153 152 230 152 c 4,13,14
 269 152 269 152 303.5 167 c 132,-1,15
 338 182 338 182 356 209 c 4,16,17
 369 229 369 229 369 267 c 4,18,19
 369 311 369 311 353 337 c 4,20,21
 339 360 339 360 325.5 371 c 132,-1,22
 312 382 312 382 278 399 c 4,0,1
288 708 m 4,23,24
 272 708 272 708 248 712 c 4,25,26
 243 713 243 713 232 713 c 4,27,28
 203 713 203 713 177 701 c 132,-1,29
 151 689 151 689 144 672 c 4,30,31
 137 654 137 654 137 579 c 6,32,-1
 137 506 l 5,33,-1
 159 510 l 6,34,35
 197 518 197 518 250.5 533 c 132,-1,36
 304 548 304 548 319 555 c 4,37,38
 361 574 361 574 361 630 c 4,39,40
 361 657 361 657 333 682 c 4,41,42
 307 708 307 708 288 708 c 4,23,24
59 820 m 4,43,44
 69 822 69 822 75 822 c 4,45,46
 112 822 112 822 125 804 c 4,47,48
 131 795 131 795 139 795 c 4,49,50
 145 795 145 795 172 804 c 4,51,52
 208 816 208 816 238 816 c 4,53,54
 267 816 267 816 303 806 c 4,55,56
 423 774 423 774 451 678 c 4,57,58
 458 654 458 654 458 626 c 4,59,60
 458 583 458 583 440.5 545 c 132,-1,61
 423 507 423 507 395 490 c 4,62,63
 369 474 369 474 369 470 c 4,64,65
 369 464 369 464 404 436 c 4,66,67
 439 407 439 407 455 374 c 4,68,69
 476 332 476 332 476 282 c 4,70,71
 476 211 476 211 438 156 c 4,72,73
 404 105 404 105 352.5 77 c 132,-1,74
 301 49 301 49 243 49 c 4,75,76
 222 49 222 49 194 54 c 4,77,78
 151 62 151 62 138 70 c 5,79,-1
 137 70 l 6,80,81
 136 71 136 71 135 71 c 4,82,83
 127 71 127 71 115 51 c 4,84,85
 97 20 97 20 65 20 c 132,-1,86
 33 20 33 20 21 51 c 4,87,88
 15 65 15 65 15 97 c 4,89,90
 15 119 15 119 20 196 c 4,91,92
 29 317 29 317 29 548 c 4,93,94
 29 724 29 724 34 769 c 132,-1,95
 39 814 39 814 59 820 c 4,43,44
EndSplineSet
EndChar

StartChar: tengwa_parenthesis
Encoding: 108 57447 89
Width: 450
GlyphClass: 2
Flags: W
LayerCount: 2
Fore
SplineSet
51 890 m 0,0,1
 67 911 67 911 80 911 c 0,2,3
 93 910 93 910 109.5 896 c 128,-1,4
 126 882 126 882 131 868 c 0,5,6
 143 835 143 835 158 210 c 0,7,8
 163 -31 163 -31 168 -36 c 0,9,10
 169 -38 169 -38 172 -29 c 0,11,12
 176 -16 176 -16 181 8 c 0,13,14
 188 48 188 48 198 84 c 0,15,16
 201 96 201 96 201 136 c 0,17,18
 201 224 201 224 182 540 c 0,19,20
 175 638 175 638 175 774 c 0,21,22
 175 847 175 847 177.5 866 c 128,-1,23
 180 885 180 885 190 895 c 0,24,25
 205 910 205 910 224 910 c 0,26,27
 256 910 256 910 270 876 c 0,28,29
 286 837 286 837 295 288 c 2,30,-1
 300 33 l 1,31,-1
 280 -10 l 2,32,33
 264 -47 264 -47 238.5 -78.5 c 128,-1,34
 213 -110 213 -110 199 -110 c 0,35,36
 186 -110 186 -110 173 -97 c 0,37,38
 163 -89 163 -89 162 -89 c 0,39,40
 159 -89 159 -89 159 -106 c 0,41,42
 159 -157 159 -157 120.5 -230 c 128,-1,43
 82 -303 82 -303 55 -303 c 0,44,45
 31 -303 31 -303 31 -253 c 0,46,47
 31 -231 31 -231 35 -210 c 0,48,49
 57 -89 57 -89 59 -34 c 2,50,-1
 59 -1 l 2,51,52
 59 66 59 66 50 285 c 0,53,54
 42 471 42 471 38 687 c 0,55,56
 36 797 36 797 36 807 c 0,57,58
 36 837 36 837 37.5 853 c 128,-1,59
 39 869 39 869 42 875 c 128,-1,60
 45 881 45 881 51 890 c 0,0,1
EndSplineSet
EndChar

StartChar: tengwa_section
Encoding: 109 57448 90
Width: 463
GlyphClass: 2
Flags: W
LayerCount: 2
Fore
SplineSet
56 321 m 4,0,1
 88 331 88 331 211 331 c 4,2,3
 323 331 323 331 332 322 c 4,4,5
 342 312 342 312 342 287 c 4,6,7
 342 259 342 259 314 251.5 c 132,-1,8
 286 244 286 244 176 240 c 4,9,10
 104 238 104 238 95 238 c 4,11,12
 66 238 66 238 55.5 241 c 132,-1,13
 45 244 45 244 38 252 c 4,14,15
 26 264 26 264 26 284 c 6,16,-1
 26 290 l 6,17,18
 27 303 27 303 33.5 309.5 c 132,-1,19
 40 316 40 316 56 321 c 4,0,1
EndSplineSet
EndChar

StartChar: tengwa_section_double
Encoding: 110 57449 91
Width: 484
GlyphClass: 2
Flags: W
LayerCount: 2
Fore
SplineSet
55 565 m 0,0,1
 69 568 69 568 227 570 c 2,2,-1
 290 570 l 2,3,4
 353 570 353 570 371.5 567 c 128,-1,5
 390 564 390 564 399 555 c 0,6,7
 414 540 414 540 414 525 c 128,-1,8
 414 510 414 510 400 493 c 0,9,10
 389 479 389 479 366.5 476.5 c 128,-1,11
 344 474 344 474 225 472 c 0,12,13
 210 472 210 472 186 471.5 c 128,-1,14
 162 471 162 471 152 471 c 0,15,16
 95 471 95 471 69 475.5 c 128,-1,17
 43 480 43 480 35.5 489 c 128,-1,18
 28 498 28 498 28 519 c 0,19,20
 28 541 28 541 34 551 c 128,-1,21
 40 561 40 561 55 565 c 0,0,1
74 421 m 0,22,23
 111 430 111 430 200 430 c 0,24,25
 373 430 373 430 392 411 c 0,26,27
 400 403 400 403 400 368 c 0,28,29
 400 345 400 345 395 340 c 0,30,31
 384 329 384 329 167 329 c 0,32,33
 72 329 72 329 60 334 c 0,34,35
 29 347 29 347 29 371 c 0,36,37
 29 376 29 376 33 390 c 0,38,39
 39 412 39 412 74 421 c 0,22,23
EndSplineSet
EndChar

StartChar: tengwa_quotation_up
Encoding: 111 57450 92
Width: 470
GlyphClass: 2
Flags: W
LayerCount: 2
Fore
SplineSet
116 847 m 0,0,1
 163 894 163 894 183 894 c 0,2,3
 196 894 196 894 208 880 c 0,4,5
 222 866 222 866 222 846 c 0,6,7
 222 815 222 815 183 776 c 0,8,9
 140 731 140 731 120 700 c 0,10,11
 96 664 96 664 76 656 c 0,12,13
 67 653 67 653 58 653 c 0,14,15
 43 653 43 653 30.5 660 c 128,-1,16
 18 667 18 667 17 677 c 2,17,-1
 17 687 l 2,18,19
 17 721 17 721 39 756 c 128,-1,20
 61 791 61 791 116 847 c 0,0,1
286 849 m 0,21,22
 320 880 320 880 348 880 c 0,23,24
 384 880 384 880 384 835 c 0,25,26
 384 819 384 819 376 805.5 c 128,-1,27
 368 792 368 792 345 769 c 0,28,29
 308 730 308 730 283 692 c 0,30,31
 259 656 259 656 239 648 c 0,32,33
 230 644 230 644 219 644 c 0,34,35
 201 644 201 644 189 656 c 128,-1,36
 177 668 177 668 177 687 c 0,37,38
 177 696 177 696 180 705 c 0,39,40
 186 726 186 726 221 774 c 128,-1,41
 256 822 256 822 286 849 c 0,21,22
EndSplineSet
EndChar

StartChar: tengwa_quotation_down
Encoding: 112 57451 93
Width: 488
GlyphClass: 2
Flags: W
LayerCount: 2
Fore
SplineSet
134 -83 m 0,0,1
 181 -36 181 -36 201 -36 c 0,2,3
 214 -36 214 -36 226 -50 c 0,4,5
 240 -64 240 -64 240 -84 c 0,6,7
 240 -115 240 -115 201 -154 c 0,8,9
 158 -199 158 -199 138 -230 c 0,10,11
 114 -266 114 -266 94 -274 c 0,12,13
 85 -277 85 -277 76 -277 c 0,14,15
 61 -277 61 -277 48.5 -270 c 128,-1,16
 36 -263 36 -263 35 -253 c 2,17,-1
 35 -243 l 2,18,19
 35 -209 35 -209 57 -174 c 128,-1,20
 79 -139 79 -139 134 -83 c 0,0,1
304 -81 m 0,21,22
 338 -50 338 -50 366 -50 c 0,23,24
 402 -50 402 -50 402 -95 c 0,25,26
 402 -111 402 -111 394 -124.5 c 128,-1,27
 386 -138 386 -138 363 -161 c 0,28,29
 326 -200 326 -200 301 -238 c 0,30,31
 277 -274 277 -274 257 -282 c 0,32,33
 248 -286 248 -286 237 -286 c 0,34,35
 219 -286 219 -286 207 -274 c 128,-1,36
 195 -262 195 -262 195 -243 c 0,37,38
 195 -234 195 -234 198 -225 c 0,39,40
 204 -204 204 -204 239 -156 c 128,-1,41
 274 -108 274 -108 304 -81 c 0,21,22
EndSplineSet
EndChar

StartChar: digit_zero
Encoding: 114 57456 94
Width: 513
GlyphClass: 2
Flags: W
AnchorPoint: "TehtaAbove" 228 688 basechar 0
AnchorPoint: "TehtaBelow" 248 -122 basechar 0
AnchorPoint: "shook" 267 47 basechar 0
AnchorPoint: "inside" 210 250 basechar 0
LayerCount: 2
Fore
SplineSet
255 1 m 0,0,1
 243 -2 243 -2 225 -2 c 0,2,3
 153 -2 153 -2 102 22 c 0,4,5
 35 52 35 52 35 88 c 0,6,7
 35 100 35 100 45 118 c 0,8,9
 60 143 60 143 86 143 c 0,10,11
 97 143 97 143 102 135 c 0,12,13
 109 124 109 124 146.5 109.5 c 128,-1,14
 184 95 184 95 206 95 c 0,15,16
 255 95 255 95 298 159 c 0,17,18
 353 241 353 241 353 314 c 0,19,20
 353 396 353 396 286 429 c 0,21,22
 254 445 254 445 222 445 c 0,23,24
 184 445 184 445 130 420 c 0,25,26
 82 398 82 398 72 398 c 0,27,28
 65 398 65 398 53 405 c 0,29,30
 29 418 29 418 29 445 c 0,31,32
 29 466 29 466 47 483 c 0,33,34
 78 511 78 511 128.5 527.5 c 128,-1,35
 179 544 179 544 230 544 c 0,36,37
 273 544 273 544 303 533 c 0,38,39
 338 521 338 521 375 485.5 c 128,-1,40
 412 450 412 450 428 414 c 0,41,42
 447 372 447 372 447 312 c 0,43,44
 447 257 447 257 430 208 c 0,45,46
 404 134 404 134 352.5 73 c 128,-1,47
 301 12 301 12 255 1 c 0,0,1
EndSplineSet
EndChar

StartChar: digit_one
Encoding: 115 57457 95
Width: 669
GlyphClass: 2
Flags: W
AnchorPoint: "shook" 553 91 basechar 0
AnchorPoint: "TehtaBelow" 400 -86 basechar 0
AnchorPoint: "TehtaAbove" 331 688 basechar 0
AnchorPoint: "inside" 437 247 basechar 0
LayerCount: 2
Fore
SplineSet
501 380 m 0,0,1
 481 374 481 374 445 374 c 0,2,3
 395 374 395 374 334 385 c 0,4,5
 168 416 168 416 138 416 c 0,6,7
 120 416 120 416 93 407 c 0,8,9
 58 397 58 397 53 397 c 0,10,11
 45 397 45 397 37 406 c 0,12,13
 29 414 29 414 29 432 c 0,14,15
 29 467 29 467 52 488 c 0,16,17
 87 520 87 520 143 520 c 0,18,19
 191 520 191 520 271 501 c 0,20,21
 380 476 380 476 420 476 c 0,22,23
 450 476 450 476 481 489 c 0,24,25
 517 505 517 505 538 505 c 128,-1,26
 559 505 559 505 572.5 491 c 128,-1,27
 586 477 586 477 586 457 c 0,28,29
 586 443 586 443 578 427 c 0,30,31
 561 399 561 399 501 380 c 0,0,1
370 541 m 0,32,33
 382 544 382 544 400 544 c 0,34,35
 472 544 472 544 523 520 c 0,36,37
 590 490 590 490 590 454 c 0,38,39
 590 442 590 442 580 424 c 0,40,41
 565 399 565 399 539 399 c 0,42,43
 528 399 528 399 523 407 c 0,44,45
 516 418 516 418 478.5 432.5 c 128,-1,46
 441 447 441 447 419 447 c 0,47,48
 370 447 370 447 327 383 c 0,49,50
 272 301 272 301 272 228 c 0,51,52
 272 146 272 146 339 113 c 0,53,54
 371 97 371 97 403 97 c 0,55,56
 441 97 441 97 495 122 c 0,57,58
 543 144 543 144 553 144 c 0,59,60
 560 144 560 144 572 137 c 0,61,62
 596 124 596 124 596 97 c 0,63,64
 596 76 596 76 578 59 c 0,65,66
 547 31 547 31 496.5 14.5 c 128,-1,67
 446 -2 446 -2 395 -2 c 0,68,69
 352 -2 352 -2 322 9 c 0,70,71
 287 21 287 21 250 56.5 c 128,-1,72
 213 92 213 92 197 128 c 0,73,74
 178 170 178 170 178 230 c 0,75,76
 178 285 178 285 195 334 c 0,77,78
 221 408 221 408 272.5 469 c 128,-1,79
 324 530 324 530 370 541 c 0,32,33
EndSplineSet
EndChar

StartChar: digit_two
Encoding: 116 57458 96
Width: 765
GlyphClass: 2
Flags: W
AnchorPoint: "inside" 566 292 basechar 0
AnchorPoint: "shook" 695 89 basechar 0
AnchorPoint: "TehtaBelow" 296 -58 basechar 0
AnchorPoint: "TehtaAbove" 332 656 basechar 0
LayerCount: 2
Fore
SplineSet
60 521 m 0,0,1
 88 530 88 530 215 531 c 0,2,3
 505 533 505 533 516 522 c 0,4,5
 526 512 526 512 526 487 c 0,6,7
 526 458 526 458 498 452 c 0,8,9
 413 436 413 436 180 440 c 0,10,11
 132 441 132 441 99 438 c 0,12,13
 76 436 76 436 60 441 c 0,14,15
 50 444 50 444 42 452 c 0,16,17
 30 464 30 464 30 484 c 2,18,-1
 30 490 l 2,19,20
 30 502 30 502 38 510 c 0,21,22
 44 516 44 516 60 521 c 0,0,1
132 521 m 0,23,24
 141 532 141 532 167 532 c 128,-1,25
 193 532 193 532 204 521 c 128,-1,26
 215 510 215 510 215 287 c 0,27,28
 214 90 214 90 207 62 c 0,29,30
 201 39 201 39 181 36 c 0,31,32
 176 35 176 35 166 35 c 2,33,-1
 157 35 l 2,34,35
 125 35 125 35 117.5 60.5 c 128,-1,36
 110 86 110 86 108 190 c 2,37,-1
 108 235 l 2,38,39
 108 334 108 334 115 422 c 128,-1,40
 122 510 122 510 132 521 c 0,23,24
521 541 m 0,41,42
 533 544 533 544 551 544 c 0,43,44
 623 544 623 544 674 520 c 0,45,46
 741 490 741 490 741 454 c 0,47,48
 741 442 741 442 731 424 c 0,49,50
 716 399 716 399 690 399 c 0,51,52
 679 399 679 399 674 407 c 0,53,54
 667 418 667 418 629.5 432.5 c 128,-1,55
 592 447 592 447 570 447 c 0,56,57
 521 447 521 447 478 383 c 0,58,59
 423 301 423 301 423 228 c 0,60,61
 423 146 423 146 490 113 c 0,62,63
 522 97 522 97 554 97 c 0,64,65
 592 97 592 97 646 122 c 0,66,67
 694 144 694 144 704 144 c 0,68,69
 711 144 711 144 723 137 c 0,70,71
 747 124 747 124 747 97 c 0,72,73
 747 76 747 76 729 59 c 0,74,75
 698 31 698 31 647.5 14.5 c 128,-1,76
 597 -2 597 -2 546 -2 c 0,77,78
 503 -2 503 -2 473 9 c 0,79,80
 438 21 438 21 401 56.5 c 128,-1,81
 364 92 364 92 348 128 c 0,82,83
 329 170 329 170 329 230 c 0,84,85
 329 285 329 285 346 334 c 0,86,87
 372 408 372 408 423.5 469 c 128,-1,88
 475 530 475 530 521 541 c 0,41,42
EndSplineSet
EndChar

StartChar: digit_three
Encoding: 117 57459 97
Width: 1024
GlyphClass: 2
Flags: W
AnchorPoint: "inside" 803 292 basechar 0
AnchorPoint: "shook" 932 89 basechar 0
AnchorPoint: "TehtaBelow" 447 -84 basechar 0
AnchorPoint: "TehtaAbove" 437 670 basechar 0
LayerCount: 2
Fore
SplineSet
153 521 m 0,0,1
 162 532 162 532 188 532 c 128,-1,2
 214 532 214 532 225 521 c 128,-1,3
 236 510 236 510 236 287 c 0,4,5
 235 90 235 90 228 62 c 0,6,7
 222 39 222 39 202 36 c 0,8,9
 197 35 197 35 187 35 c 2,10,-1
 178 35 l 2,11,12
 146 35 146 35 138.5 60.5 c 128,-1,13
 131 86 131 86 129 190 c 2,14,-1
 129 235 l 2,15,16
 129 334 129 334 136 422 c 128,-1,17
 143 510 143 510 153 521 c 0,0,1
57 521 m 0,18,19
 81 529 81 529 452 531 c 0,20,21
 742 533 742 533 753 522 c 0,22,23
 763 512 763 512 763 487 c 0,24,25
 763 458 763 458 735 452 c 0,26,27
 667 440 667 440 417 440 c 0,28,29
 131 441 131 441 96 438 c 0,30,31
 72 436 72 436 56 441 c 0,32,33
 46 444 46 444 39 452 c 0,34,35
 27 464 27 464 27 484 c 2,36,-1
 27 490 l 2,37,38
 26 502 26 502 34 510 c 0,39,40
 40 516 40 516 57 521 c 0,18,19
369 521 m 0,41,42
 378 532 378 532 404 532 c 128,-1,43
 430 532 430 532 441 521 c 128,-1,44
 452 510 452 510 452 287 c 0,45,46
 451 90 451 90 444 62 c 0,47,48
 438 39 438 39 418 36 c 0,49,50
 413 35 413 35 403 35 c 2,51,-1
 394 35 l 2,52,53
 362 35 362 35 354.5 60.5 c 128,-1,54
 347 86 347 86 345 190 c 2,55,-1
 345 235 l 2,56,57
 345 334 345 334 352 422 c 128,-1,58
 359 510 359 510 369 521 c 0,41,42
758 541 m 0,59,60
 770 544 770 544 788 544 c 0,61,62
 860 544 860 544 911 520 c 0,63,64
 978 490 978 490 978 454 c 0,65,66
 978 442 978 442 968 424 c 0,67,68
 953 399 953 399 927 399 c 0,69,70
 916 399 916 399 911 407 c 0,71,72
 904 418 904 418 866.5 432.5 c 128,-1,73
 829 447 829 447 807 447 c 0,74,75
 758 447 758 447 715 383 c 0,76,77
 660 301 660 301 660 228 c 0,78,79
 660 146 660 146 727 113 c 0,80,81
 759 97 759 97 791 97 c 0,82,83
 829 97 829 97 883 122 c 0,84,85
 931 144 931 144 941 144 c 0,86,87
 948 144 948 144 960 137 c 0,88,89
 984 124 984 124 984 97 c 0,90,91
 984 76 984 76 966 59 c 0,92,93
 935 31 935 31 884.5 14.5 c 128,-1,94
 834 -2 834 -2 783 -2 c 0,95,96
 740 -2 740 -2 710 9 c 0,97,98
 675 21 675 21 638 56.5 c 128,-1,99
 601 92 601 92 585 128 c 0,100,101
 566 170 566 170 566 230 c 0,102,103
 566 285 566 285 583 334 c 0,104,105
 609 408 609 408 660.5 469 c 128,-1,106
 712 530 712 530 758 541 c 0,59,60
EndSplineSet
EndChar

StartChar: digit_four
Encoding: 118 57460 98
Width: 465
GlyphClass: 2
Flags: W
AnchorPoint: "TehtaBelow" 285 -318 basechar 0
AnchorPoint: "TehtaAbove" 351 625 basechar 0
AnchorPoint: "shook" 508 -97 basechar 0
AnchorPoint: "inside" 316 33 basechar 0
LayerCount: 2
Fore
SplineSet
206 806 m 0,0,1
 216 792 216 792 216 739 c 0,2,3
 216 697 216 697 215 665 c 0,4,5
 211 545 211 545 202.5 274.5 c 128,-1,6
 194 4 194 4 189 -16 c 0,7,8
 188 -20 188 -20 188 -30 c 0,9,10
 188 -51 188 -51 192 -63 c 0,11,12
 222 -153 222 -153 222 -191 c 0,13,14
 222 -217 222 -217 198 -217 c 0,15,16
 179 -217 179 -217 150.5 -191.5 c 128,-1,17
 122 -166 122 -166 107 -136 c 0,18,19
 97 -117 97 -117 94 -97.5 c 128,-1,20
 91 -78 91 -78 91 -23 c 0,21,22
 91 -13 91 -13 91.5 16 c 128,-1,23
 92 45 92 45 92 65 c 0,24,25
 92 183 92 183 95 301 c 0,26,27
 95 473 95 473 108 674 c 0,28,29
 114 776 114 776 122 793 c 0,30,31
 136 825 136 825 172 826 c 0,32,33
 192 826 192 826 206 806 c 0,0,1
230 -112 m 0,34,35
 270 -142 270 -142 311 -142 c 0,36,37
 362 -142 362 -142 429 -89 c 0,38,39
 477 -51 477 -51 502 -51 c 0,40,41
 512 -51 512 -51 525 -56 c 128,-1,42
 538 -61 538 -61 542 -68 c 128,-1,43
 546 -75 546 -75 546 -92 c 128,-1,44
 546 -109 546 -109 540 -120.5 c 128,-1,45
 534 -132 534 -132 514 -151 c 0,46,47
 466 -192 466 -192 434 -210 c 0,48,49
 402 -230 402 -230 384.5 -234.5 c 128,-1,50
 367 -239 367 -239 317 -241 c 0,51,52
 310 -241 310 -241 297.5 -241.5 c 128,-1,53
 285 -242 285 -242 280 -242 c 0,54,55
 242 -242 242 -242 209 -227 c 0,56,57
 151 -199 151 -199 124.5 -162.5 c 128,-1,58
 98 -126 98 -126 98 -73 c 0,59,60
 98 -70 98 -70 98.5 -65 c 128,-1,61
 99 -60 99 -60 99 -57 c 0,62,63
 103 8 103 8 122 59 c 0,64,65
 134 93 134 93 142 71 c 1,66,67
 151 36 151 36 156.5 18.5 c 128,-1,68
 162 1 162 1 173 -28 c 128,-1,69
 184 -57 184 -57 197.5 -77 c 128,-1,70
 211 -97 211 -97 230 -112 c 0,34,35
EndSplineSet
EndChar

StartChar: digit_five
Encoding: 119 57461 99
Width: 791
GlyphClass: 2
Flags: W
AnchorPoint: "inside" 540 254 basechar 0
AnchorPoint: "shook" 654 86 basechar 0
AnchorPoint: "TehtaAbove" 360 643 basechar 0
AnchorPoint: "TehtaBelow" 387 -244 basechar 0
LayerCount: 2
Fore
SplineSet
160 521 m 0,0,1
 192 531 192 531 395 531 c 0,2,3
 507 531 507 531 516 522 c 0,4,5
 526 512 526 512 526 487 c 0,6,7
 526 459 526 459 498 451.5 c 128,-1,8
 470 444 470 444 360 440 c 0,9,10
 288 438 288 438 199 438 c 0,11,12
 170 438 170 438 159.5 441 c 128,-1,13
 149 444 149 444 142 452 c 0,14,15
 130 464 130 464 130 484 c 2,16,-1
 130 490 l 2,17,18
 131 503 131 503 137.5 509.5 c 128,-1,19
 144 516 144 516 160 521 c 0,0,1
481 541 m 0,20,21
 493 544 493 544 511 544 c 0,22,23
 583 544 583 544 634 520 c 0,24,25
 701 490 701 490 701 454 c 0,26,27
 701 442 701 442 691 424 c 0,28,29
 676 399 676 399 650 399 c 0,30,31
 639 399 639 399 634 407 c 0,32,33
 627 418 627 418 589.5 432.5 c 128,-1,34
 552 447 552 447 530 447 c 0,35,36
 481 447 481 447 438 383 c 0,37,38
 383 301 383 301 383 228 c 0,39,40
 383 146 383 146 450 113 c 0,41,42
 482 97 482 97 514 97 c 0,43,44
 552 97 552 97 606 122 c 0,45,46
 654 144 654 144 664 144 c 0,47,48
 671 144 671 144 683 137 c 0,49,50
 707 124 707 124 707 97 c 0,51,52
 707 76 707 76 689 59 c 0,53,54
 658 31 658 31 607.5 14.5 c 128,-1,55
 557 -2 557 -2 506 -2 c 0,56,57
 463 -2 463 -2 433 9 c 0,58,59
 398 21 398 21 361 56.5 c 128,-1,60
 324 92 324 92 308 128 c 0,61,62
 289 170 289 170 289 230 c 0,63,64
 289 285 289 285 306 334 c 0,65,66
 332 408 332 408 383.5 469 c 128,-1,67
 435 530 435 530 481 541 c 0,20,21
171 876 m 0,68,69
 181 862 181 862 181 809 c 0,70,71
 181 767 181 767 180 735 c 0,72,73
 176 615 176 615 167.5 344.5 c 128,-1,74
 159 74 159 74 154 54 c 0,75,76
 153 50 153 50 153 40 c 0,77,78
 153 19 153 19 157 7 c 0,79,80
 187 -83 187 -83 187 -121 c 0,81,82
 187 -147 187 -147 163 -147 c 0,83,84
 144 -147 144 -147 115.5 -121.5 c 128,-1,85
 87 -96 87 -96 72 -66 c 0,86,87
 62 -47 62 -47 59 -27.5 c 128,-1,88
 56 -8 56 -8 56 47 c 0,89,90
 56 57 56 57 56.5 86 c 128,-1,91
 57 115 57 115 57 135 c 0,92,93
 57 253 57 253 60 371 c 0,94,95
 60 543 60 543 73 744 c 0,96,97
 79 846 79 846 86 863 c 0,98,99
 100 895 100 895 137 896 c 0,100,101
 157 896 157 896 171 876 c 0,68,69
195 -42 m 0,102,103
 235 -72 235 -72 276 -72 c 0,104,105
 327 -72 327 -72 394 -19 c 0,106,107
 442 19 442 19 467 19 c 0,108,109
 477 19 477 19 490 14 c 128,-1,110
 503 9 503 9 507 2 c 128,-1,111
 511 -5 511 -5 511 -22 c 128,-1,112
 511 -39 511 -39 505 -50.5 c 128,-1,113
 499 -62 499 -62 479 -81 c 0,114,115
 431 -122 431 -122 399 -140 c 0,116,117
 367 -160 367 -160 349.5 -164.5 c 128,-1,118
 332 -169 332 -169 282 -171 c 0,119,120
 275 -171 275 -171 262 -171.5 c 128,-1,121
 249 -172 249 -172 245 -172 c 0,122,123
 207 -172 207 -172 174 -157 c 0,124,125
 116 -129 116 -129 89.5 -92.5 c 128,-1,126
 63 -56 63 -56 63 -3 c 0,127,128
 63 0 63 0 63.5 5 c 128,-1,129
 64 10 64 10 64 13 c 0,130,131
 68 78 68 78 87 129 c 0,132,133
 99 163 99 163 107 141 c 0,134,135
 116 106 116 106 121.5 88.5 c 128,-1,136
 127 71 127 71 137.5 42 c 128,-1,137
 148 13 148 13 162 -7 c 128,-1,138
 176 -27 176 -27 195 -42 c 0,102,103
EndSplineSet
EndChar

StartChar: digit_six
Encoding: 120 57462 100
Width: 1022
GlyphClass: 2
Flags: W
AnchorPoint: "inside" 738 252 basechar 0
AnchorPoint: "shook" 876 88 basechar 0
AnchorPoint: "TehtaAbove" 463 663 basechar 0
AnchorPoint: "TehtaBelow" 669 -117 basechar 0
LayerCount: 2
Fore
SplineSet
120 521 m 0,0,1
 145 529 145 529 395 531 c 0,2,3
 685 533 685 533 696 522 c 0,4,5
 706 512 706 512 706 487 c 0,6,7
 706 458 706 458 678 452 c 0,8,9
 593 437 593 437 360 440 c 0,10,11
 337 441 337 441 255.5 440 c 128,-1,12
 174 439 174 439 159 438 c 0,13,14
 136 436 136 436 120 441 c 0,15,16
 110 444 110 444 102 452 c 0,17,18
 90 464 90 464 90 484 c 2,19,-1
 90 490 l 2,20,21
 90 502 90 502 98 510 c 0,22,23
 104 516 104 516 120 521 c 0,0,1
312 521 m 0,24,25
 321 532 321 532 347 532 c 128,-1,26
 373 532 373 532 384 521 c 128,-1,27
 395 510 395 510 395 287 c 0,28,29
 394 90 394 90 387 62 c 0,30,31
 381 39 381 39 361 36 c 0,32,33
 356 35 356 35 346 35 c 2,34,-1
 337 35 l 2,35,36
 305 35 305 35 297.5 60.5 c 128,-1,37
 290 86 290 86 288 190 c 2,38,-1
 288 235 l 2,39,40
 288 334 288 334 295 422 c 128,-1,41
 302 510 302 510 312 521 c 0,24,25
701 541 m 0,42,43
 713 544 713 544 731 544 c 0,44,45
 803 544 803 544 854 520 c 0,46,47
 921 490 921 490 921 454 c 0,48,49
 921 442 921 442 911 424 c 0,50,51
 896 399 896 399 870 399 c 0,52,53
 859 399 859 399 854 407 c 0,54,55
 847 418 847 418 809.5 432.5 c 128,-1,56
 772 447 772 447 750 447 c 0,57,58
 701 447 701 447 658 383 c 0,59,60
 603 301 603 301 603 228 c 0,61,62
 603 146 603 146 670 113 c 0,63,64
 702 97 702 97 734 97 c 0,65,66
 772 97 772 97 826 122 c 0,67,68
 874 144 874 144 884 144 c 0,69,70
 891 144 891 144 903 137 c 0,71,72
 927 124 927 124 927 97 c 0,73,74
 927 76 927 76 909 59 c 0,75,76
 878 31 878 31 827.5 14.5 c 128,-1,77
 777 -2 777 -2 726 -2 c 0,78,79
 683 -2 683 -2 653 9 c 0,80,81
 618 21 618 21 581 56.5 c 128,-1,82
 544 92 544 92 528 128 c 0,83,84
 509 170 509 170 509 230 c 0,85,86
 509 285 509 285 526 334 c 0,87,88
 552 408 552 408 603.5 469 c 128,-1,89
 655 530 655 530 701 541 c 0,42,43
175 819 m 0,90,91
 185 805 185 805 185 752 c 0,92,93
 185 710 185 710 184 678 c 0,94,95
 180 558 180 558 171.5 287.5 c 128,-1,96
 163 17 163 17 158 -3 c 0,97,98
 157 -7 157 -7 157 -17 c 0,99,100
 157 -38 157 -38 161 -50 c 0,101,102
 191 -140 191 -140 191 -178 c 0,103,104
 191 -204 191 -204 167 -204 c 0,105,106
 148 -204 148 -204 119.5 -178.5 c 128,-1,107
 91 -153 91 -153 76 -123 c 0,108,109
 66 -104 66 -104 63 -84.5 c 128,-1,110
 60 -65 60 -65 60 -10 c 0,111,112
 60 0 60 0 60.5 29 c 128,-1,113
 61 58 61 58 61 78 c 0,114,115
 61 196 61 196 64 314 c 0,116,117
 64 486 64 486 77 687 c 0,118,119
 83 789 83 789 90 806 c 0,120,121
 103 838 103 838 141 839 c 0,122,123
 161 839 161 839 175 819 c 0,90,91
199 -99 m 0,124,125
 239 -129 239 -129 280 -129 c 0,126,127
 331 -129 331 -129 398 -76 c 0,128,129
 446 -38 446 -38 471 -38 c 0,130,131
 481 -38 481 -38 494 -43 c 128,-1,132
 507 -48 507 -48 511 -55 c 128,-1,133
 515 -62 515 -62 515 -79 c 128,-1,134
 515 -96 515 -96 509 -107.5 c 128,-1,135
 503 -119 503 -119 483 -138 c 0,136,137
 435 -179 435 -179 403 -197 c 0,138,139
 371 -217 371 -217 353.5 -221.5 c 128,-1,140
 336 -226 336 -226 286 -228 c 0,141,142
 279 -228 279 -228 266 -228.5 c 128,-1,143
 253 -229 253 -229 249 -229 c 0,144,145
 211 -229 211 -229 178 -214 c 0,146,147
 120 -186 120 -186 93.5 -149.5 c 128,-1,148
 67 -113 67 -113 67 -60 c 0,149,150
 67 -57 67 -57 67.5 -52 c 128,-1,151
 68 -47 68 -47 68 -44 c 0,152,153
 72 21 72 21 91 73 c 0,154,155
 103 107 103 107 111 84 c 0,156,157
 120 49 120 49 125.5 31.5 c 128,-1,158
 131 14 131 14 141.5 -15 c 128,-1,159
 152 -44 152 -44 166 -64 c 128,-1,160
 180 -84 180 -84 199 -99 c 0,124,125
EndSplineSet
EndChar

StartChar: digit_seven
Encoding: 121 57463 101
Width: 425
GlyphClass: 2
Flags: W
AnchorPoint: "TehtaBelow" 139 -321 basechar 0
AnchorPoint: "TehtaAbove" 63 610 basechar 0
AnchorPoint: "shook" 279 -76 basechar 0
AnchorPoint: "inside" 113 64 basechar 0
LayerCount: 2
Fore
SplineSet
218 806 m 0,0,1
 232 826 232 826 252 826 c 0,2,3
 288 825 288 825 302 793 c 0,4,5
 310 776 310 776 316 674 c 0,6,7
 329 473 329 473 329 301 c 0,8,9
 332 183 332 183 332 65 c 0,10,11
 332 45 332 45 332.5 16 c 128,-1,12
 333 -13 333 -13 333 -23 c 0,13,14
 333 -78 333 -78 330 -97.5 c 128,-1,15
 327 -117 327 -117 317 -136 c 0,16,17
 302 -166 302 -166 273.5 -191.5 c 128,-1,18
 245 -217 245 -217 226 -217 c 0,19,20
 202 -217 202 -217 202 -191 c 0,21,22
 202 -153 202 -153 232 -63 c 0,23,24
 236 -51 236 -51 236 -30 c 0,25,26
 236 -20 236 -20 235 -16 c 0,27,28
 230 4 230 4 221.5 274.5 c 128,-1,29
 213 545 213 545 209 665 c 0,30,31
 208 697 208 697 208 739 c 0,32,33
 208 792 208 792 218 806 c 0,0,1
216 -96 m 0,34,35
 228 -75 228 -75 231.5 -43 c 128,-1,36
 235 -11 235 -11 234.5 11 c 128,-1,37
 234 33 234 33 246.5 49 c 128,-1,38
 259 65 259 65 289 64 c 0,39,40
 298 64 298 64 305.5 60 c 128,-1,41
 313 56 313 56 317 47 c 128,-1,42
 321 38 321 38 324 29.5 c 128,-1,43
 327 21 327 21 328.5 7 c 128,-1,44
 330 -7 330 -7 330.5 -16.5 c 128,-1,45
 331 -26 331 -26 331.5 -41.5 c 128,-1,46
 332 -57 332 -57 332 -64 c 0,47,48
 332 -67 332 -67 332.5 -72 c 128,-1,49
 333 -77 333 -77 333 -80 c 0,50,51
 333 -133 333 -133 306.5 -169.5 c 128,-1,52
 280 -206 280 -206 222 -234 c 0,53,54
 189 -249 189 -249 151 -249 c 0,55,56
 147 -249 147 -249 134 -248.5 c 128,-1,57
 121 -248 121 -248 114 -248 c 0,58,59
 6 -243 6 -243 -83 -158 c 0,60,61
 -103 -139 -103 -139 -109 -127.5 c 128,-1,62
 -115 -116 -115 -116 -115 -99 c 128,-1,63
 -115 -82 -115 -82 -111 -75 c 128,-1,64
 -107 -68 -107 -68 -94 -63 c 128,-1,65
 -81 -58 -81 -58 -71 -58 c 0,66,67
 -46 -58 -46 -58 2 -96 c 0,68,69
 69 -149 69 -149 120 -149 c 0,70,71
 161 -149 161 -149 201 -119 c 0,72,73
 205 -116 205 -116 208 -111.5 c 128,-1,74
 211 -107 211 -107 213.5 -102 c 128,-1,75
 216 -97 216 -97 216 -96 c 0,34,35
EndSplineSet
EndChar

StartChar: digit_eight
Encoding: 122 57464 102
Width: 705
GlyphClass: 2
Flags: W
AnchorPoint: "inside" 401 278 basechar 0
AnchorPoint: "shook" 482 49 basechar 0
AnchorPoint: "TehtaAbove" 434 639 basechar 0
AnchorPoint: "TehtaBelow" 434 -101 basechar 0
LayerCount: 2
Fore
SplineSet
464 1 m 0,0,1
 452 -2 452 -2 434 -2 c 0,2,3
 362 -2 362 -2 311 22 c 0,4,5
 244 52 244 52 244 88 c 0,6,7
 244 100 244 100 254 118 c 0,8,9
 269 143 269 143 295 143 c 0,10,11
 306 143 306 143 311 135 c 0,12,13
 318 124 318 124 355.5 109.5 c 128,-1,14
 393 95 393 95 415 95 c 0,15,16
 464 95 464 95 507 159 c 0,17,18
 562 241 562 241 562 314 c 0,19,20
 562 396 562 396 495 429 c 0,21,22
 463 445 463 445 431 445 c 0,23,24
 393 445 393 445 339 420 c 0,25,26
 291 398 291 398 281 398 c 0,27,28
 274 398 274 398 262 405 c 0,29,30
 238 418 238 418 238 445 c 0,31,32
 238 466 238 466 256 483 c 0,33,34
 287 511 287 511 337.5 527.5 c 128,-1,35
 388 544 388 544 439 544 c 0,36,37
 482 544 482 544 512 533 c 0,38,39
 547 521 547 521 584 485.5 c 128,-1,40
 621 450 621 450 637 414 c 0,41,42
 656 372 656 372 656 312 c 0,43,44
 656 257 656 257 639 208 c 0,45,46
 613 134 613 134 561.5 73 c 128,-1,47
 510 12 510 12 464 1 c 0,0,1
186 825 m 0,48,49
 200 845 200 845 220 845 c 0,50,51
 257 844 257 844 270 812 c 0,52,53
 278 795 278 795 284 693 c 0,54,55
 297 492 297 492 297 320 c 0,56,57
 300 202 300 202 300 84 c 0,58,59
 300 64 300 64 300.5 35 c 128,-1,60
 301 6 301 6 301 -4 c 0,61,62
 301 -59 301 -59 298 -78.5 c 128,-1,63
 295 -98 295 -98 285 -117 c 0,64,65
 270 -147 270 -147 241.5 -172.5 c 128,-1,66
 213 -198 213 -198 194 -198 c 0,67,68
 170 -198 170 -198 170 -172 c 0,69,70
 170 -134 170 -134 200 -44 c 0,71,72
 204 -32 204 -32 204 -11 c 0,73,74
 204 -1 204 -1 203 3 c 0,75,76
 198 23 198 23 189.5 293.5 c 128,-1,77
 181 564 181 564 177 684 c 0,78,79
 176 716 176 716 176 758 c 0,80,81
 176 811 176 811 186 825 c 0,48,49
183 -77 m 0,82,83
 195 -56 195 -56 198.5 -24 c 128,-1,84
 202 8 202 8 202 30 c 128,-1,85
 202 52 202 52 214.5 68 c 128,-1,86
 227 84 227 84 257 84 c 0,87,88
 266 84 266 84 273 79.5 c 128,-1,89
 280 75 280 75 284.5 66 c 128,-1,90
 289 57 289 57 291.5 48.5 c 128,-1,91
 294 40 294 40 295.5 26 c 128,-1,92
 297 12 297 12 297.5 2.5 c 128,-1,93
 298 -7 298 -7 298.5 -22.5 c 128,-1,94
 299 -38 299 -38 300 -44 c 0,95,96
 300 -47 300 -47 300.5 -52 c 128,-1,97
 301 -57 301 -57 301 -60 c 0,98,99
 301 -113 301 -113 274.5 -149.5 c 128,-1,100
 248 -186 248 -186 190 -214 c 0,101,102
 157 -229 157 -229 119 -229 c 0,103,104
 115 -229 115 -229 102 -228.5 c 128,-1,105
 89 -228 89 -228 82 -228 c 0,106,107
 -26 -223 -26 -223 -115 -138 c 0,108,109
 -135 -119 -135 -119 -141 -107.5 c 128,-1,110
 -147 -96 -147 -96 -147 -79 c 128,-1,111
 -147 -62 -147 -62 -143 -55 c 128,-1,112
 -139 -48 -139 -48 -126 -43 c 128,-1,113
 -113 -38 -113 -38 -103 -38 c 0,114,115
 -78 -38 -78 -38 -30 -76 c 0,116,117
 37 -129 37 -129 88 -129 c 0,118,119
 129 -129 129 -129 169 -99 c 0,120,121
 173 -96 173 -96 176 -92 c 128,-1,122
 179 -88 179 -88 181 -83 c 128,-1,123
 183 -78 183 -78 183 -77 c 0,82,83
EndSplineSet
EndChar

StartChar: digit_nine
Encoding: 123 57465 103
Width: 1045
GlyphClass: 2
Flags: W
AnchorPoint: "inside" 411 273 basechar 0
AnchorPoint: "shook" 783 71 basechar 0
AnchorPoint: "TehtaAbove" 568 673 basechar 0
AnchorPoint: "TehtaBelow" 551 -114 basechar 0
LayerCount: 2
Fore
SplineSet
766 21 m 0,0,1
 754 18 754 18 736 18 c 0,2,3
 664 18 664 18 613 42 c 0,4,5
 546 72 546 72 546 108 c 0,6,7
 546 120 546 120 556 138 c 0,8,9
 571 163 571 163 597 163 c 0,10,11
 608 163 608 163 613 155 c 0,12,13
 620 144 620 144 657.5 129.5 c 128,-1,14
 695 115 695 115 717 115 c 0,15,16
 766 115 766 115 809 179 c 0,17,18
 864 261 864 261 864 334 c 0,19,20
 864 416 864 416 797 449 c 0,21,22
 765 465 765 465 733 465 c 0,23,24
 695 465 695 465 641 440 c 0,25,26
 593 418 593 418 583 418 c 0,27,28
 576 418 576 418 564 425 c 0,29,30
 540 438 540 438 540 465 c 0,31,32
 540 486 540 486 558 503 c 0,33,34
 589 531 589 531 639.5 547.5 c 128,-1,35
 690 564 690 564 741 564 c 0,36,37
 784 564 784 564 814 553 c 0,38,39
 849 541 849 541 886 505.5 c 128,-1,40
 923 470 923 470 939 434 c 0,41,42
 958 392 958 392 958 332 c 0,43,44
 958 277 958 277 941 228 c 0,45,46
 915 154 915 154 863.5 93 c 128,-1,47
 812 32 812 32 766 21 c 0,0,1
446 1 m 0,48,49
 434 -2 434 -2 416 -2 c 0,50,51
 344 -2 344 -2 293 22 c 0,52,53
 226 52 226 52 226 88 c 0,54,55
 226 100 226 100 236 118 c 0,56,57
 251 143 251 143 277 143 c 0,58,59
 288 143 288 143 293 135 c 0,60,61
 300 124 300 124 337.5 109.5 c 128,-1,62
 375 95 375 95 397 95 c 0,63,64
 446 95 446 95 489 159 c 0,65,66
 544 241 544 241 544 314 c 0,67,68
 544 396 544 396 477 429 c 0,69,70
 445 445 445 445 413 445 c 0,71,72
 375 445 375 445 321 420 c 0,73,74
 273 398 273 398 263 398 c 0,75,76
 256 398 256 398 244 405 c 0,77,78
 220 418 220 418 220 445 c 0,79,80
 220 466 220 466 238 483 c 0,81,82
 269 511 269 511 319.5 527.5 c 128,-1,83
 370 544 370 544 421 544 c 0,84,85
 464 544 464 544 494 533 c 0,86,87
 529 521 529 521 566 485.5 c 128,-1,88
 603 450 603 450 619 414 c 0,89,90
 638 372 638 372 638 312 c 0,91,92
 638 257 638 257 621 208 c 0,93,94
 595 134 595 134 543.5 73 c 128,-1,95
 492 12 492 12 446 1 c 0,48,49
179 824 m 0,96,97
 193 844 193 844 213 844 c 0,98,99
 250 843 250 843 263 811 c 0,100,101
 271 794 271 794 277 692 c 0,102,103
 290 491 290 491 290 319 c 0,104,105
 293 201 293 201 293 83 c 0,106,107
 293 63 293 63 293.5 34 c 128,-1,108
 294 5 294 5 294 -5 c 0,109,110
 294 -60 294 -60 291 -79.5 c 128,-1,111
 288 -99 288 -99 278 -118 c 0,112,113
 263 -148 263 -148 234.5 -173.5 c 128,-1,114
 206 -199 206 -199 187 -199 c 0,115,116
 163 -199 163 -199 163 -173 c 0,117,118
 163 -135 163 -135 193 -45 c 0,119,120
 197 -33 197 -33 197 -12 c 0,121,122
 197 -2 197 -2 196 2 c 0,123,124
 191 22 191 22 182.5 292.5 c 128,-1,125
 174 563 174 563 170 683 c 0,126,127
 169 715 169 715 169 757 c 0,128,129
 169 810 169 810 179 824 c 0,96,97
177 -79 m 0,130,131
 189 -58 189 -58 192 -25.5 c 128,-1,132
 195 7 195 7 195 28.5 c 128,-1,133
 195 50 195 50 207.5 66.5 c 128,-1,134
 220 83 220 83 250 82 c 0,135,136
 259 82 259 82 266 77.5 c 128,-1,137
 273 73 273 73 277.5 64.5 c 128,-1,138
 282 56 282 56 285 47 c 128,-1,139
 288 38 288 38 289.5 24 c 128,-1,140
 291 10 291 10 291.5 1 c 128,-1,141
 292 -8 292 -8 292.5 -23.5 c 128,-1,142
 293 -39 293 -39 293 -46 c 0,143,144
 293 -49 293 -49 293.5 -54 c 128,-1,145
 294 -59 294 -59 294 -62 c 0,146,147
 294 -115 294 -115 267.5 -151.5 c 128,-1,148
 241 -188 241 -188 183 -216 c 0,149,150
 150 -231 150 -231 112 -231 c 0,151,152
 108 -231 108 -231 95 -230.5 c 128,-1,153
 82 -230 82 -230 75 -230 c 0,154,155
 -33 -225 -33 -225 -122 -140 c 0,156,157
 -142 -121 -142 -121 -148 -109.5 c 128,-1,158
 -154 -98 -154 -98 -154 -81 c 128,-1,159
 -154 -64 -154 -64 -150 -57 c 128,-1,160
 -146 -50 -146 -50 -133 -45 c 128,-1,161
 -120 -40 -120 -40 -110 -40 c 0,162,163
 -85 -40 -85 -40 -37 -78 c 0,164,165
 30 -131 30 -131 81 -131 c 0,166,167
 122 -131 122 -131 162 -101 c 0,168,169
 166 -98 166 -98 169 -93.5 c 128,-1,170
 172 -89 172 -89 174.5 -84.5 c 128,-1,171
 177 -80 177 -80 177 -79 c 0,130,131
EndSplineSet
EndChar

StartChar: digit_ten
Encoding: 124 57466 104
Width: 534
GlyphClass: 2
Flags: W
AnchorPoint: "inside" 204 252 basechar 0
AnchorPoint: "shook" 354 70 basechar 0
AnchorPoint: "TehtaAbove" 339 624 basechar 0
AnchorPoint: "TehtaBelow" 303 -98 basechar 0
LayerCount: 2
Fore
SplineSet
106 717 m 0,0,1
 86 732 86 732 76 732 c 0,2,3
 65 732 65 732 50 713 c 0,4,5
 33 692 33 692 33 636 c 0,6,7
 33 557 33 557 75.5 501.5 c 128,-1,8
 118 446 118 446 255 346 c 0,9,10
 311 305 311 305 335.5 272 c 128,-1,11
 360 239 360 239 364 200 c 0,12,13
 365 192 365 192 365 180 c 128,-1,14
 365 168 365 168 360.5 161.5 c 128,-1,15
 356 155 356 155 342 144 c 0,16,17
 302 114 302 114 261 114 c 0,18,19
 210 114 210 114 143 167 c 0,20,21
 95 205 95 205 70 205 c 0,22,23
 60 205 60 205 47 200 c 128,-1,24
 34 195 34 195 30 188 c 128,-1,25
 26 181 26 181 26 164 c 128,-1,26
 26 147 26 147 32 135.5 c 128,-1,27
 38 124 38 124 58 105 c 0,28,29
 106 64 106 64 138 46 c 0,30,31
 170 26 170 26 187.5 21.5 c 128,-1,32
 205 17 205 17 255 15 c 0,33,34
 262 15 262 15 275 14.5 c 128,-1,35
 288 14 288 14 292 14 c 0,36,37
 330 14 330 14 363 29 c 0,38,39
 421 57 421 57 447.5 93.5 c 128,-1,40
 474 130 474 130 474 183 c 0,41,42
 474 186 474 186 473.5 191 c 128,-1,43
 473 196 473 196 473 199 c 0,44,45
 469 272 469 272 430 327 c 128,-1,46
 391 382 391 382 299 444 c 0,47,48
 231 488 231 488 209 509 c 0,49,50
 172 541 172 541 149 588 c 128,-1,51
 126 635 126 635 126 677 c 0,52,53
 126 701 126 701 106 717 c 0,0,1
EndSplineSet
EndChar

StartChar: digit_eleven
Encoding: 125 57467 105
Width: 524
GlyphClass: 2
Flags: W
AnchorPoint: "inside" 215 390 basechar 0
AnchorPoint: "shook" 410 55 basechar 0
AnchorPoint: "TehtaAbove" 363 733 basechar 0
AnchorPoint: "TehtaBelow" 297 -257 basechar 0
LayerCount: 2
Fore
SplineSet
221 699 m 0,0,1
 197 722 197 722 175 722 c 0,2,3
 158 722 158 722 143 710 c 0,4,5
 124 695 124 695 124 675 c 0,6,7
 124 635 124 635 210 570 c 0,8,9
 299 501 299 501 331.5 465.5 c 128,-1,10
 364 430 364 430 364 400 c 0,11,12
 364 383 364 383 352 356 c 0,13,14
 311 270 311 270 246 260 c 0,15,16
 230 257 230 257 216 257 c 0,17,18
 179 257 179 257 129 289 c 0,19,20
 90 313 90 313 64 313 c 0,21,22
 26 313 26 313 26 265 c 0,23,24
 26 238 26 238 46.5 218 c 128,-1,25
 67 198 67 198 118 175 c 0,26,27
 162 155 162 155 216 155 c 0,28,29
 273 157 273 157 292 165 c 0,30,31
 305 170 305 170 310 170 c 0,32,33
 317 170 317 170 330 159 c 0,34,35
 346 145 346 145 358 117 c 0,36,37
 365 100 365 100 365 89 c 0,38,39
 365 80 365 80 359 63 c 0,40,41
 342 14 342 14 302.5 -17 c 128,-1,42
 263 -48 263 -48 217 -48 c 0,43,44
 177 -48 177 -48 125 -20 c 0,45,46
 84 2 84 2 60 2 c 0,47,48
 26 2 26 2 26 -46 c 0,49,50
 26 -73 26 -73 46.5 -93 c 128,-1,51
 67 -113 67 -113 118 -136 c 0,52,53
 162 -156 162 -156 217 -156 c 0,54,55
 269 -155 269 -155 308 -137.5 c 128,-1,56
 347 -120 347 -120 389 -77 c 0,57,58
 431 -35 431 -35 446 0 c 128,-1,59
 461 35 461 35 461 89 c 0,60,61
 461 136 461 136 453.5 161.5 c 128,-1,62
 446 187 446 187 425 213 c 0,63,64
 407 236 407 236 407 247 c 0,65,66
 407 256 407 256 418 264 c 0,67,68
 437 280 437 280 449.5 318 c 128,-1,69
 462 356 462 356 462 399 c 2,70,-1
 462 405 l 2,71,72
 462 471 462 471 436.5 510 c 128,-1,73
 411 549 411 549 325 614 c 0,74,75
 273 654 273 654 221 699 c 0,0,1
EndSplineSet
EndChar

StartChar: digit_twelve
Encoding: 126 57468 106
Width: 584
GlyphClass: 2
Flags: W
AnchorPoint: "inside" 270 427 basechar 0
AnchorPoint: "shook" 447 49 basechar 0
AnchorPoint: "TehtaAbove" 267 798 basechar 0
AnchorPoint: "TehtaBelow" 215 -3 basechar 0
LayerCount: 2
Fore
SplineSet
316 584 m 0,0,1
 290.000488281 600.999511719 290.000488281 600.999511719 273 601 c 128,-1,2
 256.000488281 601 256.000488281 601 225 587 c 0,3,4
 184.000488281 567.999511719 184.000488281 567.999511719 160.5 521 c 128,-1,5
 136.999511719 474.000488281 136.999511719 474.000488281 137 410 c 0,6,7
 137 369.000488281 137 369.000488281 147.5 344 c 128,-1,8
 158 318.999511719 158 318.999511719 184 297 c 0,9,10
 209.000488281 276 209.000488281 276 244 276 c 0,11,12
 275.999511719 276 275.999511719 276 306 294.5 c 128,-1,13
 336 312.999511719 336 312.999511719 351 344 c 0,14,15
 364.999511719 371 364.999511719 371 368 431 c 0,16,17
 368 435.000488281 368 435.000488281 368.5 441.5 c 128,-1,18
 368.999511719 447.999511719 368.999511719 447.999511719 369 451 c 0,19,20
 369 548.000488281 369 548.000488281 316 584 c 0,0,1
222 697 m 0,21,22
 246 701.000488281 246 701.000488281 272 701 c 0,23,24
 365 701 365 701 413 635 c 0,25,26
 459.999511719 572 459.999511719 572 460 462 c 2,27,-1
 460 434 l 2,28,29
 458.000488281 378.999511719 458.000488281 378.999511719 454 356 c 128,-1,30
 449.999511719 333.000488281 449.999511719 333.000488281 436 301 c 0,31,32
 418 262 418 262 380.5 223 c 128,-1,33
 343 184 343 184 323 184 c 0,34,35
 306.000488281 184 306.000488281 184 303 176 c 0,36,37
 297 168.000488281 297 168.000488281 261 168 c 0,38,39
 202.000488281 168 202.000488281 168 167 183 c 0,40,41
 135.999511719 196.000488281 135.999511719 196.000488281 104 226.5 c 128,-1,42
 72.0004882812 256.999511719 72.0004882812 256.999511719 61 284 c 0,43,44
 29.0004882812 359 29.0004882812 359 29 422 c 0,45,46
 30.0004882812 450.000488281 30.0004882812 450.000488281 40.5 494 c 128,-1,47
 51 537.999511719 51 537.999511719 64 565 c 0,48,49
 86.0004882812 611.999511719 86.0004882812 611.999511719 132.5 651 c 128,-1,50
 179 690 179 690 222 697 c 0,21,22
377 556 m 0,51,52
 390.999511719 575.999511719 390.999511719 575.999511719 411 576 c 0,53,54
 427.75587087 575.580903805 427.75587087 575.580903805 373.955849535 648.335730274 c 0,55,56
 349.684158885 681.15881468 349.684158885 681.15881468 352.681640625 681.706054688 c 0,57,58
 387.735386656 669.103182174 387.735386656 669.103182174 413.82423851 637.98169549 c 128,-1,59
 439.913090364 606.860208806 439.913090364 606.860208806 453.566874771 566.446023626 c 128,-1,60
 467.220659178 526.031838446 467.220659178 526.031838446 473.838764877 489.549902277 c 128,-1,61
 480.456870577 453.067966109 480.456870577 453.067966109 482 417 c 0,62,63
 491 100.999511719 491 100.999511719 491 65 c 0,64,65
 491 45.0278592375 491 45.0278592375 491.5 16 c 128,-1,66
 491.999511719 -12.9995117188 491.999511719 -12.9995117188 492 -23 c 0,67,68
 492 -78.0004882812 492 -78.0004882812 489 -97.5 c 128,-1,69
 486 -117 486 -117 476 -136 c 0,70,71
 461 -166 461 -166 432.5 -191.5 c 128,-1,72
 404 -217 404 -217 385 -217 c 0,73,74
 361 -217 361 -217 361 -191 c 0,75,76
 361 -153.000488281 361 -153.000488281 391 -63 c 0,77,78
 395.000488281 -51 395.000488281 -51 395 -30 c 0,79,80
 395 -19.9995117188 395 -19.9995117188 394 -16 c 0,81,82
 389.000488281 3.99951171875 389.000488281 3.99951171875 380.5 149.5 c 128,-1,83
 371.999511719 295 371.999511719 295 368 415 c 0,84,85
 366.999511719 446.999511719 366.999511719 446.999511719 367 489 c 0,86,87
 367 541.999511719 367 541.999511719 377 556 c 0,51,52
EndSplineSet
EndChar

StartChar: lsd_marker
Encoding: 127 57469 107
Width: 230
VWidth: 585
GlyphClass: 4
Flags: W
AnchorPoint: "mkmk_down" 130 -244 mark 0
AnchorPoint: "mkmk_down" 115 -385 basemark 0
AnchorPoint: "TehtaBelow" 130 -244 mark 0
LayerCount: 2
Fore
SplineSet
65 -239 m 0,0,1
 82 -221 82 -221 108 -221 c 0,2,3
 133 -221 133 -221 152 -238 c 128,-1,4
 171 -255 171 -255 171 -282 c 128,-1,5
 171 -309 171 -309 154 -327 c 128,-1,6
 137 -345 137 -345 110 -345 c 0,7,8
 82 -345 82 -345 64.5 -326.5 c 128,-1,9
 47 -308 47 -308 47 -283 c 0,10,11
 47 -257 47 -257 65 -239 c 0,0,1
EndSplineSet
EndChar

StartChar: uni2E31
Encoding: 12 11825 108
Width: 190
GlyphClass: 2
Flags: W
LayerCount: 2
Fore
SplineSet
45 321 m 4,0,1
 62 339 62 339 88 339 c 4,2,3
 113 339 113 339 132 322 c 132,-1,4
 151 305 151 305 151 278 c 132,-1,5
 151 251 151 251 134 233 c 132,-1,6
 117 215 117 215 90 215 c 4,7,8
 62 215 62 215 44.5 233.5 c 132,-1,9
 27 252 27 252 27 277 c 4,10,11
 27 303 27 303 45 321 c 4,0,1
EndSplineSet
EndChar

StartChar: uni205D
Encoding: 10 8285 109
Width: 340
GlyphClass: 2
Flags: W
LayerCount: 2
Fore
SplineSet
156 670 m 0,0,1
 168 678 168 678 177 678 c 128,-1,2
 186 678 186 678 205 667 c 0,3,4
 238 650 238 650 238 614 c 0,5,6
 238 590 238 590 222 572.5 c 128,-1,7
 206 555 206 555 179 555 c 0,8,9
 153 555 153 555 137 570.5 c 128,-1,10
 121 586 121 586 121 612 c 0,11,12
 121 652 121 652 156 670 c 0,0,1
141 353 m 0,13,14
 160 369 160 369 181 369 c 0,15,16
 204 369 204 369 221 351 c 0,17,18
 237 335 237 335 237 309 c 0,19,20
 237 278 237 278 212 259 c 0,21,22
 197 248 197 248 180 248 c 0,23,24
 156 248 156 248 138 267.5 c 128,-1,25
 120 287 120 287 120 311 c 0,26,27
 120 336 120 336 141 353 c 0,13,14
136 45 m 0,28,29
 152 61 152 61 175 61 c 0,30,31
 199 61 199 61 218 43.5 c 128,-1,32
 237 26 237 26 237 1 c 128,-1,33
 237 -24 237 -24 219.5 -40 c 128,-1,34
 202 -56 202 -56 179 -56 c 0,35,36
 157 -56 157 -56 139 -41 c 128,-1,37
 121 -26 121 -26 121 4 c 0,38,39
 121 30 121 30 136 45 c 0,28,29
EndSplineSet
EndChar

StartChar: lowdham_hw
Encoding: 72 57404 110
Width: 646
Flags: W
AnchorPoint: "inside" 301 452 basechar 0
AnchorPoint: "shook" 196 183 basechar 0
AnchorPoint: "TehtaBelow" 427 101 basechar 0
AnchorPoint: "TehtaAbove" 282 694 basechar 0
LayerCount: 2
Fore
SplineSet
42 809 m 0,0,1
 51 820 51 820 77 820 c 128,-1,2
 103 820 103 820 114 809 c 0,3,4
 126 797 126 797 125 697 c 0,5,6
 124 530 124 530 117 502 c 0,7,8
 111 479 111 479 91 476 c 0,9,10
 86 475 86 475 76 475 c 2,11,-1
 67 475 l 2,12,13
 36 474 36 474 28 498 c 0,14,15
 16 534 16 534 18 600 c 2,16,-1
 20 645 l 2,17,18
 23 708 23 708 25 732 c 0,19,20
 31 797 31 797 42 809 c 0,0,1
425 572 m 0,21,22
 431 574 431 574 438 574 c 0,23,24
 462 574 462 574 480 566 c 0,25,26
 493 559 493 559 537.5 493 c 128,-1,27
 582 427 582 427 587 407 c 0,28,29
 592 385 592 385 592 368 c 0,30,31
 592 317 592 317 562 284 c 0,32,33
 541 262 541 262 499 242.5 c 128,-1,34
 457 223 457 223 431 223 c 0,35,36
 409 223 409 223 357 214.5 c 128,-1,37
 305 206 305 206 289 199 c 0,38,39
 232 177 232 177 208.5 153 c 128,-1,40
 185 129 185 129 185 93 c 0,41,42
 185 -16 185 -16 373 -48 c 0,43,44
 459 -63 459 -63 459 -99 c 0,45,46
 459 -115 459 -115 442 -135 c 0,47,48
 431 -149 431 -149 391 -149 c 0,49,50
 308 -149 308 -149 216 -104 c 0,51,52
 151 -72 151 -72 114 -18 c 128,-1,53
 77 36 77 36 77 96 c 0,54,55
 77 137 77 137 97 179 c 0,56,57
 117 220 117 220 135 239 c 0,58,59
 152 256 152 256 152 268 c 128,-1,60
 152 280 152 280 136 306 c 0,61,62
 28 477 28 477 28 510 c 0,63,64
 28 532 28 532 43 547.5 c 128,-1,65
 58 563 58 563 80 563 c 0,66,67
 99 563 99 563 123.5 532.5 c 128,-1,68
 148 502 148 502 232 371 c 0,69,70
 276 303 276 303 289 303 c 0,71,72
 290 303 290 303 292 304 c 0,73,74
 308 309 308 309 355 312 c 0,75,76
 480 323 480 323 480 376 c 0,77,78
 480 404 480 404 440 449 c 0,79,80
 415 477 415 477 408 490 c 128,-1,81
 401 503 401 503 401 521 c 0,82,83
 401 546 401 546 406 556.5 c 128,-1,84
 411 567 411 567 425 572 c 0,21,22
EndSplineSet
EndChar

StartChar: tengwa_mh_beleriand
Encoding: 71 57403 111
Width: 694
Flags: W
AnchorPoint: "inside" 250 284 basechar 0
AnchorPoint: "TehtaAbove" 215 720 basechar 0
AnchorPoint: "TehtaBelow" 182 -121 basechar 0
LayerCount: 2
Fore
SplineSet
31 479 m 0,0,1
 39 560 39 560 72 560 c 0,2,3
 87 560 87 560 108 543 c 0,4,5
 124 531 124 531 132 531 c 0,6,7
 141 531 141 531 171 541 c 0,8,9
 214 556 214 556 267 556 c 0,10,11
 302 556 302 556 316 551.5 c 128,-1,12
 330 547 330 547 356 528 c 0,13,14
 384 508 384 508 426 453 c 128,-1,15
 468 398 468 398 469 381 c 0,16,17
 469 368 469 368 474 363 c 0,18,19
 485 352 485 352 492.5 316 c 128,-1,20
 500 280 500 280 500 240 c 0,21,22
 500 178 500 178 481 136 c 0,23,24
 466 103 466 103 466 91 c 0,25,26
 466 78 466 78 486 78 c 0,27,28
 517 78 517 78 557.5 61.5 c 128,-1,29
 598 45 598 45 620 23 c 2,30,-1
 650 -7 l 1,31,-1
 645 -68 l 2,32,33
 641 -130 641 -130 620 -169 c 0,34,35
 586 -235 586 -235 538 -272.5 c 128,-1,36
 490 -310 490 -310 440 -310 c 0,37,38
 402 -310 402 -310 389 -300.5 c 128,-1,39
 376 -291 376 -291 376 -263 c 0,40,41
 376 -237 376 -237 390 -223.5 c 128,-1,42
 404 -210 404 -210 436 -204 c 0,43,44
 458 -201 458 -201 481 -180 c 0,45,46
 503 -158 503 -158 520 -122.5 c 128,-1,47
 537 -87 537 -87 537 -64 c 0,48,49
 537 -47 537 -47 530.5 -39.5 c 128,-1,50
 524 -32 524 -32 504 -25 c 0,51,52
 473 -15 473 -15 379 -8 c 0,53,54
 296 -2 296 -2 267.5 8.5 c 128,-1,55
 239 19 239 19 237 44 c 2,56,-1
 237 49 l 2,57,58
 237 69 237 69 256.5 84 c 128,-1,59
 276 99 276 99 324 117 c 0,60,61
 349 127 349 127 362.5 137 c 128,-1,62
 376 147 376 147 387 165 c 0,63,64
 406 194 406 194 406 238 c 0,65,66
 406 315 406 315 351 395 c 0,67,68
 307 460 307 460 256 460 c 0,69,70
 215 460 215 460 155 421 c 2,71,-1
 125 402 l 1,72,-1
 132 273 l 2,73,74
 136 201 136 201 136 141 c 0,75,76
 136 67 136 67 126 39.5 c 128,-1,77
 116 12 116 12 91 10 c 0,78,79
 83 9 83 9 71 9 c 0,80,81
 46 9 46 9 40.5 40.5 c 128,-1,82
 35 72 35 72 31 212 c 0,83,84
 26 392 26 392 26 399 c 0,85,86
 26 419 26 419 31 479 c 0,0,1
EndSplineSet
EndChar

StartChar: uni204A
Encoding: 8 8266 112
Width: 433
Flags: W
AnchorPoint: "TehtaAbove" 219 723 basechar 0
AnchorPoint: "TehtaBelow" 158 -183 basechar 0
LayerCount: 2
Fore
SplineSet
158 564 m 0,0,1
 203 567 203 567 244 567 c 0,2,3
 315 567 315 567 322 560 c 0,4,5
 334 548 334 548 334 419 c 0,6,7
 334 238 334 238 316 145 c 0,8,9
 295 42 295 42 248 -3 c 128,-1,10
 201 -48 201 -48 115 -48 c 0,11,12
 31 -48 31 -48 31 1 c 0,13,14
 31 20 31 20 48 32 c 128,-1,15
 65 44 65 44 104 52 c 0,16,17
 147 60 147 60 167 72.5 c 128,-1,18
 187 85 187 85 200 113 c 0,19,20
 230 173 230 173 230 304 c 2,21,-1
 230 343 l 1,22,-1
 228 459 l 1,23,-1
 152 462 l 2,24,25
 90 465 90 465 72 475 c 128,-1,26
 54 485 54 485 54 515 c 0,27,28
 54 541 54 541 74.5 550.5 c 128,-1,29
 95 560 95 560 158 564 c 0,0,1
EndSplineSet
EndChar

StartChar: tironian_et
Encoding: 113 57452 113
Width: 433
Flags: W
AnchorPoint: "TehtaAbove" 219 723 basechar 0
AnchorPoint: "TehtaBelow" 158 -183 basechar 0
LayerCount: 2
Fore
SplineSet
158 564 m 0,0,1
 203 567 203 567 244 567 c 0,2,3
 315 567 315 567 322 560 c 0,4,5
 334 548 334 548 334 419 c 0,6,7
 334 238 334 238 316 145 c 0,8,9
 295 42 295 42 248 -3 c 128,-1,10
 201 -48 201 -48 115 -48 c 0,11,12
 31 -48 31 -48 31 1 c 0,13,14
 31 20 31 20 48 32 c 128,-1,15
 65 44 65 44 104 52 c 0,16,17
 147 60 147 60 167 72.5 c 128,-1,18
 187 85 187 85 200 113 c 0,19,20
 230 173 230 173 230 304 c 2,21,-1
 230 343 l 1,22,-1
 228 459 l 1,23,-1
 152 462 l 2,24,25
 90 465 90 465 72 475 c 128,-1,26
 54 485 54 485 54 515 c 0,27,28
 54 541 54 541 74.5 550.5 c 128,-1,29
 95 560 95 560 158 564 c 0,0,1
EndSplineSet
EndChar

StartChar: lambe_bar_below
Encoding: 154 -1 114
Width: 0
Flags: W
AnchorPoint: "lambe_bar" 320 662 mark 0
LayerCount: 2
Fore
SplineSet
4 682 m 4,0,1
 24 688 24 688 60 688 c 4,2,3
 110 688 110 688 171 677 c 4,4,5
 337 646 337 646 367 646 c 4,6,7
 385 646 385 646 412 655 c 4,8,9
 447 665 447 665 452 665 c 4,10,11
 460 665 460 665 468 656 c 4,12,13
 476 648 476 648 476 630 c 4,14,15
 476 595 476 595 453 574 c 4,16,17
 418 542 418 542 362 542 c 4,18,19
 314 542 314 542 234 561 c 4,20,21
 125 586 125 586 85 586 c 4,22,23
 55 586 55 586 24 573 c 4,24,25
 -12 557 -12 557 -33 557 c 132,-1,26
 -54 557 -54 557 -67.5 571 c 132,-1,27
 -81 585 -81 585 -81 605 c 4,28,29
 -81 619 -81 619 -73 635 c 4,30,31
 -56 663 -56 663 4 682 c 4,0,1
EndSplineSet
EndChar

StartChar: leftcurl_above_double
Encoding: 155 -1 115
Width: 484
Flags: W
AnchorPoint: "mkmk_up" 219 1126 basemark 0
AnchorPoint: "mkmk_up" 219 635 mark 0
AnchorPoint: "TehtaAbove" 219 635 mark 0
LayerCount: 2
Fore
SplineSet
247 1034 m 0,0,1
 256 1039 256 1039 279 1039 c 0,2,3
 337 1039 337 1039 378 1017 c 0,4,5
 444 980 444 980 444 909 c 0,6,7
 444 843 444 843 391 780 c 0,8,9
 360 743 360 743 350 718 c 0,10,11
 339 692 339 692 319.5 675.5 c 128,-1,12
 300 659 300 659 282 659 c 0,13,14
 266 659 266 659 255 673 c 0,15,16
 244 688 244 688 244 710 c 0,17,18
 244 762 244 762 300 824 c 0,19,20
 344 874 344 874 344 900 c 0,21,22
 344 917 344 917 327 929 c 0,23,24
 310 942 310 942 285 942 c 0,25,26
 263 942 263 942 241.5 957.5 c 128,-1,27
 220 973 220 973 220 990 c 0,28,29
 220 1018 220 1018 247 1034 c 0,0,1
51 979 m 0,30,31
 63 985 63 985 87 985 c 0,32,33
 144 985 144 985 183 964 c 0,34,35
 251 929 251 929 251 857 c 0,36,37
 251 791 251 791 197 726 c 0,38,39
 167 690 167 690 156 663 c 0,40,41
 145 637 145 637 126 621 c 128,-1,42
 107 605 107 605 89 605 c 0,43,44
 72 605 72 605 62 619 c 0,45,46
 50 636 50 636 50 657 c 0,47,48
 50 708 50 708 116 781 c 0,49,50
 143 810 143 810 147 830 c 0,51,52
 149 842 149 842 149 846 c 0,53,54
 149 865 149 865 131.5 875 c 128,-1,55
 114 885 114 885 71 891 c 0,56,57
 42 895 42 895 33 915 c 0,58,59
 28 928 28 928 28 938 c 0,60,61
 28 967 28 967 51 979 c 0,30,31
EndSplineSet
Ligature2: "Ligatures subtable" leftcurl_above leftcurl_above
LCarets2: 1 0
EndChar

StartChar: rightcurl_above_double
Encoding: 156 -1 116
Width: 584
Flags: W
AnchorPoint: "mkmk_up" 256 1024 basemark 0
AnchorPoint: "mkmk_up" 256 684 mark 0
AnchorPoint: "TehtaAbove" 256 684 mark 0
LayerCount: 2
Fore
SplineSet
185 912 m 0,0,1
 196 915 196 915 219 915 c 0,2,3
 292 915 292 915 309 902 c 0,4,5
 315 896 315 896 327 896 c 0,6,7
 338 896 338 896 362 902 c 0,8,9
 379 906 379 906 399 906 c 0,10,11
 488 906 488 906 523 818 c 0,12,13
 535 786 535 786 535 761 c 0,14,15
 535 733 535 733 520.5 716.5 c 128,-1,16
 506 700 506 700 480 700 c 0,17,18
 437 700 437 700 426 751 c 0,19,20
 418 784 418 784 414.5 792 c 128,-1,21
 411 800 411 800 402 800 c 2,22,-1
 396 800 l 2,23,24
 380 797 380 797 373 770 c 0,25,26
 366 744 366 744 356 732 c 128,-1,27
 346 720 346 720 323 710 c 0,28,29
 298 700 298 700 294 678 c 0,30,31
 287 649 287 649 274 628 c 128,-1,32
 261 607 261 607 249 607 c 0,33,34
 210 607 210 607 196 654 c 0,35,36
 191 674 191 674 191 689 c 0,37,38
 191 728 191 728 221 775 c 0,39,40
 241 806 241 806 241 814 c 0,41,42
 239 816 239 816 233.5 815.5 c 128,-1,43
 228 815 228 815 217 812 c 0,44,45
 199 808 199 808 172 772.5 c 128,-1,46
 145 737 145 737 134 704 c 0,47,48
 108 624 108 624 81 624 c 0,49,50
 72 624 72 624 61 630 c 0,51,52
 46 637 46 637 37 658.5 c 128,-1,53
 28 680 28 680 28 705 c 0,54,55
 28 713 28 713 30 727 c 0,56,57
 34 745 34 745 59 788.5 c 128,-1,58
 84 832 84 832 105 856 c 0,59,60
 116 870 116 870 144 889 c 128,-1,61
 172 908 172 908 185 912 c 0,0,1
EndSplineSet
Ligature2: "Ligatures subtable" rightcurl_above rightcurl_above
LCarets2: 1 0
EndChar

StartChar: tehta_breve
Encoding: 91 57427 117
Width: 230
Flags: W
AnchorPoint: "mkmk_up" 113 635 mark 0
AnchorPoint: "mkmk_up" 113 732 basemark 0
AnchorPoint: "TehtaAbove" 113 635 mark 0
LayerCount: 2
Fore
SplineSet
-3 631 m 1,0,-1
 45 674 l 1,1,2
 58 656 58 656 79 645.5 c 128,-1,3
 100 635 100 635 127 635 c 0,4,5
 171 635 171 635 184 665 c 1,6,-1
 203 656 l 1,7,8
 188 622 188 622 162 599.5 c 128,-1,9
 136 577 136 577 98 577 c 0,10,11
 37 577 37 577 -3 631 c 1,0,-1
EndSplineSet
EndChar

StartChar: tehta_grave
Encoding: 92 57428 118
Width: 0
Flags: W
AnchorPoint: "mkmk_up" 112 669 mark 0
AnchorPoint: "mkmk_up" 112 910 basemark 0
AnchorPoint: "TehtaAbove" 112 669 mark 0
LayerCount: 2
Fore
SplineSet
202 745 m 0,0,1
 245 696 245 696 243 667 c 0,2,3
 242 651 242 651 228 642 c 0,4,5
 216 633 216 633 200 634 c 0,6,7
 169 636 169 636 131 678 c 0,8,9
 91 722 91 722 58 746 c 0,10,11
 11 783 11 783 13 812 c 0,12,13
 13 817 13 817 18 831 c 0,14,15
 27 851 27 851 57 849 c 0,16,17
 70 848 70 848 78 847 c 0,18,19
 95 845 95 845 130.5 815.5 c 128,-1,20
 166 786 166 786 202 745 c 0,0,1
EndSplineSet
EndChar

StartChar: yanta_above
Encoding: 93 57429 119
Width: 0
Flags: W
AnchorPoint: "mkmk_up" 157 989 basemark 0
AnchorPoint: "mkmk_up" 157 685 mark 0
AnchorPoint: "TehtaAbove" 157 685 mark 0
LayerCount: 2
Fore
SplineSet
107 863 m 4,0,1
 136 888 136 888 137 888 c 4,2,3
 166 888 166 888 258 798.5 c 132,-1,4
 350 709 350 709 350 680 c 4,5,6
 350 662 350 662 336 648.5 c 132,-1,7
 322 635 322 635 304 635 c 4,8,9
 300 635 300 635 292 637 c 4,10,11
 275 640 275 640 237 684 c 4,12,13
 207 721 207 721 175 746 c 6,14,-1
 148 766 l 5,15,-1
 119 732 l 6,16,17
 29 625 29 625 -9 625 c 4,18,19
 -23 625 -23 625 -38 638 c 4,20,21
 -52 650 -52 650 -52 663 c 4,22,23
 -52 687 -52 687 14 762 c 4,24,25
 88 844 88 844 107 863 c 4,0,1
EndSplineSet
EndChar

StartChar: uni2E2D
Encoding: 11 11821 121
Width: 531
Flags: W
LayerCount: 2
Fore
SplineSet
225 321 m 4,0,1
 242 339 242 339 268 339 c 4,2,3
 293 339 293 339 312 322 c 132,-1,4
 331 305 331 305 331 278 c 132,-1,5
 331 251 331 251 314 233 c 132,-1,6
 297 215 297 215 270 215 c 4,7,8
 242 215 242 215 224.5 233.5 c 132,-1,9
 207 252 207 252 207 277 c 4,10,11
 207 303 207 303 225 321 c 4,0,1
494 332 m 0,12,13
 510 316 510 316 510 297 c 0,14,15
 510 275 510 275 491 257 c 128,-1,16
 472 239 472 239 441 234 c 0,17,18
 437 233 437 233 430 233 c 0,19,20
 406 233 406 233 388.5 249 c 128,-1,21
 371 265 371 265 371 288 c 0,22,23
 371 313 371 313 387 326 c 128,-1,24
 403 339 403 339 438 344 c 0,25,26
 458 346 458 346 461 346 c 0,27,28
 480 346 480 346 494 332 c 0,12,13
161 320 m 0,29,30
 177 301 177 301 177 283 c 0,31,32
 177 260 177 260 151.5 245.5 c 128,-1,33
 126 231 126 231 82 231 c 0,34,35
 56 231 56 231 45.5 234.5 c 128,-1,36
 35 238 35 238 28 248 c 0,37,38
 16 264 16 264 16 281 c 0,39,40
 16 299 16 299 30 316 c 0,41,42
 39 327 39 327 51.5 331.5 c 128,-1,43
 64 336 64 336 94 337 c 0,44,45
 107 338 107 338 125 338 c 0,46,47
 147 338 147 338 161 320 c 0,29,30
218 498 m 0,48,49
 234 514 234 514 253 514 c 0,50,51
 275 514 275 514 293 495 c 128,-1,52
 311 476 311 476 316 445 c 0,53,54
 317 441 317 441 317 434 c 0,55,56
 317 410 317 410 301 392.5 c 128,-1,57
 285 375 285 375 262 375 c 0,58,59
 237 375 237 375 224 391 c 128,-1,60
 211 407 211 407 206 442 c 0,61,62
 204 462 204 462 204 465 c 0,63,64
 204 484 204 484 218 498 c 0,48,49
230 165 m 0,65,66
 249 181 249 181 267 181 c 0,67,68
 290 181 290 181 304.5 155.5 c 128,-1,69
 319 130 319 130 319 86 c 0,70,71
 319 60 319 60 315.5 49.5 c 128,-1,72
 312 39 312 39 302 32 c 0,73,74
 286 20 286 20 269 20 c 0,75,76
 251 20 251 20 234 34 c 0,77,78
 223 43 223 43 218.5 55.5 c 128,-1,79
 214 68 214 68 213 98 c 0,80,81
 212 111 212 111 212 129 c 0,82,83
 212 151 212 151 230 165 c 0,65,66
EndSplineSet
EndChar

StartChar: uni2058
Encoding: 9 8280 122
Width: 531
Flags: W
LayerCount: 2
Fore
SplineSet
494 332 m 0,0,1
 510 316 510 316 510 297 c 0,2,3
 510 275 510 275 491 257 c 128,-1,4
 472 239 472 239 441 234 c 0,5,6
 437 233 437 233 430 233 c 0,7,8
 406 233 406 233 388.5 249 c 128,-1,9
 371 265 371 265 371 288 c 0,10,11
 371 313 371 313 387 326 c 128,-1,12
 403 339 403 339 438 344 c 0,13,14
 458 346 458 346 461 346 c 0,15,16
 480 346 480 346 494 332 c 0,0,1
161 320 m 0,17,18
 177 301 177 301 177 283 c 0,19,20
 177 260 177 260 151.5 245.5 c 128,-1,21
 126 231 126 231 82 231 c 0,22,23
 56 231 56 231 45.5 234.5 c 128,-1,24
 35 238 35 238 28 248 c 0,25,26
 16 264 16 264 16 281 c 0,27,28
 16 299 16 299 30 316 c 0,29,30
 39 327 39 327 51.5 331.5 c 128,-1,31
 64 336 64 336 94 337 c 0,32,33
 107 338 107 338 125 338 c 0,34,35
 147 338 147 338 161 320 c 0,17,18
218 498 m 0,36,37
 234 514 234 514 253 514 c 0,38,39
 275 514 275 514 293 495 c 128,-1,40
 311 476 311 476 316 445 c 0,41,42
 317 441 317 441 317 434 c 0,43,44
 317 410 317 410 301 392.5 c 128,-1,45
 285 375 285 375 262 375 c 0,46,47
 237 375 237 375 224 391 c 128,-1,48
 211 407 211 407 206 442 c 0,49,50
 204 462 204 462 204 465 c 0,51,52
 204 484 204 484 218 498 c 0,36,37
230 165 m 0,53,54
 249 181 249 181 267 181 c 0,55,56
 290 181 290 181 304.5 155.5 c 128,-1,57
 319 130 319 130 319 86 c 0,58,59
 319 60 319 60 315.5 49.5 c 128,-1,60
 312 39 312 39 302 32 c 0,61,62
 286 20 286 20 269 20 c 0,63,64
 251 20 251 20 234 34 c 0,65,66
 223 43 223 43 218.5 55.5 c 128,-1,67
 214 68 214 68 213 98 c 0,68,69
 212 111 212 111 212 129 c 0,70,71
 212 151 212 151 230 165 c 0,53,54
EndSplineSet
EndChar

StartChar: pusta_quadruple
Encoding: 104 57443 123
Width: 531
Flags: W
LayerCount: 2
Fore
SplineSet
494 332 m 0,0,1
 510 316 510 316 510 297 c 0,2,3
 510 275 510 275 491 257 c 128,-1,4
 472 239 472 239 441 234 c 0,5,6
 437 233 437 233 430 233 c 0,7,8
 406 233 406 233 388.5 249 c 128,-1,9
 371 265 371 265 371 288 c 0,10,11
 371 313 371 313 387 326 c 128,-1,12
 403 339 403 339 438 344 c 0,13,14
 458 346 458 346 461 346 c 0,15,16
 480 346 480 346 494 332 c 0,0,1
161 320 m 0,17,18
 177 301 177 301 177 283 c 0,19,20
 177 260 177 260 151.5 245.5 c 128,-1,21
 126 231 126 231 82 231 c 0,22,23
 56 231 56 231 45.5 234.5 c 128,-1,24
 35 238 35 238 28 248 c 0,25,26
 16 264 16 264 16 281 c 0,27,28
 16 299 16 299 30 316 c 0,29,30
 39 327 39 327 51.5 331.5 c 128,-1,31
 64 336 64 336 94 337 c 0,32,33
 107 338 107 338 125 338 c 0,34,35
 147 338 147 338 161 320 c 0,17,18
218 498 m 0,36,37
 234 514 234 514 253 514 c 0,38,39
 275 514 275 514 293 495 c 128,-1,40
 311 476 311 476 316 445 c 0,41,42
 317 441 317 441 317 434 c 0,43,44
 317 410 317 410 301 392.5 c 128,-1,45
 285 375 285 375 262 375 c 0,46,47
 237 375 237 375 224 391 c 128,-1,48
 211 407 211 407 206 442 c 0,49,50
 204 462 204 462 204 465 c 0,51,52
 204 484 204 484 218 498 c 0,36,37
230 165 m 0,53,54
 249 181 249 181 267 181 c 0,55,56
 290 181 290 181 304.5 155.5 c 128,-1,57
 319 130 319 130 319 86 c 0,58,59
 319 60 319 60 315.5 49.5 c 128,-1,60
 312 39 312 39 302 32 c 0,61,62
 286 20 286 20 269 20 c 0,63,64
 251 20 251 20 234 34 c 0,65,66
 223 43 223 43 218.5 55.5 c 128,-1,67
 214 68 214 68 213 98 c 0,68,69
 212 111 212 111 212 129 c 0,70,71
 212 151 212 151 230 165 c 0,53,54
EndSplineSet
EndChar

StartChar: pusta_quintuple
Encoding: 105 57444 124
Width: 531
Flags: W
LayerCount: 2
Fore
SplineSet
225 321 m 4,0,1
 242 339 242 339 268 339 c 4,2,3
 293 339 293 339 312 322 c 132,-1,4
 331 305 331 305 331 278 c 132,-1,5
 331 251 331 251 314 233 c 132,-1,6
 297 215 297 215 270 215 c 4,7,8
 242 215 242 215 224.5 233.5 c 132,-1,9
 207 252 207 252 207 277 c 4,10,11
 207 303 207 303 225 321 c 4,0,1
494 332 m 0,12,13
 510 316 510 316 510 297 c 0,14,15
 510 275 510 275 491 257 c 128,-1,16
 472 239 472 239 441 234 c 0,17,18
 437 233 437 233 430 233 c 0,19,20
 406 233 406 233 388.5 249 c 128,-1,21
 371 265 371 265 371 288 c 0,22,23
 371 313 371 313 387 326 c 128,-1,24
 403 339 403 339 438 344 c 0,25,26
 458 346 458 346 461 346 c 0,27,28
 480 346 480 346 494 332 c 0,12,13
161 320 m 0,29,30
 177 301 177 301 177 283 c 0,31,32
 177 260 177 260 151.5 245.5 c 128,-1,33
 126 231 126 231 82 231 c 0,34,35
 56 231 56 231 45.5 234.5 c 128,-1,36
 35 238 35 238 28 248 c 0,37,38
 16 264 16 264 16 281 c 0,39,40
 16 299 16 299 30 316 c 0,41,42
 39 327 39 327 51.5 331.5 c 128,-1,43
 64 336 64 336 94 337 c 0,44,45
 107 338 107 338 125 338 c 0,46,47
 147 338 147 338 161 320 c 0,29,30
218 498 m 0,48,49
 234 514 234 514 253 514 c 0,50,51
 275 514 275 514 293 495 c 128,-1,52
 311 476 311 476 316 445 c 0,53,54
 317 441 317 441 317 434 c 0,55,56
 317 410 317 410 301 392.5 c 128,-1,57
 285 375 285 375 262 375 c 0,58,59
 237 375 237 375 224 391 c 128,-1,60
 211 407 211 407 206 442 c 0,61,62
 204 462 204 462 204 465 c 0,63,64
 204 484 204 484 218 498 c 0,48,49
230 165 m 0,65,66
 249 181 249 181 267 181 c 0,67,68
 290 181 290 181 304.5 155.5 c 128,-1,69
 319 130 319 130 319 86 c 0,70,71
 319 60 319 60 315.5 49.5 c 128,-1,72
 312 39 312 39 302 32 c 0,73,74
 286 20 286 20 269 20 c 0,75,76
 251 20 251 20 234 34 c 0,77,78
 223 43 223 43 218.5 55.5 c 128,-1,79
 214 68 214 68 213 98 c 0,80,81
 212 111 212 111 212 129 c 0,82,83
 212 151 212 151 230 165 c 0,65,66
EndSplineSet
EndChar

StartChar: colon
Encoding: 6 58 125
Width: 213
Flags: W
LayerCount: 2
Fore
SplineSet
54 508 m 4,0,1
 70 524 70 524 89 524 c 4,2,3
 111 524 111 524 129 505 c 132,-1,4
 147 486 147 486 152 455 c 4,5,6
 153 451 153 451 153 444 c 4,7,8
 153 420 153 420 137 402.5 c 132,-1,9
 121 385 121 385 98 385 c 4,10,11
 73 385 73 385 60 401 c 132,-1,12
 47 417 47 417 42 452 c 4,13,14
 40 472 40 472 40 475 c 4,15,16
 40 494 40 494 54 508 c 4,0,1
66 175 m 4,17,18
 85 191 85 191 103 191 c 4,19,20
 126 191 126 191 140.5 165.5 c 132,-1,21
 155 140 155 140 155 96 c 4,22,23
 155 70 155 70 151.5 59.5 c 132,-1,24
 148 49 148 49 138 42 c 4,25,26
 122 30 122 30 105 30 c 4,27,28
 87 30 87 30 70 44 c 4,29,30
 59 53 59 53 54.5 65.5 c 132,-1,31
 50 78 50 78 49 108 c 4,32,33
 48 121 48 121 48 139 c 4,34,35
 48 161 48 161 66 175 c 4,17,18
EndSplineSet
EndChar

StartChar: NameMe.132
Encoding: 132 -1 126
Width: 1086
Flags: W
AnchorPoint: "lambe_bar" 408 339 basechar 0
AnchorPoint: "TehtaAbove" 342 735 basechar 0
AnchorPoint: "inside" 360 252 basechar 0
AnchorPoint: "TehtaBelow" 296 115 basechar 0
LayerCount: 2
Fore
SplineSet
513 612 m 0,0,1
 516 615 516 615 531 615 c 0,2,3
 576 615 576 615 608 602 c 0,4,5
 636 591 636 591 636 564 c 0,6,7
 636 550 636 550 627 537 c 0,8,9
 616 520 616 520 574.5 506.5 c 128,-1,10
 533 493 533 493 490 493 c 0,11,12
 428 493 428 493 339 473 c 0,13,14
 314 468 314 468 258.5 403.5 c 128,-1,15
 203 339 203 339 172 279 c 0,16,17
 135 209 135 209 132 121 c 2,18,-1
 132 105 l 2,19,20
 132 76 132 76 136 63 c 128,-1,21
 140 50 140 50 154 30 c 0,22,23
 196 -32 196 -32 271 -32 c 0,24,25
 304 -32 304 -32 340 -17 c 0,26,27
 419 17 419 17 568 157 c 0,28,29
 628 212 628 212 680 237 c 0,30,31
 717 256 717 256 739 261 c 128,-1,32
 761 266 761 266 820 268 c 0,33,34
 841 269 841 269 869 269 c 0,35,36
 910 269 910 269 946 251 c 0,37,38
 983 233 983 233 1010 197 c 0,39,40
 1024 178 1024 178 1028 169 c 128,-1,41
 1032 160 1032 160 1032 143 c 0,42,43
 1032 137 1032 137 1030 107 c 0,44,45
 1026 49 1026 49 1004 8 c 0,46,47
 969 -58 969 -58 921.5 -95.5 c 128,-1,48
 874 -133 874 -133 825 -133 c 0,49,50
 762 -133 762 -133 762 -82 c 0,51,52
 762 -60 762 -60 776.5 -48 c 128,-1,53
 791 -36 791 -36 830 -25 c 0,54,55
 850 -20 850 -20 861 -11.5 c 128,-1,56
 872 -3 872 -3 885 19 c 0,57,58
 928 87 928 87 928 121 c 0,59,60
 928 130 928 130 925 136 c 0,61,62
 906 168 906 168 833 168 c 0,63,64
 830 168 830 168 823.5 167.5 c 128,-1,65
 817 167 817 167 813 167 c 0,66,67
 754 163 754 163 701.5 133 c 128,-1,68
 649 103 649 103 579 32 c 0,69,70
 501 -46 501 -46 450.5 -79 c 128,-1,71
 400 -112 400 -112 332 -130 c 0,72,73
 298 -139 298 -139 263 -139 c 0,74,75
 192 -139 192 -139 134.5 -99.5 c 128,-1,76
 77 -60 77 -60 45 12 c 0,77,78
 27 53 27 53 27 120 c 0,79,80
 27 172 27 172 33 200.5 c 128,-1,81
 39 229 39 229 64 291 c 0,82,83
 79 326 79 326 111 379 c 128,-1,84
 143 432 143 432 167 459 c 0,85,86
 182 474 182 474 182 483 c 0,87,88
 182 490 182 490 158.5 499.5 c 128,-1,89
 135 509 135 509 118 509 c 0,90,91
 103 509 103 509 80.5 525 c 128,-1,92
 58 541 58 541 58 552 c 0,93,94
 58 562 58 562 80 584 c 0,95,96
 97 601 97 601 120 601 c 0,97,98
 134 601 134 601 166 598 c 0,99,100
 250 591 250 591 286 591 c 2,101,-1
 293 591 l 2,102,103
 346 591 346 591 426.5 598.5 c 128,-1,104
 507 606 507 606 513 612 c 0,0,1
EndSplineSet
EndChar

StartChar: .notdef
Encoding: 1 -1 127
Width: 669
Flags: W
LayerCount: 2
Fore
SplineSet
291 541 m 0,0,1
 445 541 445 541 501 532 c 0,2,3
 524 531 524 531 534 521 c 0,4,5
 535 520 535 520 536 517 c 0,6,7
 542 507 542 507 542 487 c 0,8,9
 542 482 542 482 541 476 c 0,10,11
 545 418 545 418 545 287 c 0,12,13
 544 149 544 149 541 94 c 0,14,15
 542 87 542 87 542 77 c 0,16,17
 542 56 542 56 530 47 c 0,18,19
 523 38 523 38 511 36 c 0,20,21
 506 35 506 35 496 35 c 2,22,-1
 487 35 l 2,23,24
 474 35 474 35 465 39 c 1,25,26
 382 37 382 37 246 40 c 0,27,28
 201 41 201 41 169 38 c 0,29,30
 165 36 165 36 161 36 c 0,31,32
 156 35 156 35 146 35 c 2,33,-1
 137 35 l 2,34,35
 105 35 105 35 97.5 60.5 c 128,-1,36
 90 86 90 86 88 190 c 2,37,-1
 88 235 l 2,38,39
 88 334 88 334 95 422 c 128,-1,40
 102 510 102 510 112 521 c 0,41,42
 119 530 119 530 139 532 c 0,43,44
 172 541 172 541 291 541 c 0,0,1
448 451 m 1,45,46
 272 450 272 450 256 450 c 0,47,48
 215 449 215 449 193 448 c 1,49,50
 195 389 195 389 195 287 c 0,51,52
 194 186 194 186 192 129 c 1,53,54
 229 131 229 131 281 131 c 0,55,56
 379 131 379 131 440 127 c 1,57,58
 438 157 438 157 438 190 c 2,59,-1
 438 235 l 2,60,61
 438 334 438 334 445 422 c 0,62,63
 446 433 446 433 448 451 c 1,45,46
EndSplineSet
EndChar
